<?xml version="1.0" standalone="no"?>
<!DOCTYPE svg PUBLIC "-//W3C//DTD SVG 1.1//EN" "http://www.w3.org/Graphics/SVG/1.1/DTD/svg11.dtd" >
<svg xmlns="http://www.w3.org/2000/svg">
<metadata></metadata>
<defs>
<font id="sf_gushing_meadowregular" horiz-adv-x="1435" >
<font-face units-per-em="2048" ascent="1638" descent="-410" />
<missing-glyph horiz-adv-x="534" />
<glyph horiz-adv-x="2048" />
<glyph horiz-adv-x="2048" />
<glyph unicode="&#xd;" horiz-adv-x="1024" />
<glyph unicode=" "  horiz-adv-x="534" />
<glyph unicode="&#x09;" horiz-adv-x="534" />
<glyph unicode="&#xa0;" horiz-adv-x="534" />
<glyph unicode="!" horiz-adv-x="461" d="M119 109q0 41 42 90.5t46 87.5q-14 25 -14 92q0 24 2.5 69t2.5 69q0 29 -3 65q-11 193 -53 575q-9 51 -9 68q0 86 62 140q76 -1 104 -37q20 -29 20 -106q0 -41 -12 -121q-19 -128 -36 -420q-15 -273 -42 -420l66 -66q38 -43 38 -82q0 -40 -38 -77q-44 -46 -53 -70 l12 -174q-17 -14 -39 -14l-12 5l-5 51q17 35 17 70q0 47 -48 111.5t-48 93.5z" />
<glyph unicode="&#x22;" horiz-adv-x="1091" d="M265 1234q0 56 8 94q43 32 85 32q29 0 62 -10q37 -51 37 -143q0 -82 -32 -221q-36 -153 -41 -218h-48v10q-31 63 -53 222q-18 137 -18 234zM626 1234q0 49 24 87q28 44 75 44q28 0 72 -15q38 -53 38 -149q0 -83 -31 -216q-36 -162 -43 -217h-53q-20 99 -59 299 q-23 119 -23 167z" />
<glyph unicode="#" horiz-adv-x="1464" d="M116 374v95h239q2 31 9 48h-48l-9 5q-17 55 -17 87q0 94 26 139q7 -139 59 -195l67 329h-75q-19 -25 -56 -78q-4 36 -52 78h-143v87h343q9 17 29 123q19 101 58 304h96v-7q0 -13 -28 -136q-8 -40 -59 -284h460q9 17 29 123q19 101 59 304h95q0 -5 -90 -427h216v-87 q-123 0 -123 -131q0 -21 3 -61t3 -60q0 -16 -2 -45.5t-2 -45.5q0 -56 26 -70h95v-95h-126q-24 -33 -31 -51q-18 49 -87 51q-18 -29 -22 -79q-2 -41 -3 -82h-31v9q-10 25 -12 70q-2 58 -5 73l-26 9l-83 -422h-96v12q0 17 24 116q27 116 68 294h-95l-9 -4q-24 -68 -22 -297 l-31 -3l-5 26q10 22 10 81q0 176 -27 197h-78q-24 -53 -28 -154q2 58 2 -159q0 -121 -31 -174q-17 180 -17 357q0 84 -17 107t-97 23h-29l-79 -427l-47 -3q-14 8 -43 8q24 133 51 400q-41 25 -186 22zM445 469h93l42 57l14 114q0 -94 20 -130q31 -49 118 -49q34 0 91 3 q66 5 88 5l4 5l27 135q-36 17 -36 115q0 -14 5 102q-30 39 -46.5 47.5t-65.5 8.5q-43 -61 -43 -204q0 -24 1.5 -70.5t1.5 -64.5l-27 -9l-12 19q26 73 26 155q0 178 -109 174l-40 -56l-8 -101q0 130 -57 157zM563 -225l17 59q17 -25 17 -61v-38q-15 0 -25 -5q-9 17 -9 45z M937 787q0 -38 14 -82h12l35 177h-17q-44 -41 -44 -95zM1002 469h140q34 50 34 166v82q0 39 -4 114l-52 51h-31zM1142 101q0 29 7.5 84.5t9.5 79.5q25 -52 25 -164q0 -70 -8 -115h-21q-1 14 -8 57q-5 36 -5 58z" />
<glyph unicode="$" horiz-adv-x="1094" d="M162 253q0 58 84 59q51 -47 73 -47q48 0 48 157q0 218 -22 322q-7 31 -55 70q-61 50 -80 77q-43 60 -43 143q0 227 253 326l8 96l40 5l3 -91l157 -10v101h48q0 -84 8 -109q111 -11 236 -144l-5 -70q-31 -20 -79 -20q-36 44 -71 90q-45 52 -89 70v-8q-14 -33 -14 -133 q0 -65 5 -186q5 -128 5 -186q111 -57 180 -145q80 -99 80 -212q0 -104 -87 -216t-87 -206q0 -30 9.5 -88t9.5 -89q0 -17 -9.5 -50.5t-9.5 -50.5q0 4 13 -261q-1 2 -5 2q-13 0 -25 -5q-9 18 -9 61v9q17 34 17 82q0 34 -14.5 99.5t-14.5 99.5q0 24 13 70t13 70q0 82 -57 161 l-27 -14q-17 -120 -17 -99q0 -26 4.5 -77t4.5 -77q0 -17 -4 -29q-22 -13 -44 -13t-31 17v230q0 34 -48 36l-25 -36q0 -65 -9 -191q-13 -92 -13 -87q0 19 18 -138q-13 -11 -30 -14q-12 22 -14 44q17 31 17 77q0 33 -25.5 62t-25.5 61q0 77 3 213l-20 9l-28 -36v-135 q0 -12 14 -42q15 -38 17 -48q-42 -21 -42 -150q0 -99 11 -238q-11 -6 -25 -8q-14 14 -14 31q0 18 11 51.5t11 52.5q0 -16 -17 505h-8q0 -137 -9 -268q-5 -79 -5 -97q0 -16 6 -44t8 -40q-12 -7 -26 -8l-10 5v29q19 35 19 109q0 36 -11 104t-11 104q0 15 6.5 46t6.5 46 q0 50 -72.5 105.5t-72.5 108.5zM258 1113q0 -70 49 -133q45 -57 113 -89v404h-22q-82 -51 -101 -70q-39 -41 -39 -112zM375 509q0 -69 9 -174q12 -147 14 -175l25 -8q0 41 4.5 125.5t4.5 126.5q0 89 -4 332l-22 3q-17 -34 -13 -109q-18 -38 -18 -121zM463 265q0 10 5 -130h8 q24 -14 70 -14q19 0 74 5q0 45 5 147q3 96 3 149v109q0 85 -36 116q-15 13 -112 53q-17 -140 -17 -268v-167zM468 870l157 -78v517h-157v-439zM659 148h13q77 53 101 84q38 48 38 125q0 73 -34 138q-40 72 -105 92z" />
<glyph unicode="%" horiz-adv-x="1601" d="M123 1005q0 89 27 171q33 101 94 142q27 11 75 47l147 -8q89 -43 140 -149q48 -95 48 -203q0 -118 -74 -225q-77 -113 -78 -137q-2 -17 -2 -46v-46q2 -34 2 -46l-10 -13q-24 10 -28 52q-1 33 -1 65q-2 -111 -28 -157q-10 202 -95 200q-16 -12 -31 -39q19 -81 19 -152 q0 -55 -9 -101l-27 -3l-12 22q20 70 20 186q0 60 -12 87t-51 58q-46 38 -58 55q-56 76 -56 240zM232 978q0 -287 155 -290q48 92 48 124q0 23 -8.5 66.5t-8.5 65.5q0 29 2.5 87t2.5 87q0 111 -19 177q-13 -12 -17 -59q-5 -57 -8 -67l-26 -3q-15 30 -13 78q-9 19 -35 51 q-73 -104 -73 -317zM280 -31q0 9 1.5 24.5t1.5 23.5q0 26 -1.5 76t-1.5 76q0 63 17 106v-41q0 -132 56 -155q130 196 405 645q257 419 408 641l61 -8v-5h-5q-232 -354 -678 -1074q-54 -95 -109 -191q-82 -125 -155 -130v12zM463 800q0 -25 34 -30q34 51 34 252 q0 181 -34 222l-34 -39v-405zM884 343q0 176 60 266q34 51 90.5 75t110.5 46q126 -3 203 -126q67 -106 67 -239q0 -129 -58 -208q-55 -55 -108 -111q-58 -66 -58 -167q0 -22 2.5 -67.5t2.5 -67.5q0 -75 -25 -126q0 25 -11 75.5t-11 76.5v204q0 35 -74 35q-31 -62 -31 -186 q0 -11 14 -188l-22 -9l-9 34q12 21 12 45q0 17 -6 52t-6 52t4.5 49.5t4.5 49.5q0 66 -76 194t-76 241zM992 391q0 -111 27 -203q39 -135 121 -140q24 13 87 25q65 108 65 345q0 231 -99 251l-27 -39q-9 44 -52 53q-51 -29 -63 -41q-24 -22 -37 -65q-22 -79 -22 -186z M1154 539l12 48l13 -56l-17 -5zM1261 -183q16 28 14 122l22 -152l-17 -9q-19 7 -19 36v3z" />
<glyph unicode="&#x26;" horiz-adv-x="1727" d="M183 396q0 106 78 198q67 78 174 128q36 12 70 26q45 15 60 39q-7 41 -73 128q-62 80 -62 155q0 104 101 169q89 56 199 56q113 0 189 -65.5t76 -176.5q0 -78 -61.5 -157t-63.5 -135q11 -44 35 -104l216 -258q65 48 113.5 134.5t48.5 162.5q0 26 -5 48q-24 12 -46 22 q-27 17 -32 38l401 31l8 -23l-8 -8q-130 -39 -251 -190q-99 -128 -198 -254q31 -70 125 -150q100 -84 170 -84q34 0 89 31t85 34q-6 -77 -87 -142q-73 -59 -73 -175q0 -41 8 -110q12 -80 14 -107q-19 -14 -39 -17q-14 14 -14 34q0 27 15.5 78.5t15.5 78.5q0 152 -96 186 q-54 -39 -54 -72v-15q1 -12 1 -17t-1 -14v-13q0 -23 12 -65.5t12 -64.5q0 -34 -8.5 -101.5t-8.5 -101.5t12.5 -99t12.5 -97q-20 -21 -43 -23q-22 21 -22 53q0 21 13 62t13 61q0 43 -6 125.5t-6 125.5q0 21 9.5 62.5t9.5 62.5q0 5 -2 13v14v17q2 10 2 15q0 12 -11 38 q-25 63 -121 135q-111 82 -140 121q-121 -120 -129 -222v-78q0 -18 -5.5 -52.5t-5.5 -52.5q0 -35 9.5 -107.5t9.5 -108.5l-13 -5q-35 13 -35 100q0 36 8.5 108.5t8.5 108.5q0 67 -8 113q-29 24 -56 27l-70 -109q-5 27 -48 70l-56 -17q-45 -69 -45 -244q0 -91 8.5 -144 t8.5 -56q0 -27 -29 -22l-5 39q9 17 9 43q0 15 -7 45.5t-7 46.5q0 29 11 87t11 87q0 68 -21.5 89.5t-90.5 31.5q-26 -51 -26 -155q0 -24 1.5 -72.5t1.5 -72.5q0 -81 -22 -125q-2 116 -3 231q-7 148 -45 220q-42 -46 -42 -125q0 -31 6.5 -91.5t6.5 -91.5q0 -112 -22 -213l-5 4 q-17 47 -17 203q0 42 4.5 128.5t4.5 128.5q0 50 -76 188t-76 222zM357 435q0 -136 100 -218q94 -77 234 -77q97 0 181 29q106 38 137 109q-7 7 -57 75q-36 50 -70 60q-27 -31 -22 -109l-25 -4q5 23 5 38q0 128 -55 203q-66 80 -133 159l-12 -4q-53 -116 -48 -353l-13 5 l-6 26q14 29 14 87q0 56 -14 130q-18 95 -47 109q-103 -94 -118 -113q-51 -65 -51 -152zM439 -573q0 15 8 73q19 -34 19 -85v-36l-22 -5q-5 47 -5 53zM579 1121q0 -63 42 -141q48 -87 106 -93l21 18q3 -38 44 -48q51 66 61 87q21 41 21 104q0 167 -104 174q-17 -29 -17 -61 q0 -16 4 -46t4 -45q0 -48 -17 -78q-27 76 -27 90q0 17 11 50.5t11 50.5q0 54 -56 61q-58 -24 -77 -43q-27 -27 -27 -80zM730 -196l23 61l30 -87q-10 -8 -39 -17q-14 24 -14 43zM792 800q3 -5 12 -13v13h-12z" />
<glyph unicode="'" horiz-adv-x="553" d="M164 1227q0 51 22 89q26 44 73 44q24 0 72 -17q36 -49 36 -140q0 -80 -32 -222q-38 -152 -41 -220h-48l-5 5q-19 99 -57 296q-20 116 -20 165z" />
<glyph unicode="(" horiz-adv-x="797" d="M176 678q0 196 95 413q101 230 250 339q29 22 68 45q24 -33 24 -50q0 -2 -58 -60l-65 -65q-26 -30 -62 -92q-174 -297 -174 -559q0 -157 67 -359q73 -215 172 -316q33 -29 65 -56q39 -36 50 -66l-19 -35q-50 36 -144 118q-116 123 -194 348q-75 215 -75 395z" />
<glyph unicode=")" horiz-adv-x="664" d="M121 -140q167 123 270 358q95 221 95 442q0 128 -42 275q-72 249 -197 388q-39 44 -112 112l17 40q188 -96 309 -367q109 -243 109 -478q0 -232 -113 -466q-122 -254 -314 -355z" />
<glyph unicode="*" horiz-adv-x="969" d="M68 817q28 31 67 50t48 34q17 26 17 99q0 68 -36 118l-87 51q13 51 48 70q47 -55 136 -107q75 -45 152 -89v362h73q0 -45 -8.5 -133t-8.5 -134q0 -59 12 -95q2 1 152 104q92 63 162 89v-11q29 -32 40 -64q-106 -29 -144 -127q-7 16 -22 28l-36 -28q-8 9 -20 9t-31 -9 q-5 -24 -22 -39q17 -51 48 -51q-16 0 35 12q14 -12 17 -12q11 0 31 42q4 -32 17 -95q4 -4 67 -33q42 -20 51 -49l-36 -56q-39 25 -65 30q-42 -128 -42 -177q0 -22 1.5 -65.5t1.5 -66.5q0 -32 -1.5 -95t-1.5 -96q0 -20 12.5 -55t12.5 -54q-24 -17 -48 -17l-13 9v5 q0 5 -2 14.5t-2 14.5q0 27 14.5 80t14.5 80v186q0 166 -34 289q-17 17 -56 44v-9q-21 -30 -21 -133q0 -22 2 -64t2 -64q0 -61 -17 -78h-14q-3 109 -5 218q-5 154 -48 195v-9q-12 -25 -12 -73q0 -50 9 -140q8 -96 8 -140q-23 0 -49 -12q-34 -14 -46 -17q-10 10 -17 26h-9v-26 q0 -21 4 -55q5 -42 5 -54l-31 -9q0 34 5 111q4 72 4 111q0 135 -35 208h-10q-29 -99 -29 -109q0 -44 9 -234q-14 -10 -28 -13l-8 5v82q14 27 14 78q0 65 -14 113h-12q-14 -43 -31 -70q2 61 -44 61q-10 0 -30 -8.5t-30 -8.5zM200 553q0 29 8 155l12 -42l5 25q9 -126 9 -130 q0 -35 -9 -52l-5 -91l-17 -10q-3 90 -3 145zM239 978h12v36h-12v-36zM282 1000q0 -36 30 -48l23 40l-18 42h-13l-22 -25v-9z" />
<glyph unicode="+" horiz-adv-x="1273" d="M102 756v87h500v509h91v-509h505v-87l-95 -8q-35 -67 -31 -178h-17l-5 17q17 31 17 62q0 44 -28.5 75.5t-70.5 31.5q-21 -32 -29 -99q-11 -72 -24 -101q1 113 -48 200q-24 -12 -53 -43l5 -152h-22q-3 64 -3 147q-6 12 -45 48h-56v-500h-91v500h-153q-26 -48 -26 -90 q0 -14 4.5 -42t4.5 -42q0 -29 -15.5 -84.5t-15.5 -84.5q0 -19 7 -56.5t7 -56.5q0 -20 -4 -39h-18v113q8 15 8 34q0 25 -14.5 74t-14.5 74q0 19 4.5 56.5t4.5 56.5q0 87 -110 87q-42 -55 -42 -73q0 -11 1.5 -30.5t1.5 -30.5t4.5 -32.5t4.5 -33.5q0 -27 -12 -47q-2 6 -2 10 q0 17 2.5 53t2.5 53q0 6 -1.5 20t-1.5 21q0 90 -127 90zM210 247l19 192q25 -46 25 -144q0 -106 -25 -155q0 15 -10.5 51t-8.5 56zM901 126l14 408q8 -17 8 -51q0 -15 -4 -47.5t-4 -48.5q0 -5 5 -30q8 -43 8 -92v-144l-22 -8z" />
<glyph unicode="," horiz-adv-x="500" d="M114 -309q36 15 57 67q15 42 30 85q4 -70 43 -70l5 2q31 13 51 63q19 43 19 83q-36 52 -78 57q-16 -19 -45 -57q-3 26 -38 72t-35 77q0 41 70 96h7q94 0 160.5 -54t66.5 -146t-87 -195.5t-87 -169.5q0 -17 2.5 -53t2.5 -53q0 -38 -14 -60q-17 68 -17 91q0 13 4.5 42 t4.5 43q0 12 -4 24q-34 30 -53 30q5 0 -65 -5v31zM224 -843q0 -17 20 234q22 -41 22 -186v-65q-15 -9 -34 -10q-8 8 -8 27z" />
<glyph unicode="-" horiz-adv-x="724" d="M92 761l4 79h477q14 -14 23 -92h-65q-53 -77 -53 -231q0 -37 5 -109.5t5 -107.5l-22 -8l-5 87q13 29 13 104q0 203 -39 247h-8q-40 -49 -40 -216q0 -60 11.5 -180.5t11.5 -179.5q0 -28 -6 -50l-25 -8q-9 25 -9 47q0 17 8.5 48t8.5 48q0 19 -8.5 56.5t-8.5 56.5 q0 27 6 80.5t6 81.5q0 18 -2.5 53t-2.5 54q0 118 -60 135l-34 -8q-47 -69 -47 -226q0 -54 5 -158q6 -110 6 -159l-20 -5v117q0 26 4.5 79t4.5 78q0 255 -48 282h-45q-34 0 -51 5z" />
<glyph unicode="." horiz-adv-x="620" d="M183 104q0 55 87 113l78 -9q56 -60 56 -104q0 -48 -69 -109h-18q-49 0 -91.5 30.5t-42.5 78.5z" />
<glyph unicode="/" horiz-adv-x="841" d="M17 -188l717 1663h92v-9l-722 -1662h-87v8z" />
<glyph unicode="0" horiz-adv-x="1157" d="M150 657q0 143 31 287q37 172 107 261q40 49 105 94q58 37 117 75h7q249 0 382 -219q111 -180 111 -447q0 -176 -56 -351q-70 -214 -188 -292l-58 -34q-36 -21 -49 -45q-17 -29 -17 -128q0 -27 1.5 -79t1.5 -79q0 -70 -25 -96v14q-14 32 -14 82q0 30 4 91t4 91 q0 63 -12.5 80.5t-74.5 37.5q-13 -46 -47 -135q-2 75 -29 120q-16 25 -67 68t-79 82q-155 220 -155 522zM302 696q0 -657 256 -657q131 0 200 87q54 70 82 289q18 155 18 319q0 208 -22 317q-41 195 -160 253q-48 -70 -48 -270q0 -46 2 -124q1 -91 1 -123l-29 -4 q-22 65 -22 104q0 48 11 141t11 141q0 102 -44 131q-17 -47 -17 -100q0 -34 5 -91q-17 -8 -39 -8q-12 20 -14 42q14 24 14 53q0 81 -48 96q-66 -60 -95 -118q-62 -126 -62 -478zM463 -275l17 67l13 -79l-25 -8z" />
<glyph unicode="1" horiz-adv-x="1055" d="M225 1082q140 94 231 174l82 82q42 36 109 36l5 -4q12 -157 12 -348q0 -128 -10.5 -385.5t-10.5 -385.5q0 -132 26 -157q15 -14 152 -46l5 -43h-67q-34 -53 -34 -205q0 -83 9 -235q7 -162 8 -234q-17 -19 -30 -19q-29 0 -29 70q0 38 10 110.5t10 108.5q0 34 -4 104 t-4 104q0 17 2.5 49.5t2.5 49.5q0 54 -19 75.5t-73 21.5q-40 -107 -40 -162q0 -24 14 -69t14 -69q0 -28 -31 -118l17 -143q2 -9 -7.5 -13t-18.5 -4l-13 25q22 45 22 104q0 7 -5 40l-14 218q-14 164 -51 191v-5q-34 -26 -34 -73q0 -19 4 -57.5t4 -57.5q0 -27 -13.5 -78 t-13.5 -79q0 -15 14 -281l-14 -9q-20 0 -20 34v10q17 35 17 101q0 50 -8.5 149.5t-8.5 149.5q0 19 1.5 54.5t1.5 54.5q0 50 -15.5 68.5t-66.5 18.5v38q44 10 90 18q53 19 67 57q12 32 12 266v821h-12q-39 -44 -125 -99q-92 -58 -141 -63q-9 19 -9 39z" />
<glyph unicode="2" horiz-adv-x="1150" d="M108 17q46 68 146 196q171 174 343 348q202 229 202 422q0 82 -22 145q-31 89 -96 89q-27 -22 -27 -225q0 -91 1 -140h-17v53q9 15 9 34q0 24 -13.5 70t-13.5 70q0 17 5 49.5t5 49.5q0 80 -70 83l-31 -48l17 -109q-19 -12 -39 -13q-10 18 -12 39q12 20 12 44q0 26 -12 62 q-14 12 -31 20l-39 -17q-17 -32 -17 -78q0 -23 4 -65.5t4 -61.5q-20 -12 -44 -12q-14 33 -12 147l-27 9q-33 -57 -65 -113q-48 -84 -70 -96q-21 24 -21 53q0 77 88 191q126 166 329 166q160 0 265 -98t105 -259q0 -162 -135 -333q-80 -102 -286 -286q-200 -179 -267 -268 h610q8 12 22 34l65 114h42l-25 -283h-109q-26 -41 -26 -138q0 -50 9 -142q8 -97 8 -142l-31 -8q-12 27 -12 84q0 18 2 51q2 39 2 51q-12 26 -12 61q0 28 4 80t4 77q-46 31 -131 31q-46 -65 -46 -172q0 -21 1.5 -60t1.5 -60q0 -46 -8 -92l-31 -3q-14 29 -14 90q14 29 14 104 q0 193 -44 193q-29 0 -46 -73q-11 -51 -11 -101q0 -24 14 -67.5t14 -67.5q0 -19 -9.5 -53t-9.5 -53q0 -6 10 -278l-19 -17q-25 7 -25 45v11q22 43 22 123q0 38 -11 113t-11 113q0 24 12.5 71.5t12.5 71.5q0 121 -64 152v-9q-23 -17 -33 -54q-10 -31 -19 -62q0 60 -22 95 t-78 35q-14 -19 -48 -79q0 36 -17 60t-53 24q-12 -5 -26 -5q-32 0 -47 17zM234 -244q17 29 17 92l22 -126l-19 -14q-20 19 -20 48zM377 -478q17 31 17 87q0 19 -4 58t-4 58q0 -17 13 118q12 -24 12 -68q0 -24 -6 -70t-6 -70q0 -26 13 -74.5t13 -74.5l-39 -3q-9 15 -9 39z " />
<glyph unicode="3" horiz-adv-x="1056" d="M121 135l39 31q60 -2 143.5 -62.5t157.5 -60.5q152 0 242 116q84 107 84 263q0 122 -60 218q-15 24 -24 32q-15 17 -34 19q-22 -19 -29 -78q-7 -70 -14 -87q0 210 -95 210q-5 0 -22 -11q-33 -51 -38 -109q-2 -15 -2 -116l-12 -5l-10 5l-8 152l-17 22l-31 -8 q-12 18 -34 59l5 202q0 13 -9.5 39t-9.5 39q0 19 7 54t7 54q0 29 -5 53l-35 25q-52 -24 -100 -121q-24 9 -34 26q10 13 70 119q41 74 87 103q27 17 86 30.5t83 25.5h17q119 0 196 -46q95 -57 95 -167q0 -81 -42 -146q-26 -39 -101 -116q-20 -23 -70 -59v-5q150 0 248 -108 q92 -106 92 -258q0 -134 -72 -237q-39 -55 -138 -136q-79 -67 -85 -105q-2 -10 -2 -30v-50q2 -32 2 -49q0 -28 -7 -83t-7 -83q0 29 14 -227l-31 -8q-22 36 -22 82q0 25 12.5 73.5t12.5 74.5q0 51 -12 169q-15 142 -30 149q-4 1 -6 1l-64 -10l-52 -70q9 -169 9 -307 q0 -60 -5 -89q-9 -48 -9 -51q0 -26 9 -101q-9 -10 -22 -12l-9 26q14 22 14 51q0 22 -8.5 65.5t-8.5 65.5q0 43 8.5 126.5t8.5 126.5q0 147 -70 164q-24 -29 -60 -96q-22 53 -29 63q-20 40 -46 47l-34 -43q0 -38 8.5 -111t8.5 -111q0 -19 -5 -44l-29 -4q-19 24 -19 51 q36 64 36 166q0 67 -42 125.5t-42 96.5zM295 -374q0 -1 14 39q19 -30 22 -73h-14q-22 0 -22 34zM365 1135q17 -157 17 -152q0 -29 -4 -85.5t-4 -85.5q0 -37 5 -64q15 -9 34 -12q12 15 82 59q55 36 61 75q-3 11 -3 21q0 22 17 63t17 63q0 43 -19 123q-20 92 -42 113 q-41 -60 -46 -89q-2 -5 -2 -99q0 -32 -9 -51q0 170 -42 234h-14zM457 927q0 -7 12 59q17 -29 17 -81q0 -26 -8 -40l-17 -5q-4 41 -4 67zM592 1043q0 -46 9 -82q24 -19 42 -22q53 94 53 162q0 58 -44 95l-12 4q-48 -51 -48 -157zM604 247v45q24 44 22 217q26 -60 26 -323v-3 l-12 -14q-36 15 -36 78z" />
<glyph unicode="4" horiz-adv-x="1048" d="M58 418q0 62 113 217q136 179 396 548q34 59 68 119q48 68 111 68v-878h222v-96h-222v-391q-21 -5 -36 -5h-108v391l-5 5l-56 -9q-48 -117 -48 -278q0 -60 31 -365l-22 -14q-22 5 -31 26q17 213 17 270q0 278 -39 370q-36 -14 -43 -44q-10 22 -31 39h-99q-20 -26 -58 -79 q2 60 -51 75q-25 7 -100 4q-9 12 -9 27zM167 492q255 0 435 -6v649h-5q-140 -229 -312 -461q-32 -44 -65 -87q-36 -51 -53 -95zM207 -14q15 45 15 135q0 22 -2 66.5t-2 65.5l14 -270l-3 -5h-14zM384 253q15 22 17 59q22 -34 22 -73q0 -22 -34 -22z" />
<glyph unicode="5" horiz-adv-x="1026" d="M128 152q48 36 96 36q131 -115 269 -115q130 0 214 108q78 99 78 232q0 79 -24 147q-31 90 -90 106l-12 -6q-17 -32 -21.5 -100t-17.5 -99v29q0 68 -18 89q-8 -11 -22 -14q-20 36 -17 140q-7 15 -19 25h-8l-21 -22l9 -121q-31 -20 -31 -92q0 -12 2 -34t2 -34 q0 -5 -2 -15.5t-2 -15.5q0 -38 6 -109.5t6 -103.5l-25 -9q-17 21 -17 56q0 26 11.5 78t10.5 79l-17 318q-4 51 -62 51q-10 0 -22 -3q-17 -26 -51 -79q-9 15 -36 31q-15 -9 -50 -19q-15 14 -15 44q0 60 14 188q3 33 12 220q7 135 27 219l212 8q34 -17 75 -17q46 0 128.5 23 t122.5 25q1 -41 1 -58q0 -63 -18 -94l-161 -13l-39 -65l5 -113l-9 -19l-10 5q-13 19 -13 77q0 24 1 62l-25 35q-23 -23 -33 -61q-12 -49 -20 -65q0 149 -113 149q-46 0 -66 -11l-26 -373h17q50 39 154 39l37 56q10 -42 77 -70q53 -19 106 -37q100 -48 161 -155.5t61 -223.5 q0 -140 -67 -239q-36 -51 -130 -130q-73 -63 -82 -106q-3 -17 -3 -42q0 -16 1.5 -45t1.5 -44q0 -24 -4 -71t-4 -71q0 -46 7 -139t7 -139q0 -41 -6 -78h-25l-4 13q18 69 18 191q0 57 -3 168t-3 167q0 119 -51 135l-19 -9q-37 -58 -37 -186q0 -24 1.5 -70t1.5 -70 q0 -13 -2.5 -41.5t-2.5 -41.5q0 -14 5 -91q-8 -8 -22 -8q-7 27 -7 70q0 47 6 143t6 143q0 72 -15 98q-21 35 -85 41l-35 -48v-7q0 -29 7 -85.5t7 -85.5q0 -58 -36 -58q-13 29 -13 84q22 44 22 104q0 32 -14 65q-19 39 -46 39q-41 0 -61 -66q-14 -48 -14 -103q0 -51 10 -135 q16 -106 17 -135q-19 -11 -39 -13l-5 44q8 17 8 46q0 22 -1.5 64t-1.5 64q0 24 1.5 69.5t1.5 68.5q0 70 -20 117q-2 1 -33 54q-20 33 -20 60zM311 486q0 24 10 67.5t12 64.5l25 -157l-22 -17q-25 10 -25 42zM606 343l14 53l11 -70l-20 -3z" />
<glyph unicode="6" horiz-adv-x="1058" d="M99 522q0 231 147 446q131 194 345 324q35 22 110.5 41.5t107.5 36.5l12 -5l5 -39q-39 -20 -78 -61v-144l-31 -8q-16 25 -12 78q-12 21 -36 57q-34 -23 -99 -70q-138 -115 -227.5 -318t-89.5 -386q0 -138 58 -266q71 -160 192 -160q21 0 58 13q113 41 152 120 q24 48 43 193q5 39 5 61q0 72 -22 145q-29 96 -82 108l-14 -5q-17 -33 -17 -101q0 -27 4.5 -80t4.5 -75l-31 -5l-13 13q22 103 22 166q0 83 -31 147h-10q-21 0 -111 -9l-17 26q36 39 112 39q149 0 253 -116t104 -266q0 -118 -96.5 -277.5t-96.5 -243.5v-19q0 -51 2 -75 q2 -29 15 -114q11 -72 11 -115q0 -47 -14 -73l-21 -5q-18 32 -18 65q0 10 18 126q9 53 9 116q0 12 -2.5 36t-2.5 36q0 8 1.5 22.5t1.5 23.5q0 44 -60 97q-73 -32 -73 -118q0 -18 4.5 -54t4.5 -55q0 -49 -17 -82q-6 139 -7 150q-11 70 -60 137h-9q-23 -24 -49 -48 q-12 -15 -19 -70q2 116 -53 135l-8 -3l-22 -40q-6 46 -50 86q-39 34 -77 66q-59 67 -94 188q-32 108 -32 208zM317 -217q0 33 16.5 91.5t18.5 86.5l30 -244q-15 -9 -34 -9q-31 34 -31 75zM404 -317q0 27 14.5 77.5t16.5 73.5q21 -42 21 -107v-56q0 -16 -4 -67l-13 -3 q-28 8 -26 42q-9 17 -9 40zM561 -444q0 87 21 127q22 -76 22 -84q0 8 -13 -200q-9 -13 -26 -12q0 29 -2 85.5t-2 83.5z" />
<glyph unicode="7" horiz-adv-x="1044" d="M138 1101v239l9 20q128 5 138 5h220q87 0 231 -1q174 -4 228 -4l4 -37q-16 -21 -69 -157q-76 -197 -93 -263q-40 -133 -38 -277h-7q-46 0 -54 48h-9q-14 -92 -106 -307q-80 -190 -80 -312q0 -33 3 -55l-3 -5l-70 -4q-17 19 -17 48q0 55 104 365q56 152 169 456 q0 43 18 126.5t18 126.5q0 80 -56 104h-40q-24 -26 -66 -82q-4 84 -113 82q-48 -74 -48 -265q0 -85 14 -283l-26 -3l-5 22q14 22 14 48q0 18 -9.5 53t-9.5 54q0 27 7 82.5t7 83.5q0 117 -39 191h-12q-12 -38 -19 -97q-10 -84 -12 -98l-27 -5q-12 27 -12 82q0 -3 3 96h-9 q-6 41 -47 39l-26 -17l-17 -99l-39 -10zM555 1005v17q0 11 17 69q27 -50 27 -125v-27l-31 -4q-13 28 -13 70zM782 1178l17 -48q17 27 39 87h-26z" />
<glyph unicode="8" horiz-adv-x="1108" d="M135 360q0 103 88.5 199t93.5 149q-151 178 -151 340q0 106 64 188q45 54 113 83q125 53 128 55q51 -4 102 -5q60 -5 101 -21q85 -32 145 -110.5t60 -167.5q0 -87 -46 -147q-14 -18 -89 -83q-53 -46 -61 -92q85 -77 170 -152q82 -81 82 -214q0 -90 -93 -221.5t-93 -225.5 q0 -32 10.5 -95.5t10.5 -95.5q0 -27 -8.5 -81t-8.5 -81q0 25 13 -186l-27 -5l-9 8q19 62 19 127q0 39 -5 117.5t-5 117.5q0 21 5 59t5 59q0 17 -5 52t-5 52q0 39 -20 51h-28q-37 -82 -37 -256q0 -43 1 -119q2 -82 2 -120h-14v408q-27 58 -64 62l-43 -48v-31q0 -34 6 -99 t6 -96q-19 -11 -39 -13q-9 22 -9 61v29q14 33 14 87q0 110 -99 110h-5q-11 -41 -36 -122q0 94 -62 164l-116 116q-61 79 -61 193zM266 357q0 -123 65 -210q72 -94 191 -94q118 0 198 78.5t80 194.5q0 80 -32 131q-43 52 -85 104q-34 -18 -34 -69q0 -6 5 -62l-28 -12 q-8 19 -8 55v27q5 10 5 22q0 57 -44 104q-43 -18 -43 -148q0 -48 5 -128q5 -94 7 -128l-29 -5l-10 44q22 44 22 130q0 215 -51 266l-19 3l-29 -8q-39 -77 -39 -157q0 -27 3 -77q5 -54 5 -75l-17 -8q-31 10 -31 47q0 24 10.5 72t10.5 72q0 15 -4 27q-68 -39 -87 -82 q-17 -34 -17 -114zM278 1082q0 -77 47 -145t119 -85l8 5q14 36 14 107v108q0 128 -22 220l-26 12q-75 -62 -99 -94q-41 -55 -41 -128zM362 -335q0 43 12 195q19 -36 19 -104q0 -21 -3 -62.5t-3 -62.5q0 -25 6 -61l-9 -5l-10 5q-12 27 -12 95zM474 981q0 -87 14 -128 q24 -68 96 -66q51 75 51 227q0 7 -17 186q-4 34 -7 68q-9 39 -41 50q-15 5 -43 5q-53 -106 -53 -342zM649 995q0 -97 34 -121h8q67 54 67 196q0 123 -57 174l-18 4q-34 -74 -34 -253z" />
<glyph unicode="9" horiz-adv-x="1022" d="M135 944q0 165 109 295q116 135 278 135q200 0 313 -174q95 -149 95 -360q0 -214 -77 -371q-47 -99 -167 -228q-147 -159 -186 -215l-3 22q-19 -19 -19 -57q0 -30 14 -52l17 66l13 -114l-30 -9q-2 -29 -12 -111q-11 -70 -11 -111q0 -34 11.5 -101.5t11.5 -101.5l-26 -13 l-22 22q17 83 17 191q0 36 -2 106.5t-2 106.5q0 21 4.5 61t4.5 60q0 19 -5 40q-19 12 -39 17l-48 -70q17 -74 17 -87q0 -14 -4.5 -41t-4.5 -41q0 -19 5 -188l-39 -3l-8 17q22 68 22 239q0 71 -5 117q-17 16 -40 23q-35 -19 -90 -19l-9 48h12q38 10 113 36q10 73 12 87 q10 51 27 81q11 -78 40 -126q44 24 59 103q24 116 28 124q-2 -77 39 -131q111 107 176 305q59 178 59 352q0 261 -123 387q-51 -22 -51 -165q0 -41 7 -122t7 -122q0 -24 -5 -52h-31l-3 57q17 37 17 121q0 276 -57 322q-29 -81 -30 -244l-14 -13q-8 10 -12 22q4 14 4 29 q0 147 -48 206q-157 -75 -157 -356q0 -161 56 -244q21 -31 58 -58q43 -33 73 -33q40 0 96 4q26 -11 26 -40q-38 -17 -60 -52q-2 -2 -36 -74q2 101 -78 101q-16 -31 -22.5 -100t-25.5 -100l-31 183h-3l-31 -174l-31 256q-36 53 -73 106q-70 110 -70 225zM295 191q0 -5 14 53 q19 -32 22 -101l-26 -3q0 7 -5 24t-5 27z" />
<glyph unicode=":" horiz-adv-x="459" d="M90 717q0 61 84 118h14q75 0 102 -43q22 -33 22 -109q-75 -84 -83 -106q-14 -31 -12 -130l-26 -8q-12 24 -14 66q0 53 -3 69.5t-46 62.5q-38 39 -38 80zM96 104q0 34 31.5 76t63.5 42q46 0 82 -21q44 -24 44 -66q0 -43 -37 -97q-50 -70 -58 -91l-5 10q-121 79 -121 147z M196 -191q0 10 21 112q27 -40 27 -138q0 -90 -22 -148l-9 5l-5 121q-12 22 -12 48z" />
<glyph unicode=";" horiz-adv-x="459" d="M68 -275q17 21 109 84q26 39 26 78q0 79 -104 178q2 73 14 92q6 12 36 17t55.5 31.5t32.5 134.5q5 76 9 152q19 -29 19 -62q0 -19 -7 -56.5t-7 -56.5q0 -29 25 -121q53 -10 81 -66q24 -48 24 -108q0 -94 -78 -183.5t-78 -169.5q0 -63 8.5 -189.5t8.5 -192.5 q-17 -9 -39 -9l-8 5v9q-14 29 -14 59q0 18 9.5 56t7.5 59l-17 225q-17 14 -34 14q-19 0 -53 -14zM116 730q0 62 82 113h9q117 0 117 -82q0 -44 -27 -106q-24 -49 -46 -99h-5q-10 40 -53 79q-36 32 -74 65q-3 17 -3 30zM234 -61q0 -31 25 -40q14 65 14 62q0 22 -19 39 q-20 -34 -20 -61z" />
<glyph unicode="&#x3c;" horiz-adv-x="1326" d="M55 748v87l1087 460l8 -99q-148 -39 -148 -196q0 -34 2.5 -99.5t2.5 -100.5q0 -15 -22 -17q-12 23 -12 65q0 14 1.5 41t1.5 41q-20 4 -39 22q22 96 22 101q0 14 -5 34l-43 17l-35 -17q-11 -32 -21 -128q-8 -83 -31 -124q-8 61 -22 182q-19 17 -34 17q-46 0 -73.5 -39 t-27.5 -87q0 -22 4 -58q5 -43 5 -58q-10 -5 -22 -5q-28 0 -28 77v30q2 24 2 33l-14 25h-8l-43 -117q-2 78 -53 100q-42 -24 -85 -49q-50 -33 -50 -77q0 -5 19 -61q4 -18 21 -52q27 -30 114 -47q10 35 38 104q3 -93 71 -152q63 -57 159 -67q17 31 17 82q0 12 -1.5 37.5 t-1.5 37.5q0 58 17 87q5 -121 7 -141q8 -87 32 -137l283 -118v-99h-8q-58 46 -140 60q-16 -10 -39 -39v-338l-31 -5q-9 19 -9 48q19 37 19 131q0 72 -10 143q-17 108 -48 108q-17 0 -37 -48l-14 48q-9 -17 -9 -58q0 -51 9 -77h8l9 67l17 -219l-17 -3q-10 3 -26 47 q23 -203 23 -235q0 -24 -3 -77t-3 -80q-18 -10 -39 -12q-5 49 -5 60v235q0 17 5 52t5 52q0 19 -11 52.5t-11 51.5q0 19 6 56.5t6 56.5q0 99 -104 114l-26 -30q9 -205 9 -253q0 -15 -4.5 -43.5t-4.5 -43.5q0 -20 11 -57t11 -56q-6 -1 -39 -8l-13 17q15 65 15 150 q0 22 -1.5 64t-1.5 64q0 7 13 166l-48 65h-12q-25 -36 -25 -70q0 20 12 -99q-21 -12 -39 -14l-4 5v-31q0 -10 4 -22q-12 -7 -26 -8l-5 39q10 20 10 65q0 201 -109 213q-26 -39 -26 -118q0 -29 2 -76q2 -57 2 -76q-19 -12 -34 -13q-14 27 -14 70q22 41 22 92q0 63 -31 164 l-47 10l-23 -31l-8 12v-8l-17 -31q-5 48 -57 114q-47 -24 -47 -83q0 -16 4 -44t4 -43q0 -11 -5 -21l-8 -5q-26 10 -26 51v22q14 26 14 57q0 65 -36 106zM172 792q5 -4 52 -19l17 19q-9 7 -29 17zM224 143q0 28 11 79t11 78q0 21 -11 59.5t-11 58.5l22 99q5 -15 22 -43l3 21 q2 -17 14 -72q9 -44 9 -71q0 -21 -6 -48q-34 -5 -34 -51q0 -11 2.5 -28.5t2.5 -28.5v-170h-18v39q-17 32 -17 78zM294 773q6 -17 30 -43v6q34 22 34 56q0 29 -34 51q-13 -20 -30 -70z" />
<glyph unicode="=" horiz-adv-x="1493" d="M215 278v92h469q45 74 45 99q0 21 -7 59.5t-7 58.5q0 15 2 43.5t2 43.5q0 74 -60 79l-45 -53q6 -33 6 -34q0 -2 -2 -4v-5l5 -56h-17v20q12 21 12 36q0 96 -72 96l-14 -5q-11 -23 -35 -65q0 46 -34 61q-21 9 -76 9h-12q-34 -52 -44 -96q5 -20 5 -39q0 -21 -3 -36 q17 -84 17 -99q0 -38 -26 -36q-13 29 -13 84q15 25 22 51q-5 22 -5 39q0 19 3 36q-26 102 -116 96v87h1096v-87h-92q-43 -62 -43 -232v-29l-9 -14q-24 10 -24 73v21q2 13 2 19q22 37 22 69q0 93 -121 93q-10 -38 -39 -110q-3 41 -48 105q-17 -21 -53 -91q0 60 -30 80 q-24 16 -88 16q-39 -103 -39 -244q0 -115 53 -139h178q5 23 8 106q2 68 22 103q23 -65 23 -96q0 -14 -3 -39.5t-3 -39.5q0 -15 6 -30l278 -4v-92h-121q-31 -56 -31 -177q0 -34 2 -92q1 -65 1 -91l-25 -5q-9 43 -9 121q0 33 2 96t2 95q0 40 -52 53q-44 -94 -44 -273 q0 -75 8 -198q12 -153 14 -198q-15 -7 -34 -8q-9 20 -9 95q0 109 4 144q14 138 14 126q0 101 -23 186q-30 128 -95 126q-31 -51 -31 -160q0 -34 2.5 -100t2.5 -100q0 -82 -13 -126q-23 22 -23 107q0 41 5.5 124t5.5 124q0 95 -36 114h-9q-31 -24 -31 -92q0 -26 7 -78t7 -77 l-25 -14l-14 9q-2 8 -8 33.5t-6 39.5q0 22 11 63t11 63q0 48 -42 67l-92 3q-53 -89 -53 -304q0 -27 9 -79t9 -78l-39 -5q-8 19 -8 84q12 25 12 80q0 162 -31 285l-12 14q-48 -50 -48 -157q0 -29 2 -85.5t2 -85.5q0 -75 -21 -107q-3 175 -7 233q-13 181 -46 205h-39 q-3 0 -14 -3q-13 -41 -17 -224q0 -100 -25 -147l-4 198q-8 152 -41 173zM280 -244q25 31 31 84q32 -53 34 -123q-17 -12 -48 -12q-17 25 -17 51zM459 -239q12 -20 12 -51v-29q0 -24 -8 -51l-4 5v126zM485 582q12 22 12 70l10 -79l-5 -3l-14 3zM901 553l5 43l9 -43h-14z" />
<glyph unicode="&#x3e;" horiz-adv-x="1329" d="M213 278v101l396 169q34 44 34 160q0 40 -8 118q-5 72 -12 142q-17 82 -92 88q-19 -37 -22.5 -120.5t-22.5 -123.5q0 212 -42 261v-3q-22 -20 -22 -84q0 -25 2.5 -78t2.5 -79q0 -51 -17 -68h-19v152q0 114 -21 169h-5v-177q-19 -12 -34 -14q-7 17 -5 205l-26 56 q-59 24 -73 46t-14 87v7l860 -370q77 -28 156 -55q85 -41 85 -123q-109 -49 -109 -210q0 -39 7 -112q7 -79 7 -113q-16 -7 -36 -9q-9 19 -9 62v42q22 38 22 110q0 63 -17 138q-18 17 -30 17q-17 0 -35 -75q-8 -46 -18 -94l-17 -5l-6 5l-8 65q0 -48 -12 -70l-22 -9v14 q-4 31 -7 63q-5 39 -32 46q-69 -58 -69 -150q0 -20 4 -60l-22 -3l-4 34q9 17 9 39q0 21 -14 70q-15 12 -31 17q-18 -25 -34.5 -103t-30.5 -93h-13q1 72 -39 145l-9 -5q-60 -148 -60 -247q0 -28 10.5 -79t10.5 -78q0 -45 -34 -43v12q-9 15 -9 31q0 23 11 71t11 72 q0 99 -22 169q-22 10 -70 27q-34 -51 -34 -95q0 -19 6 -55t6 -55q0 -29 -10.5 -83.5t-10.5 -81.5h-8v53q-14 30 -14 70q0 19 2 53.5t2 53.5q0 87 -52 87q-15 0 -30 -3l-40 -79v-119q0 -27 -6.5 -79.5t-6.5 -79.5q0 -54 9.5 -163.5t9.5 -162.5q-14 0 -28 -5l-12 17 q-8 125 -8 157l12 79q8 56 8 169q0 131 -17 204q-13 11 -30 14zM514 -9l17 62l13 -87l-27 -5zM826 730q0 -37 9 -73l13 -17l26 12q31 51 31 140q0 99 -43 126q-36 -63 -36 -188zM922 756q0 -14 5 -48q22 -17 39 -20l48 20q15 26 30 87l-52 70l-35 14q-35 -51 -35 -123z M1048 770l17 -17h5v8q9 14 9 22q0 11 -14 26q-15 -24 -17 -39zM1104 778q22 -15 39 -17l48 22v4l-56 22l-31 -22v-9z" />
<glyph unicode="?" horiz-adv-x="864" d="M174 1253l3 73q30 12 88 39q192 2 352.5 -146.5t160.5 -339.5q0 -174 -140 -278q-18 -38 -34.5 -127.5t-16.5 -138.5q0 -45 16.5 -130.5t17.5 -125.5q-20 -16 -42 -18q-21 24 -23 48q31 60 31 214q0 206 -56 242l-36 -70l-17 -200q0 185 -31 236h-3v-9q-14 -19 -14 -39 q0 -17 5 -44q7 -33 9 -43q-19 -9 -40 -9l-8 4l-5 36q8 15 8 42q0 26 -3 45l-19 12l-29 -31l-5 -96q22 -39 22 -51q0 -10 -15 -35.5t-15 -42.5q0 -34 45 -81t45 -93q0 -41 -48 -84.5t-48 -90.5q0 -25 9.5 -72t9.5 -71l-27 -3q-12 25 -12 59q17 33 17 79q0 41 -39 84 q-36 34 -70 68q0 66 46 119q53 58 58 103q-65 87 -65 387v4q44 13 160 22q103 7 157 30q122 55 122 209q0 99 -48 162q-21 27 -126 116q-29 -12 -48 -51q-5 54 -65 73l-60 -14q-41 -49 -46 -80q-2 -7 -2 -92q0 -38 -18 -67q-2 53 -4 108q-7 73 -25 97q-28 19 -79 62z M278 857v49q0 4 4 21l18 -67zM452 87q0 31 12 86.5t14 82.5q25 -49 25 -121q0 -34 -8.5 -100.5t-8.5 -99.5h-13v82q-21 31 -21 70zM461 1062l12 99l13 -113l-17 -9z" />
<glyph unicode="@" horiz-adv-x="1655" d="M172 640q0 302 212.5 522t513.5 220q334 0 486 -303q48 -96 48 -205q0 -22 -4 -48q-32 -242 -134 -360q-23 -17 -62 -58q-19 -27 -17 -172h-17l-5 3q-3 109 -43 121q-44 -34 -61 -60q-4 31 -26 31q-30 -26 -30 -87q0 -24 6.5 -69t6.5 -66l-13 -8q-23 7 -23 47 q17 31 17 69q0 123 -76 123q5 0 -53 -9q-17 33 -17 82q0 9 3 79l-17 3q-39 -72 -135 -130q-12 -36 -39 -104q0 70 -48 70q-10 0 -39 -5l-12 -26l8 -95l-25 -5l-5 44q8 14 8 31q0 25 -54.5 98.5t-54.5 131.5q0 63 29 135q29 61 58 125q22 52 22 221q0 151 -22 236l-17 3 q-300 -288 -300 -604q0 -305 249 -495q95 -73 172 -78q19 27 21.5 86t14.5 83v-74q0 -83 21.5 -104.5t99.5 -21.5q345 0 540 266q25 46 51 94q36 58 80 58v-5q-31 -70 -106 -200q-51 -51 -101 -102q-54 -58 -54 -133q0 -29 8.5 -85.5t8.5 -83.5l-22 -3l-4 34q9 24 9 87 q0 83 -9 109h-10q-2 -44 -3 -89q-4 -58 -17 -82q-4 43 -6 84q-6 49 -30 77q-40 -38 -40 -99q0 -16 5.5 -45.5t5.5 -45.5q0 -10 -5 -27h-14l-3 56q8 19 8 62q0 56 -39 70l-34 -14q-40 -53 -40 -79q0 -13 4.5 -40.5t4.5 -40.5q0 -21 -9 -36v92q0 89 -56 87q-22 -34 -22 -109 q0 -19 -9 -48q-12 -38 -13 -48q-4 -15 -5 -113q0 31 -8.5 91.5t-8.5 91.5q0 12 2.5 37t2.5 36q0 36 -12 44.5t-50 8.5q-20 -35 -20 -99q0 -15 1.5 -45.5t1.5 -46.5q0 -58 -17 -87q-3 79 -5 159q-12 125 -48 123q-25 -17 -25 -39q0 -11 4 -29.5t4 -27.5q-26 -29 -26 -99 q0 -15 9 -249l-22 -3l-4 61q17 31 17 82q0 32 -11.5 93.5t-11.5 92.5q0 12 3 37.5t3 37.5q0 27 -19.5 50.5t-46.5 23.5q-41 0 -34 -274h-14q0 267 -31 291v-4q-27 -12 -27 -44v-29q2 -19 2 -29q0 -16 6.5 -44t6.5 -42l-22 -8l-3 39q12 24 12 55q0 7 -2 20.5t-2 20.5v8 q2 5 2 9q0 27 -20 65q-21 -19 -21 -70q0 -38 4.5 -111.5t4.5 -110.5q0 -33 -9 -51q0 18 -7 57.5t-7 59.5q0 23 7 68t7 67q0 74 -17 113q-14 31 -53 66q-51 48 -61 60q-156 193 -156 449zM459 -357q5 -8 5 -22v-24q0 -1 -1 -5l-4 4v47zM594 539q0 -46 25.5 -83.5t69.5 -37.5 q41 0 99 48q86 72 145.5 186t59.5 222q0 104 -73 118q-27 -40 -27 -135q0 -28 2.5 -79t2.5 -73l-22 -5v7q0 34 2.5 104t2.5 104q0 27 -5 51l-31 12q-16 -48 -17 -73h-17q-4 22 -23 30h-3q-65 -49 -128 -180.5t-63 -215.5zM594 1039q0 -24 4 -71.5t4 -71.5q0 -31 23 -36 q37 67 160 145l34 86q2 -18 36 -60q14 3 38 3q88 0 126 -99h5q3 53 24 67q10 8 72 20q-6 21 -6 43q0 24 5.5 70t5.5 70q0 104 -58 104l-21 -26l-5 -230h-22q-10 22 -9 77l-20 5q-10 29 -10 43q0 17 6.5 52.5t6.5 52.5q0 52 -78 52q-26 -48 -26 -122q0 19 9 -126l-22 -5v27 q13 24 13 69q0 105 -39 148q-9 -128 -34 -174v49q0 125 -45 125q-5 0 -42 -8l-22 -26l3 -118l-12 -5q-9 34 -5 114l-21 12q-30 -10 -44 -25q-34 -41 -34 -231zM785 -340q9 -15 9 -34v-34q0 -7 -6 -22l-3 3v87zM881 -430l12 34q18 -26 18 -67v-37q-12 -7 -27 -9zM980 -312 q0 -5 18 56q24 -34 26 -87q-9 -5 -26 -14q-18 19 -18 45zM1007 452q0 -70 65 -70q42 0 104 45q49 36 84 78q121 154 121 352q0 111 -63 244q-72 153 -168 169q-22 -22 -22 -62q0 -49 14 -182h20v-9q0 -39 -58 -217q-37 -117 -77 -235q-20 -72 -20 -113zM1080 247l9 40 q14 -22 14 -53v-26l-18 -3q-5 51 -5 42zM1181 -208q0 13 9 48q17 -29 17 -70q0 -11 -3 -32t-3 -30q-10 0 -17 -3q-3 77 -3 87z" />
<glyph unicode="A" horiz-adv-x="1522" d="M44 5v26q82 10 197 42q47 35 92 157q31 91 60 183q117 317 351 952q22 4 67 9q148 -333 351 -917q31 -100 62 -201q46 -143 87 -174q12 -9 88 -24q58 -10 67 -53l-3 -5h-53l-40 -48q2 -22 7 -116q5 -72 5 -116q0 -107 -23 -155q-2 41 -14 141q-10 91 -10 142q0 17 4 50.5 t4 50.5q0 15 -3 29q-16 17 -38 22q-24 -36 -27 -94q0 5 1 5t1 -106q0 -52 -14 -75h-5v103q0 80 -14 114q-22 58 -102 58h-19l-39 -66q5 -91 5 -108q0 -27 -11 -82.5t-11 -83.5q0 -17 9 -50t9 -50q0 -12 -1 -22q-16 -7 -31 -7t-20 17q32 95 32 135q0 66 -14 167 q-17 126 -41 150h-87q-1 15 -8 29q60 5 118 10q85 14 85 57q0 34 -62 204q-49 140 -81 217q-33 -29 -40 -53h-3q-10 127 -95 127h-1q-39 -62 -39 -192q0 -58 11 -171.5t11 -167.5q-12 -5 -24 -5q-29 0 -29 107q0 57 5 89q9 55 9 61q0 185 -44 274q-38 -36 -38 -77 q0 -24 5 -62q5 -46 7 -61l-34 -4l-5 60q13 24 13 55q0 87 -92 94q-63 -94 -63 -171v-21q2 -13 2 -20t-2 -20v-19q0 -28 19 -77.5t19 -76.5q-21 -14 -48 -14q-4 2 -14 6q-7 20 -8 42q32 53 32 120q0 5 -1.5 17t-1.5 17q0 8 1.5 22.5t1.5 23.5q0 48 -32 84h-4 q-39 -69 -83.5 -222.5t-47.5 -230.5h13q45 -22 155 -22h28q10 -14 12 -29l-143 -5q-26 -58 -31 -140v-145q0 -92 -21 -137q-29 161 -29 190q0 22 3.5 66.5t3.5 66.5q0 101 -61 104l-48 -70q5 -107 5 -126q0 -27 -5 -96q-4 -42 -4 -73q0 -12 1 -22h-9l-8 3q6 24 6 55 q0 29 -20 128q15 82 15 119q0 83 -147 83q-16 0 -34 -1zM365 -579v-1q1 0 10 71l18 -92q-7 -3 -23 -8v5q-5 10 -5 25zM541 652l3 -3q82 -11 157 -11q41 0 113 2q82 3 113 3v17q-55 118 -144 362q-18 74 -20 74q-14 42 -39 65q-19 -74 -99 -253q-70 -157 -84 -256zM910 335 l22 52q19 -30 22 -75q-7 -3 -19 -8q-24 10 -25 31z" />
<glyph unicode="B" horiz-adv-x="1353" d="M80 1295v31q301 39 505 39q340 0 487 -117q95 -77 95 -193q0 -70 -64.5 -150.5t-69.5 -131.5q114 -97 162 -157q78 -102 78 -206q0 -91 -66 -183q-58 -84 -144 -135q-51 -89 -51 -200q0 -13 7 -40.5t7 -40.5q0 -16 -11 -28q-23 10 -22 40q17 30 17 68q0 66 -42 140h-14 l-48 -45q-10 -35 -34 -107q-15 116 -70 138l-48 -3q-32 -50 -32 -154q0 -32 9.5 -96t9.5 -97q0 -27 -14 -81t-14 -81v-29q0 -26 11 -67q12 -47 13 -66q-13 -10 -30 -12q-14 22 -14 48q20 36 20 83q0 43 -12.5 125t-12.5 125q0 37 12 108.5t12 109.5q0 85 -67 85 q-19 0 -39 -1q-34 -52 -34 -113q0 -26 4 -77t4 -77q0 -54 -17 -90q-2 22 -13 67.5t-11 68.5q0 21 7 62t7 61q0 55 -43 98l-12 -5q-35 -48 -35 -173q0 -22 1.5 -68t1.5 -68q0 -106 -24 -157q-29 194 -29 225q0 22 3.5 67.5t3.5 67.5q0 106 -78 106h-1q-20 -23 -39.5 -45 t-19.5 -56q0 -21 6.5 -60t6.5 -60q0 -39 -19 -75q-6 38 -17 113q-12 133 -17 145q-20 38 -121 38h-15v25q7 4 106 27q75 18 91 45t16 102q0 -3 -8 231q-4 93 -4 708v123l-5 3l-95 5q-26 -25 -26 -80q0 -20 3 -63h-17v113q-25 39 -87 47zM263 -391q5 31 13 91q2 -31 9 -91 l-5 -5l-9 5h-8zM423 -553q0 -2 19 70q12 -26 12 -58v-68l-26 -4q-5 55 -5 60zM483 445q0 -298 75 -353q43 -31 155 -31q180 0 180 190q0 46 -8 132t-9 126h-31q-12 25 -12 61q15 26 15 60q0 24 -7 48q-25 22 -44 22h-51l-22 -26q3 -48 13 -143q-13 -10 -30 -14 q-11 27 -11 50q0 15 8 45.5t8 46.5q0 8 -2 19q-38 29 -73 30q-14 -25 -28.5 -80t-28.5 -80q0 66 -13 102q-23 55 -77 55q0 -29 -4 -130q-3 -80 -3 -130zM485 1161q0 -4 5 -35q3 -20 3 -63q0 -37 -1 -114v-114q0 -38 1 -65q67 -11 120 -11q167 0 263 74q105 82 105 244 q0 128 -75 148l-8 -3l-43 -92q-10 136 -70 162q-15 7 -39 8q-46 -131 -46 -256q0 -22 6 -67t6 -67q0 -9 -2 -19l-26 -4q-13 14 -17 35q17 34 17 111q0 208 -51 267q-15 -32 -29.5 -103.5t-31.5 -105.5q0 203 -79 204l-8 -3v-131zM558 439q22 35 22 100q17 -32 17 -92 q0 -29 -3 -48h-31zM558 -548l5 39q2 -13 9 -39h-14zM561 847v34q0 59 19 94q2 -57 5 -171h-22q-2 34 -2 43zM838 954q0 48 17 116q21 -34 21 -94v-63l-9 -14q-29 7 -29 55zM852 -425q0 15 8 38q10 29 12 35q29 -39 31 -92q-22 -12 -36 -13l-12 5v13q-3 7 -3 14zM867 613 q5 -12 14 -34l3 34v12q0 17 -12 32zM872 -183q10 -17 10 -53q0 -34 -10 -51v104zM913 290q0 -75 15 -130q16 -6 40 -12q20 19 47 65q-27 21 -27 62q0 37 22 104q19 -46 57 -62v6q13 23 13 66q0 104 -39 125q-8 -14 -26 -40h-5l-17 69h-3l-5 -130h-22l1 66v-1q0 87 -19 162 h-8v-5q-21 -21 -21 -77q0 -12 2 -36t2 -36q0 -32 -3.5 -97.5t-3.5 -98.5z" />
<glyph unicode="C" horiz-adv-x="1341" d="M61 657q0 234 142 416q130 166 355 270q67 31 232 31q97 0 205 -19q147 -24 186 -70q29 -34 29 -113v1l-3 -94l-36 -9q-24 50 -67 111q-58 82 -85 82q-46 0 -46 -203q0 -91 7 -155l-26 -6q3 69 3 173q0 242 -78 242q-5 0 -12 -2q-22 -25 -22 -75v-80l-31 -8 q-12 23 -12 56q9 17 9 37q0 57 -40 70q-17 -34 -17 -70q0 -11 2 -34.5t2 -35.5q0 -51 -34 -51q-16 22 -16 58q0 11 2 33t2 32q0 51 -41 68q-63 -44 -63 -146q0 -34 5 -94q7 -65 7 -94l-45 -17q12 -24 12 -51q0 -26 -11 -76.5t-11 -75.5q0 -24 9.5 -69.5t9.5 -67.5 q-16 -10 -34 -12q-9 21 -9 43q14 29 14 65q0 29 -14 82.5t-14 82.5q0 14 9.5 37t9.5 37q0 12 -10 235q-21 19 -43 26q-126 -166 -167 -253q-56 -124 -56 -297q0 -373 240 -554q50 -38 214 -65q41 -7 63 -7q89 0 191 44q109 48 159 115q20 37 41 73q25 46 59 53l4 -31 q-5 -13 -26 -129q-15 -93 -44 -113q-19 -14 -67 -24q-36 -9 -71 -15q-47 -84 -47 -139q0 -22 5.5 -64.5t5.5 -64.5q0 -50 -21 -86q-29 94 -29 125q0 24 8 70t8 70q0 75 -75 75h-4l-31 -56q2 -113 2 -106q0 -39 -7 -117t-7 -117q0 -17 4.5 -52t4.5 -52q0 -24 -5 -48h-26 q-19 188 -19 388q0 15 3 43t3 44q0 73 -62 73h-3q-50 -145 -50 -316q0 -17 6 -51t6 -51q0 -29 -14 -51v148q0 246 -47 330q-40 -58 -40 -115q0 -31 6 -89.5t6 -89.5q0 -55 -17 -89l-13 -8q-21 46 -21 88q0 36 8 107t8 107q0 121 -103 128q-39 -58 -39 -186q0 -53 3 -92h-17 v25q10 24 10 60q0 48 -13 125q-17 90 -36 116q-34 44 -143 138q-81 68 -130.5 174t-49.5 249zM676 -565q0 2 13 48q16 -26 18 -84l-26 -3q-5 32 -5 39zM954 -635q0 31 9 84q12 61 13 82q26 -50 26 -132v-48q-14 -8 -31 -11l-17 20v5z" />
<glyph unicode="D" horiz-adv-x="1686" d="M92 39q14 5 104 26q69 14 92 44q33 41 33 200q0 116 -2 350t-2 350q0 17 -2.5 48.5t-2.5 48.5q0 116 -7 150q-54 19 -107 36q-72 26 -89 60q9 5 17 5q55 0 166 -11t165 -11q24 0 70 5q183 20 275 20q188 0 265 -29q254 -97 380 -246q142 -169 142 -425q0 -109 -47 -233.5 t-120 -201.5l-70 -54q-45 -34 -52 -70q-29 -48 -29 -147q0 -27 3 -81t3 -81q0 -80 -24 -123q-21 75 -21 113q0 30 8 89t8 90q0 70 -35 92v-5q-30 -38 -30 -109q0 -31 6.5 -91.5t6.5 -91.5q0 -29 -4 -89.5t-4 -93.5l-14 -8q-22 7 -22 34q0 5 2.5 15.5t2.5 15.5q0 13 -4 39.5 t-4 40.5q0 25 5 76.5t5 76.5q0 125 -41 185l-70 -17q-36 -55 -36 -106q0 -24 7 -72.5t7 -72.5q0 -19 -4 -36h-8q-9 -7 -17 -7q-24 0 -24 60q0 14 2 29q17 32 17 72q0 116 -74 116q-41 -65 -41 -145q0 -31 4.5 -94t4.5 -94q0 -72 -21 -116q-22 283 -22 287q0 17 5 50t5 50 q0 58 -53 58q-20 0 -42 -1q-7 -67 -45 -197q0 169 -59 197v-4q-50 -44 -50 -263q0 -128 14 -290l-26 -8q-19 17 -17 47q24 41 24 116q0 53 -12 156.5t-12 156.5q0 90 -53 97q-51 -75 -51 -212q0 -42 6 -129t6 -130q0 -82 -17 -142h-9l-5 14q9 26 9 51q0 22 -7 68.5t-7 68.5 q0 39 9.5 116.5t9.5 117.5q0 174 -118 174q-20 -40 -65 -118q-5 118 -102 118q-27 0 -85 -5l1 3q0 14 -5 27zM270 -365q17 27 17 87q0 20 -2 59.5t-2 59.5v7q11 -19 11 -44q0 -17 -3.5 -53t-3.5 -53q0 -10 30 -72l-8 -8q-5 -14 -12 -22q-27 5 -27 34v5zM483 555 q0 -46 7 -127q8 -90 10 -124v-14q0 -40 9 -107q18 -60 109 -98q77 -30 150 -30q34 0 63 6q263 64 394 188q154 147 154 400q0 180 -87 348q-101 194 -261 225l-12 -9q-31 -58 -31 -223q0 -38 2.5 -112t2.5 -112q0 -22 -1 -49q-9 -5 -17 -5q-7 0 -14 1q-4 24 -4 52q0 25 9 77 t9 78q0 25 -7 68q-9 50 -11 68v86q0 106 -61 123l-39 -43v-444h-12q-4 -5 -10 -5q-29 0 -29 79q0 32 9 96t9 96q0 163 -6 176.5t-48 66.5q-57 -62 -57 -138q0 -31 6 -91.5t6 -91.5q0 -27 -8 -68q-10 -55 -12 -67q-4 -34 -4 -88v-23q-1 45 -12 152q-10 97 -10 154 q0 24 6 70.5t6 70.5q0 108 -65 128q-42 -37 -42 -138v-22q-21 -9 -48 -9l-9 4l-13 19q15 41 15 85q0 12 -2 22l-27 9q-10 -40 -10 -183q0 -89 -3.5 -264t-3.5 -263zM678 -614q0 23 13 58q19 44 22 56q40 -46 40 -140v-9q-17 -11 -38 -11q-37 0 -37 46zM713 -225 q14 -28 14 -67v-54q0 -36 -14 -62v183zM1227 -553q21 31 26 84q24 -41 24 -92q0 -28 -29 -28q-21 0 -21 30v6z" />
<glyph unicode="E" horiz-adv-x="1473" d="M92 5v34q72 5 208 40q11 75 11 196q0 66 -3.5 199.5t-3.5 199.5v159q1 106 1 159q0 153 -10 278q-25 24 -51 24q-44 0 -51 -81q-7 -90 -27 -104q0 62 -9 161q-26 17 -65 65l9 17h25l1113 -4q9 -22 9 -65q-14 -29 -14 -83q0 -55 14 -147l-21 -5l-8 5q-55 213 -140 234 q-48 -72 -48 -208q0 -58 13 -110q41 -20 50 -27q19 -17 19 -51v-4q-12 -29 -12 -85q0 -65 8 -182q11 -125 12 -181l-29 -4q-13 53 -27 106q-22 72 -56 80q-23 -20 -23 -63q0 -31 12 -84q14 -59 16 -83q-14 -7 -31 -9l-14 14q17 89 17 174q0 34 -3 73q-38 40 -92 40 q-41 -72 -41 -236q0 -51 6 -151t6 -148l-22 -8q-17 55 -17 99q0 49 10 149t10 150q0 124 -56 140q-38 -55 -41 -113q-2 116 -77 118q-20 -33 -43 -57q-13 9 -30 9q-17 -38 -17 -101q0 -44 10 -121q10 -85 12 -121l-31 -14q-15 38 -15 121v57q0 22 6 63.5t6 64.5q0 94 -81 94 q-3 -340 -3 -530q0 -17 17 -66q21 -10 60 -10q51 0 61 -2q116 -17 190 -17q307 0 389 60q31 22 90 140q53 107 92 117l9 -5v-17q-32 -53 -41 -159q-10 -143 -15 -167l-135 -5q-31 -46 -36 -135v2q2 0 2 -147q0 -106 -26 -159q-19 205 -19 239q0 26 5.5 76.5t5.5 75.5 q0 24 -40 45l-36 -45l23 -230q-16 -10 -35 -14l-5 127q11 23 11 58q0 41 -11 76q-34 24 -134 31q-43 -61 -43 -203q0 -24 1.5 -73.5t1.5 -73.5q0 -65 -8 -114l-31 -10q-10 17 -12 35q17 41 17 164q0 234 -44 263q-36 -87 -36 -242q0 -33 8.5 -99.5t8.5 -98.5 q0 -19 -12 -52.5t-12 -51.5q0 -12 12 -113l-20 -5l-6 31q12 22 12 47q0 24 -11.5 72t-11.5 72q0 46 11.5 138t11.5 138q0 173 -101 173h-1q-63 -86 -63 -137q0 -20 7.5 -57.5t7.5 -58.5q0 -15 -6.5 -43.5t-6.5 -43.5q0 -26 11.5 -76t11.5 -76q0 -51 -23 -75h-18v26 q0 47 5.5 143t5.5 143q0 214 -63 246v-5q-19 -41 -60 -118q-10 132 -96 132q-13 0 -44 -14q-17 -22 -17 -80q0 -48 10 -141t10 -141q0 -19 -3 -37q-15 -5 -34 -5v8q-10 27 -10 75q0 39 5.5 118.5t5.5 118.5q0 72 -29 89h-155zM439 -601l10 53q3 -24 12 -70h-17zM474 1060 q0 -58 4 -161q5 -114 5 -160l3 -3l98 -6q12 18 34 53l3 -10q51 -43 92 -43q24 12 65 12q28 0 80.5 -5t80.5 -5q82 0 104 55q7 15 19 126q-65 31 -65 70q20 34 20 106q0 60 -13 118q-21 82 -60 93q-48 -110 -48 -141q0 -33 13 -94t13 -94q0 -43 -28 -43q-34 0 -34 36 q0 9 2 19q22 39 22 109q0 72 -24 132q-31 76 -91 76h-3l-30 -39v-5q0 -20 3 -60.5t3 -60.5q0 -15 -3 -31q-19 -8 -43 -8q-8 18 -8 65q5 13 5 29q0 25 -19 80h-8v-5q-29 -34 -31 -123q-2 -101 -17 -133q2 41 2 66q0 217 -101 217h-2q-43 -41 -43 -232zM744 514q0 30 2 51 q0 -5 -2 -51zM1140 -457l9 -12h-9v12z" />
<glyph unicode="F" horiz-adv-x="1215" d="M94 31q24 3 72 10q126 19 126 162q0 27 -3.5 83.5t-3.5 83.5q0 127 1.5 380.5t1.5 379.5q0 136 -39 136q-65 0 -65 -138q0 -25 2 -55h-9v30q0 100 -35 148q-43 56 -48 80q136 0 409 4q52 1 303 13q184 11 302 11q30 0 51 -11h5q3 -94 12 -283l-43 -3l-5 3 q-10 136 -56 171v-5q-22 -18 -22 -60q0 -22 10 -64t10 -64q0 -10 -7 -38q-27 -109 -27 -239q0 -46 3 -133q4 -92 4 -133l-36 -5v10q-14 50 -27 99q-19 62 -55 79h-5q-26 -28 -31 -103q-7 -83 -20 -111q-5 186 -58 222h-74q-8 0 -17 -3l-22 -39h-3q0 42 -75 42l-43 -48v-6 q0 -67 5 -180q7 -131 9 -179q-18 -7 -36 -8q-7 15 -9 30q19 45 19 154q0 198 -19.5 216t-57.5 18q-17 0 -32 -5q0 -74 -8 -226t-8 -228q0 -82 19 -120q9 -5 125 -29q85 -19 88 -66l-8 -9q-63 12 -178 12h-5q-44 -107 -44 -244q0 -31 9.5 -89t9.5 -88v1q-1 0 -19 -184h-12v65 q-15 34 -15 85q0 48 11.5 143.5t11.5 143.5q0 164 -87 167q-20 -17 -56 -60q-14 -24 -14 -136q0 -97 9 -130q19 -73 19 -75q0 -7 -2 -15q-19 -9 -39 -9q-9 21 -9 43q21 39 21 131q0 16 -2 45v44q0 87 -25.5 117t-95.5 30q-21 0 -50 -2zM451 744q8 -5 17 -5h64q38 96 38 294 q0 233 -77 250q-42 -18 -42 -52v-487zM585 838q0 -77 31 -99h208q14 7 63 17q40 9 58 27q30 29 30 192q0 18 -2 58v58q0 17 5 50t5 50q0 33 -38 87q-40 -44 -40 -179q0 -84 6 -212l-25 -8q-24 27 -24 82q0 36 8.5 106t8.5 105q0 123 -91 123h-3q-53 -76 -53 -218 q0 -50 5 -147t5 -143q-17 -10 -35 -14q-18 51 -18 74q0 18 9 56.5t9 57.5v167q0 58 -9.5 83.5t-47.5 75.5h-8q-34 -53 -41 -135q-2 -17 -2 -143q0 -29 -7 -85.5t-7 -85.5zM681 522v48q0 -5 14 51q27 -37 27 -80q0 -22 -27 -24zM845 84q0 17 24 194q25 -51 25 -143v-82 l-22 -19l-3 5q-24 10 -24 45z" />
<glyph unicode="G" horiz-adv-x="1637" d="M79 654q0 276 210.5 498t485.5 222q15 0 80 -4q227 -11 266 -17q185 -24 231 -88l20 -243q-15 -1 -29 -8q-44 112 -179 242q-12 -10 -34 -31v-186q-19 -8 -39 -8q-11 20 -11 42q0 16 2 31q15 31 15 77q0 99 -63 131q-30 -51 -30 -133q0 -25 2.5 -74t2.5 -74q0 -22 -2 -45 q-19 -8 -39 -8l-4 5q-1 15 -1 29q0 27 2.5 81t2.5 81q0 142 -60 152q-43 -75 -43 -254q0 -58 6 -172.5t6 -169.5q-13 -13 -29 -13q-24 0 -24 37q0 17 7 49t7 49q0 30 -4.5 92.5t-4.5 93.5q0 25 2 74.5t2 75.5q0 112 -56 130q-18 -40 -35 -80t-17 -83q0 -27 5.5 -79t5.5 -79 q0 -19 -2 -36l-26 -5q-10 20 -10 44q10 26 10 67q0 164 -48 211h-5q-46 -49 -46 -153q0 -40 7 -110q7 -75 9 -107q-14 -10 -29 -10q-29 0 -29 32q0 15 1 31q19 36 19 116q0 63 -10 114q-24 21 -51 22q-168 -227 -171 -233q-70 -122 -70 -284q0 -233 160 -433 q171 -212 400 -212q97 0 263 45q37 78 37 242q0 154 -37 227l-45 5l-25 -31q5 -39 17 -117l-26 -4q-12 21 -14 43q14 22 14 46t-8 49q-28 17 -63 17h-7q-12 21 -17 45q105 8 245 8q46 0 398 -8l-3 -45q-62 0 -123 -3q-45 -80 -45 -242q0 -31 13 -90t13 -90q0 -39 -15 -69 l-18 -9q-15 49 -47 65v-5q-55 -40 -55 -120q0 -20 10 -128l-12 -3l-10 3q-14 19 -14 45q0 15 2 30q12 24 12 57q0 15 -3 29l-40 22l-34 -9q-15 -53 -24 -73q-18 -50 -37 -65q-2 12 -5 12q-12 0 -12 -43q0 -22 9.5 -63t9.5 -63q0 -31 -16 -140h-20q0 21 -5 68q-5 43 -5 69 q0 25 5.5 77t5.5 78q0 82 -51 104q-34 -58 -34 -188q0 -32 2 -88q3 -64 3 -89l-39 -12q-10 22 -10 53q0 10 3.5 29.5t3.5 30.5q0 17 -6 48.5t-6 48.5q0 15 3 46t3 46q0 67 -59 67h-2q-55 -41 -55 -190q0 -27 3 -79t3 -80q0 -76 -21 -112q0 56 -8.5 173t-8.5 175 q0 89 -31 109h-73q-29 -51 -29 -194q0 -47 1.5 -140.5t1.5 -139.5v-17h-19l-3 12q15 54 15 151q0 320 -68 337q-12 -52 -48 -149q-1 41 -51 178q-25 8 -78 18q-23 -63 -24 -172v2l1 -178l-25 -5q0 34 3.5 106.5t3.5 110.5q0 138 -43 196q-20 27 -70 63q-55 38 -73 60 q-69 79 -109.5 192.5t-40.5 217.5zM573 -225q12 17 12 56q6 -26 17 -78l-25 -6zM852 -572q0 9 3 24q12 -20 12 -39v-50q0 -8 -7 -29h-8v94zM1372 247h5v9l22 27l-5 52l-3 5h-19v-93z" />
<glyph unicode="H" horiz-adv-x="1715" d="M99 9v25q160 38 181 55q44 36 44 181q0 34 -7.5 104t-7.5 104q0 25 6 75.5t6 76.5v379q0 29 5 85t5 85q0 115 -84 115h-15h-15q-41 0 -57 18l-5 31q74 0 217 10.5t215 10.5q33 0 99 -4v-37q-72 -31 -72 -202q0 -75 16 -169q-19 -8 -39 -8l-9 3l-5 9q22 87 22 177 q0 150 -70 162q-49 -42 -49 -163q0 -72 5 -202q5 -140 5 -200h13q38 -17 93 -17q24 0 72.5 4.5t72.5 4.5q30 0 89 -2.5t90 -2.5q56 0 159 2q111 3 158 3q0 31 5 90q16 103 16 178q0 191 -21 293q-80 24 -152 26v34q118 5 146 5h360v-13q-23 -38 -110 -38q-76 0 -76 -131 q0 -31 3 -94t3 -94q0 -130 2 -387.5t2 -385.5q0 -60 15 -101q55 -12 108 -25q71 -21 78 -62q-12 -3 -22 -3q-9 0 -99 17q-41 -60 -41 -215q0 -55 7 -142q7 -109 8 -140q-1 2 -5 2q-13 0 -25 -5q-9 18 -9 39q19 34 19 107q0 31 -9.5 91.5t-9.5 91.5q0 21 4.5 63.5t4.5 62.5 q0 43 -57 48q-29 -41 -29 -89q0 -22 6 -68t6 -68q0 -27 -5 -56l-25 -6q-19 33 -19 127q25 41 25 78q0 36 -24.5 60t-60.5 24q-14 0 -27 -2q-33 -65 -33 -155q0 -38 7 -113t7 -112q0 -45 -7 -84l-13 -9q-21 19 -21 60q0 17 -2 53v51q0 26 5.5 78t5.5 78q0 134 -103 134 q-13 0 -29 -1v39l79 26q56 105 56 278q0 34 -7 88q-8 70 -10 89q-7 84 -7 87q-14 45 -64 45h-2q-52 -70 -52 -130q0 -27 5 -77q7 -55 7 -77l-30 -3q-9 20 -9 73q19 31 19 79q0 44 -17 82q-21 47 -58 47q-24 0 -57 -3q-12 -37 -18 -138q-7 -89 -29 -137q0 174 -48 267 q-33 -36 -39 -93q-12 -92 -14 -99l-12 9q-14 31 -14 123q0 71 -100 71q-31 -44 -31 -124q0 -36 7 -105t7 -105q0 -32 -4 -56l-13 -9q-28 22 -28 48q0 17 2 34q19 38 19 131q0 156 -41 183h-48q-14 -51 -14 -179q0 -38 -3.5 -114.5t-3.5 -114.5q0 -121 29 -184 q81 -10 157 -43l4 -13q-21 0 -39 -4q-34 -65 -34 -136q0 -31 -9 -52q0 185 -87 192l-31 -48l-22 -430q0 -21 14.5 -57.5t14.5 -57.5q0 -34 -38 -34q-13 29 -13 74q0 6 8 39q7 25 7 72q0 46 -8 126q-9 87 -11 124v96q0 101 -66 101h-4q-46 -72 -46 -176q0 -26 24 -234 q-13 -8 -29 -8q-8 0 -27 22q32 141 32 223q0 99 -32 134t-116 35q-22 0 -53 -1zM560 -539q19 22 22 61q26 -32 26 -68q0 -33 -29 -33q-19 0 -19 36v4zM582 -244q14 -27 14 -67v-47q0 -38 -14 -64v178zM821 126l31 135q27 -49 27 -121q0 -19 -24 -39q-17 8 -34 25zM1184 278 q0 -145 50 -169q26 80 26 191v205q0 65 -18 155h-13q-22 -22 -22 -49q0 -10 2.5 -28t2.5 -28q0 -12 -4 -38q-24 -179 -24 -239z" />
<glyph unicode="I" horiz-adv-x="780" d="M48 14v34h13q36 17 106 25q77 9 106 19q38 89 38 304q0 92 -8 274t-8 274q0 32 2.5 98t2.5 98q0 96 -17 143q-44 21 -97 21q-7 -19 -34 -155h-17q-2 49 -5 80q-5 56 -21 71q-3 4 -37 26q-23 14 -24 34h652v-34l-57 -3q-51 -70 -51 -164v3q1 0 7 -162q-15 -10 -34 -14 q-12 18 -14 40q21 39 21 83q0 101 -63 186l-17 -3q-33 -118 -33 -360q0 -85 5 -255t5 -255q0 -29 -2.5 -88t-2.5 -88q0 -120 28 -150q17 -19 78 -19q72 0 121 -29l9 -31q-50 0 -109 -3q-50 -77 -50 -275q0 -33 15 -309l-25 -3q-14 13 -17 34q18 34 18 117q0 58 -11.5 175 t-11.5 175q0 69 -40 86h-42q-43 -81 -43 -205q0 -45 7 -135t7 -135q0 -90 -19 -157h-14l-5 9q7 24 7 49q0 22 -5 66.5t-5 66.5q0 45 9 132.5t9 132.5q0 148 -71 167q-53 -78 -53 -172q0 -36 11 -107.5t11 -107.5q0 -41 -34 -40q-15 12 -15 29q0 4 15 53q8 28 8 81 q0 227 -61 273h-138z" />
<glyph unicode="J" horiz-adv-x="817" d="M22 -370q24 35 51 61q48 0 117 -42.5t114 -44.5q39 24 109 84q67 82 67 385q0 287 -14 1200l-27 5q-12 -42 -43 -126q2 160 -131 174l-4 39q174 -3 522 -8v-34l-5 -5q-24 1 -46 1q-104 0 -104 -100l2 -536q0 -24 5 -71t5 -71v-273q0 -79 -19 -178q-32 -174 -34 -177 q-24 -102 -65 -169q-53 -67 -106 -133q-64 -80 -64 -150q0 -17 2.5 -52t2.5 -52q0 -38 -14 -65q-20 71 -20 100q0 14 6.5 41.5t6.5 40.5q0 31 -24 60h-12l-27 -39v-4q0 -20 9.5 -59.5t9.5 -59.5q0 -27 -13 -78.5t-13 -78.5q0 -39 13 -115t13 -115q0 -33 -5 -64 q-19 -10 -40 -12q-8 18 -8 38q29 51 29 154q0 85 -24 216q-3 19 -3 26q0 19 9 56.5t9 56.5q0 70 -87 70q-24 0 -63 -4q-54 29 -65 38q-22 22 -22 70zM321 -980q0 53 22 193q19 -39 19 -107v-92q0 -60 -14 -105q-27 58 -27 111zM387 1017q0 24 9 101q5 -55 17 -162l-22 -9 q-4 43 -4 70z" />
<glyph unicode="K" horiz-adv-x="1744" d="M97 34l9 9q61 5 174 36q25 47 25 158q0 120 -4 359.5t-4 359.5q0 22 4 64t4 64q0 124 -25 194q-22 9 -74 14t-78 17l-9 34l540 9l3 -29q-118 -9 -155 -40q-46 -39 -46 -151q0 3 5 -171q10 -350 10 -591q0 -35 -2 -109v-109q0 -29 6 -48q8 -32 88.5 -41.5t80.5 -53.5 q-72 -6 -91 -6q-27 0 -53 6l-48 -57q0 -36 -1 -121q-2 -78 -2 -119q0 -28 8.5 -81.5t8.5 -81.5q1 -25 -7 -79q-7 -48 -7 -76v-7l-20 -5l-5 39q8 18 8 35q0 18 -11 55.5t-11 56.5q0 34 9.5 100.5t9.5 101.5q0 128 -39 230l-5 -14l-48 -90q-9 41 -51 113l-188 -4zM336 -374 l9 34q19 -25 19 -47l-2 -4l-21 -5zM505 696q115 69 260 185q122 100 245 201q67 55 74 60q39 39 39 80q0 44 -46 73t-50 53q31 14 86 14q17 0 46 -2q34 -15 106 -15q49 0 144.5 7.5t140.5 7.5l-5 -37q-77 -11 -113 -84q-4 44 -52 44h-4l-9 -5q-14 -59 -27 -117 q-17 -72 -17 -122q0 -35 6.5 -108t6.5 -108q0 -19 -17 -84l26 -126q-16 -9 -34 -9q-14 31 -14 74q12 23 12 54q0 21 -6 60t-6 60q0 34 2.5 100.5t2.5 100.5q0 111 -36 169q-17 -9 -30 -22q-16 -62 -24 -65q-24 -12 -33 -22q-25 -87 -25 -108q0 -30 6.5 -93.5t6.5 -94.5 q0 -22 -6 -63.5t-6 -64.5q0 -20 4 -40l-27 -6l-4 9q12 31 12 65q0 19 -7.5 57t-7.5 57q0 21 7.5 59t7.5 59q0 48 -17 113l-34 25q-91 -87 -287 -244q-31 -19 -61 -37q-34 -24 -45 -53q94 -84 248 -207q211 -169 252 -203q106 -89 214 -179q114 -82 252 -116l5 -39 q-54 3 -165 8q-39 -68 -39 -189q0 -41 5 -125t5 -125q0 -34 -2 -61h-22q-5 61 -5 154v64q0 24 3.5 71t3.5 71q0 111 -58 128q-28 -48 -28 -97q0 -29 8.5 -83.5t10.5 -80.5q-22 -17 -48 -19l-13 5q-5 57 -5 46q0 29 14.5 84t14.5 84q0 78 -120 78q-15 0 -31 -5l-25 -43 q5 -163 5 -182t-10.5 -56.5t-10.5 -56.5t8.5 -54.5t8.5 -54.5q0 -22 -18 -36l-26 9q-10 18 -10 39q0 17 9.5 49.5t9.5 49.5q0 232 -26 314q-20 15 -55 15q-11 0 -23 -1v34q66 10 194 49q-44 46 -138 133q-173 149 -584 471zM1427 1143q0 -5 5 88q5 -38 14 -113h-18 q-1 14 -1 25z" />
<glyph unicode="L" horiz-adv-x="1345" d="M84 5v12q6 10 17 17q5 4 222 53q17 32 17 114q0 26 -2 76.5t-2 75.5v552q0 27 6 83t6 84q0 112 -17 201h-8v-8q-40 -50 -40 -180v-51q2 -32 2 -49q0 -92 -22 -133q-2 204 -5 249q-16 174 -79 208q-13 7 -56 17l-9 34q106 0 330.5 -4t326.5 -4l-5 -43q-114 0 -225 -14 q-22 -47 -24 -126q0 11 1 11t1 -141v-703q0 -25 -3.5 -75.5t-3.5 -76.5q0 -80 15 -123q24 6 55 6q29 0 87 -6t87 -6q17 0 48 10t48 10q18 0 56.5 -6t57.5 -6q75 0 155 63q74 57 111 130q16 34 29 67q22 35 58 37v-8q-56 -111 -61 -347h-48q-53 -89 -53 -159q0 -22 4.5 -64.5 t4.5 -64.5q0 -45 -17 -77l-21 113q21 85 21 110q0 62 -35 132h-13q-26 -39 -26 -91q0 -32 10 -87q11 -61 12 -87q-20 -17 -44 -22q-26 21 -26 58q0 27 10.5 80t10.5 81q0 61 -48 78q-15 5 -99 12q-37 -58 -37 -196q0 -2 15 -278q-21 -9 -43 -9q-8 21 -8 39q0 26 9.5 75.5 t9.5 75.5q0 266 -64 293l-34 -43q0 -22 4 -105q1 -65 1 -106q0 -118 -27 -167q-22 163 -22 244q0 18 7 55.5t7 56.5q0 43 -30 57q-17 8 -66 8q-19 -32 -26 -100.5t-22 -99.5l-22 157q-17 21 -34 31v-5q-29 -27 -34 -125v1v-137q0 -43 -9.5 -126.5t-9.5 -126.5q0 -15 15 -51 q19 -41 21 -56q-21 -12 -45 -14q-17 29 -17 74q21 35 21 119q0 61 -11 185t-11 185q0 53 -19 69.5t-70 16.5q-56 -77 -56 -120q0 -5 5 -31q3 -17 3 -119q0 -12 7 -46q12 -58 14 -111l-40 -5q-8 20 -8 54v7q27 46 27 101q0 3 -5 29q-3 17 -3 121q0 79 -58 111h-152zM244 669 q0 -7 19 123q20 -38 20 -94v-63q-10 -4 -30 -9q-9 40 -9 43zM567 -534q6 10 8 34l22 -56q-8 -5 -27 -14q0 12 -3 36zM575 -265q14 -27 14 -70v-44q0 -41 -14 -68v182zM696 -635q11 27 31 82q22 -38 22 -113q-20 -12 -44 -12q-9 18 -9 43zM1145 -469q0 17 4 42q5 -24 13 -73 h-17v31z" />
<glyph unicode="M" horiz-adv-x="1980" d="M101 17v26l109 25q78 19 94 36q29 34 29 154q0 24 -2 70.5t-2 70.5q0 23 6 84q6 77 44 795q-10 0 -55 9q-54 7 -109 15q-80 16 -89 46l22 17h234q104 0 161 -17q119 -251 348 -757q27 -74 56 -146q41 -99 75 -128q215 449 326 753q22 75 46 149q34 104 67 129h387v-36 q-92 -22 -92 -133q0 -25 5 -75.5t5 -76.5q0 -46 -13 -80q0 28 1 101q2 65 2 102q0 137 -75 137q-80 0 -80 -164v1q1 0 20 -1015q23 -30 104 -44q106 -17 123 -26l9 -25l-87 -5q-34 -81 -34 -130q0 -17 2.5 -51.5t2.5 -51.5q0 -39 -16 -68q0 16 2 62v59q0 154 -53 185v-5 q-29 -28 -29 -96q0 -22 4.5 -68t4.5 -69q0 -52 -24 -52q-10 0 -21 6q-8 16 -8 34q0 33 12 94.5t12 93.5q0 17 -4 34q-44 31 -152 31q-29 -49 -29 -157q0 -41 3.5 -122t3.5 -122q0 -38 -3 -68h-27l-4 48q14 30 14 71q0 34 -11 100.5t-11 101.5q0 13 6.5 38.5t6.5 39.5 q0 34 -27 70h-12q-24 -34 -24 -68q0 -16 5 -45t5 -44q0 -12 -5 -48q-15 -107 -15 -206v1l7 -264h-26v31q14 34 14 87q0 25 -10.5 74.5t-10.5 75.5q0 19 7 56.5t7 56.5q0 18 -5 54t-5 55q0 15 4 46.5t4 47.5q0 87 -92 87v34h14q51 10 100 22q60 14 77 60q10 27 10 88l-1 939 h-9v-8q-123 -279 -357 -840q-27 -82 -56 -162q-44 -120 -78 -138q-169 464 -330 822q-59 120 -179 360h-3q-34 -396 -34 -932q0 -128 23 -158q31 -40 156 -40q48 0 80 -13l5 -9v-25q-36 -9 -55 -75q-10 -50 -20 -99q-5 141 -65 174v-5q-25 -23 -29 -72q0 3 1 3t1 -83 q0 -33 -12 -96t-12 -96q0 -35 8.5 -104.5t8.5 -104.5q0 -33 -5 -65h-26l-5 123q0 5 -3.5 17t-3.5 18q0 19 10.5 55t10.5 55q0 269 -17 307q-25 56 -83 56h-4q-57 -78 -57 -170q0 -45 9 -120q10 -85 12 -119q-17 -12 -38 -12q-3 0 -13 3v15q0 43 13.5 126.5t13.5 126.5 q0 145 -184 145h-12zM561 -556l21 56q19 -26 22 -61q-12 -7 -34 -9zM579 -268q0 7 3 38q15 -29 15 -67v-61q0 -36 -15 -64q-3 47 -3 52v102zM1708 -427q0 4 17 79q23 -38 23 -101v-37l-26 -6q-14 28 -14 65zM1744 696q10 22 10 98q0 19 -1 41q5 -64 17 -192l-22 -3z" />
<glyph unicode="N" horiz-adv-x="1676" d="M94 1357q102 2 309 8l1025 -1121v309q0 8 -8 73q-5 40 -5 256q0 40 -8.5 120t-8.5 119q0 14 2.5 42t2.5 42q0 51 -22 78l-26 9q-56 -72 -56 -171q0 -32 12.5 -97t12.5 -97q0 -4 -13 -154l-26 -12q-22 68 -22 113q0 36 15.5 106.5t15.5 106.5q0 26 -12 65q-17 53 -19 65 q-3 25 -9 52.5t-25 39.5q-16 2 -48 22v34h452v-30h-8q-36 -17 -94 -23q-44 -3 -58 -18q-19 -26 -19 -106q0 -48 9 -132q8 -93 10 -129q12 -277 17 -944h-53q-109 107 -321 329q-75 91 -230 267q-130 131 -258 264q-150 155 -242 278l-6 -3v-249q0 -16 18 -768q24 -2 75 -12 q65 -14 169 -33v-42q-50 -4 -86 -4q-27 0 -54 4q-19 -33 -26.5 -103t-21.5 -99q0 91 -12 128q-20 74 -89 74h-3l-34 -45q0 -44 -7 -131t-7 -130q0 -36 9 -95q-6 -17 -43 -17l-5 8q19 72 19 220q0 152 -40 190h-47q-36 0 -87 -5v30q85 19 168 36q53 26 53 161q0 29 -2.5 84 t-2.5 84q0 79 4.5 237.5t4.5 237.5q0 232 -31 360q-73 53 -203 70zM425 -604q0 34 29 109q39 -53 39 -101q0 -44 -34 -44t-34 36zM454 -236q14 -27 14 -68v-44q0 -39 -14 -65v177z" />
<glyph unicode="O" horiz-adv-x="1678" d="M85 713q0 379 447 613q118 62 214 62q249 0 348 -40q249 -99 362 -237q124 -155 124 -411q0 -319 -199 -500q-63 -53 -127 -108q-47 -53 -47 -157q0 -25 8.5 -74t8.5 -74q0 -12 -17 -178h-23q-1 16 -6 68q-6 45 -6 70q0 29 9 85.5t9 85.5q0 51 -14 108q-22 18 -51 22 q-28 -82 -34 -219q-7 -174 -14 -220q-5 -31 -5 -39q0 -21 6.5 -63.5t6.5 -62.5q0 -40 -17 -74q0 171 -30 408q-5 39 -5 56q0 19 2.5 56.5t2.5 56.5q0 27 -5 53q-16 17 -35 17q-23 0 -56 -12q-39 -113 -53 -444q-17 314 -17 345q0 72 -25 94h-79l-22 -34q0 -36 -4.5 -111 t-4.5 -113q0 -20 4.5 -60t4.5 -61q0 -32 -12 -60q0 24 1.5 73.5t1.5 75.5q0 7 -1.5 21.5t-1.5 21.5q0 8 1.5 26t1.5 26q0 204 -112 217q-40 -53 -40 -157q0 -32 2 -94.5t2 -94.5q0 -29 -4 -55l-25 -3q-9 24 -9 73q0 2 4.5 23t4.5 32q0 165 -39 302h-9q-31 -48 -31 -121v1 q1 0 12 -164l-29 -8q-10 14 -13 31q17 37 17 104q0 155 -48 210q-31 20 -91 65q-109 87 -179 247q-65 154 -65 300zM285 700q0 -374 278 -587q48 -36 227 -74q26 -5 34 -5q87 0 209 39q56 19 80 28q46 20 71 42q210 185 210 548q0 181 -63 316q-61 130 -198 254 q-44 -8 -44 -73q0 -26 7 -74.5t7 -74.5q0 -30 -14 -56l-21 -5q-15 29 -17 92q-18 7 -30 21q1 18 10 71q7 46 7 74q0 53 -34 76q-21 14 -84 28q-43 -69 -43 -152q0 -27 6 -82.5t6 -83.5q0 -34 -8 -78q-14 -14 -34 -17q-23 15 -23 42q26 48 26 149q0 189 -65 222l-17 -9 q-26 -70 -26 -156v-6q-17 -8 -35 -8q-4 35 -9 109q-10 22 -31 30q-30 -52 -30 -87q0 -22 13 -95l-25 -22q8 -110 8 -149q0 -8 -8.5 -59.5t-8.5 -129.5q0 -33 4 -115l-9 -8h-9l-3 14q12 37 12 87q0 42 -15.5 125t-15.5 125q0 26 4.5 79t4.5 78q0 48 -9 88q-22 18 -48 25 q-126 -145 -179 -254q-68 -138 -68 -302zM698 -630q0 26 17 72t19 66q34 -52 34 -117q0 -12 -5 -34h-9q-10 -6 -20 -6q-19 0 -36 9v10zM889 -534q5 -9 5 -12v-19h-5v31z" />
<glyph unicode="P" horiz-adv-x="1248" d="M111 1340q39 10 111 10q32 0 96 -1.5t97 -1.5q51 0 155 11.5t155 11.5q205 0 342 -100q153 -111 153 -309q0 -111 -99.5 -234t-99.5 -179q0 -22 4 -65.5t4 -64.5h-25v138l-19 31h-17q-4 -37 -9 -77q-7 -47 -22 -71h-3q-9 44 -16 87q-15 56 -54 56q-29 0 -62 -3 q-20 -31 -22 -93q-3 -68 -15 -95l-36 -4l-4 82q9 16 9 31q0 26 -14 65q-42 26 -121 87v8l34 6q29 -17 79 -17q141 0 216 76q60 62 105 210q5 17 5 26q0 53 -40 143q-42 103 -87 104q-25 -13 -25 -47q0 -21 6.5 -60t6.5 -58q-12 -12 -27 -12q-17 0 -34 25q17 70 17 105 q0 44 -39 109q-48 -33 -48 -127q0 -44 10 -112q14 -92 16 -113q-19 -15 -43 -22q-22 17 -22 48q22 34 22 109q0 178 -56 242v-3q-53 -39 -53 -140q0 -36 8.5 -106.5t8.5 -106.5q0 -23 -4 -43q-20 -9 -44 -9l-3 4v22q0 38 6 113t6 112q0 154 -86 157l-27 -12v-75 q0 -22 22 -1121q46 -2 109 -20q55 -16 108 -33l5 -20q-24 -19 -73 -23q-18 -22 -28 -64q-13 -55 -20 -70q0 155 -101 157l-39 -62q-14 -22 -14 -275q0 -18 11 -55.5t11 -56.5q0 -12 -3 -26q-15 -8 -31 -8q-27 0 -27 39q0 24 18 65t18 65q-1 240 -27 275q-26 34 -63 34h-2 q-19 -24 -57 -74q-3 -20 -3 -49q0 -48 10 -143t10 -142q0 -26 -12.5 -74.5t-12.5 -74.5q0 -20 8 -54q12 -41 14 -55q-9 -3 -17 -3q-22 0 -22 34q17 27 17 56q0 24 -13 70t-13 70q0 41 13 121t13 121q0 164 -62 197h-73q-10 0 -22 -9v31q8 1 58 10q44 7 124 41v650 q0 67 -4 199t-4 201t-12 116q-31 17 -56 25q-43 -68 -55 -232q-3 -125 -7 -249q0 29 -7 88t-7 89q0 29 7 87t7 87q0 45 -36 103q-49 77 -56 94zM198 657v31q0 7 5 34q5 -21 14 -62q-5 -1 -10 -3h-9zM611 -253q7 17 19 53q5 -25 17 -75l-27 -3q-4 8 -9 25z" />
<glyph unicode="Q" horiz-adv-x="1632" d="M51 649q0 310 214.5 524.5t524.5 214.5q268 0 473 -207.5t205 -475.5q0 -114 -52 -261t-126 -231q-51 -46 -102 -90q-68 -63 -68 -106v-68q0 -74 8 -106q14 -55 94 -104q63 -41 133 -62q51 -15 104 -29q62 -25 62 -75h-101l-31 -39v-346l-25 -11l-14 6v30q27 46 27 152 q0 191 -61 222q-14 -34 -43 -104q-2 54 -25 101q-31 56 -81 56q-46 0 -46 -132q0 -15 2 -47.5t2 -47.5q0 -50 -4 -207q-2 -77 -2 -136q0 -39 1 -70l-4 -9l-13 9l-4 8q12 28 12 70q0 24 -8.5 72t-8.5 72v418q-12 27 -44 49q-28 17 -57 36q-36 -15 -36 -89v-29q2 -18 2 -29 q0 -20 -22 -87q-9 251 -43 304q-20 33 -87 75q-71 48 -95 77l-17 -3q-28 -46 -28 -113q0 -32 7 -95.5t7 -95.5q0 -41 -14 -70l-25 -5l-9 13q14 70 14 157q0 178 -39 251l-28 -25v-309q-17 -9 -37 -9l-5 62q8 27 8 65q0 278 -87 278q-34 0 -34 -53q0 -14 2.5 -40.5t2.5 -39.5 q0 -5 -2 -11h-6q-36 0 -36 26v5q17 33 17 70q0 36 -16.5 63.5t-49 49.5t-61.5 42q-105 84 -167 219q-58 130 -58 270zM251 708q0 -251 114 -449q137 -237 369 -237q258 0 404 203q130 181 130 449q0 232 -165 483q-35 51 -53 72q-36 36 -77 41q-22 -22 -31 -67 q-10 -60 -17 -73q0 148 -39 174v-4q-29 -25 -29 -93q0 -16 3 -55h-5q2 29 2 53q0 72 -28 95h-8q-19 -29 -21 -87l1 14q1 0 1 -106q0 -51 -12 -78q-5 213 -44 275q-12 -24 -12 -62q0 -17 4 -49.5t4 -49.5q0 -20 -8 -36h-9q-18 0 -36 5v-61q-11 -27 -11 -70q0 -26 8.5 -73.5 t8.5 -73.5q0 -15 -6 -31h-47q-4 45 -4 35q0 17 10.5 47.5t10.5 47.5q0 14 -8.5 42t-8.5 42q0 42 5 111q7 92 8 111l-39 47q-36 -34 -36 -83q0 -17 5.5 -52t5.5 -52q0 -29 -15.5 -87t-15.5 -87q0 -19 8.5 -54t8.5 -54q0 -24 -8 -79q-6 -45 -6 -73v-13l-3 -6q-10 6 -17 14 q12 19 12 43q0 20 -8.5 61t-8.5 62q0 17 2.5 49.5t2.5 49.5q0 18 -5.5 56.5t-5.5 57.5v172q-22 19 -47 23q-133 -152 -178 -244q-56 -118 -56 -296zM681 1213q0 -29 8 -44q11 79 14 79v-4q0 24 -14 39q-8 -34 -8 -70zM777 831q0 26 13 96q21 -38 21 -96q0 -24 -4.5 -71 t-4.5 -69h-17l-3 17q8 16 8 31t-6.5 46t-6.5 46zM841 1014q0 1 14 42q26 -34 26 -87q0 -29 -12 -47l-22 -4q-6 87 -6 96zM886 0v-14l12 -12q5 4 17 9l5 3q-10 7 -34 14zM906 954q0 27 19 125q26 -41 26 -101q0 -12 -6 -34l-29 -5l-8 5q-2 5 -2 10zM916 -705q0 22 9.5 63 t11.5 60l27 -148q-15 -7 -39 -9q-9 22 -9 34zM945 -31q28 -39 57 -77q34 -44 75 -52q39 59 39 151q0 16 -5 40q-14 8 -39 25q-38 -15 -75 -30q-45 -21 -52 -57zM1254 -652q0 -7 19 91q17 -35 17 -84v-46l-27 -5q-9 46 -9 44z" />
<glyph unicode="R" horiz-adv-x="1509" d="M113 22l3 9q63 13 191 39q19 36 21 89q0 -11 -1 -11t-1 105q0 10 1.5 32t1.5 32v591q0 34 4.5 102.5t4.5 102.5q0 88 -21 143q-30 19 -61 27q-44 -41 -44 -83q0 -22 6.5 -65.5t6.5 -64.5h-13q-7 -8 -17 -8q-26 0 -26 68q17 27 17 58q0 32 -31 75q-34 49 -39 72 q38 30 123 30q34 0 101.5 -4t101.5 -4q32 0 98 1.5t98 1.5q509 0 509 -346q0 -98 -102.5 -202t-102.5 -169q0 -51 33 -112q32 -50 63 -101q129 -223 155 -253q99 -121 254 -138v-39h-22q-43 -108 -43 -135q0 -22 13 -63t13 -63q0 -34 -43 -34h-5q-22 30 -22 59q0 21 11 57.5 t11 57.5q0 48 -39 121h-113q-39 -73 -39 -208q0 -48 7 -132q5 -92 7 -129l-40 -5v8q-5 7 -5 14q0 15 8.5 46t8.5 46q0 14 -6 43t-6 42q0 36 6 107t6 107q0 20 -34 56l-53 5l-87 160q-5 -6 -27 -52q-17 -35 -38 -43q-11 25 -11 85q0 19 1.5 54t1.5 54q0 27 -5 51 q-14 63 -92 184q-72 109 -128 167q-57 4 -171 9q0 -49 -2 -150v-149q0 -146 11 -261q15 -15 47 -39q5 -3 87 -17q57 -10 62 -48h-53q-38 -49 -43 -63q-13 -27 -13 -77q0 -29 6.5 -84.5t6.5 -84.5q0 -60 -22 -104q-2 21 -14 65t-12 68q0 29 7 87t7 87q0 82 -53 106 q-44 -77 -44 -213q0 -43 5 -126.5t5 -126.5q0 -97 -19 -157q-20 26 -20 92q0 23 4 65.5t4 64.5q0 32 -8.5 98t-8.5 98q0 21 2 61t2 60q0 84 -83 84h-4q-48 -73 -48 -281q0 -45 5 -123l-19 -9v4q-12 22 -12 66q0 46 4 208q-14 34 -17 82q-2 33 -16 41q-19 12 -94 12 q-12 -10 -25 -10q-24 0 -34 27zM512 725h9q39 0 227 19l51 68v-3l30 -26q52 12 84 87q26 64 26 125q0 60 -24 123q-29 82 -77 87q-39 -43 -39 -101q0 -22 6.5 -67t6.5 -68q0 -37 -17 -70q-25 79 -25 101q0 29 10 87t10 87q0 57 -29 84q-22 19 -83 34q-29 -44 -38 -130 q-2 -70 -5 -140h-22v69q0 122 -14 157q-22 52 -87 52v-575zM577 -561q0 23 10 65t12 61l22 -126q-5 -19 -25 -21l-19 12v9z" />
<glyph unicode="S" horiz-adv-x="1029" d="M89 140q0 14 27 259l26 5l8 -5q16 -140 118 -245q106 -111 244 -111q123 0 202.5 80t79.5 203q0 159 -130 188q-39 -48 -39 -162q0 -41 5 -110q5 -82 7 -107q-17 -7 -35 -9q-8 33 -8 70q0 34 4 101.5t4 98.5h-8q-12 -15 -34 -14q-14 22 -14 45q0 17 7 49.5t7 49.5 q0 49 -45 75l-42 -40q-21 122 -135 144q-29 -53 -29 -231q0 -27 2 -122h-17v52q8 21 8 43q0 5 -17 96q-3 20 -9 114q-1 72 -22 113q-138 126 -138 278q0 145 126 242q116 89 265 89q29 0 92 -9q128 -17 164 -35q75 -38 75 -139q0 -29 -14 -153h-25q-16 118 -135 230 q-48 -19 -48 -162q0 -12 2 -36t2 -36q0 -8 -2 -25v-24q0 -145 24 -195q18 -39 66 -68q41 -26 82 -49q65 -47 104.5 -125.5t39.5 -156.5q0 -94 -55 -189q-34 -59 -104 -139q-55 -63 -55 -77q0 -27 4.5 -82.5t4.5 -82.5q0 -26 -7 -76t-7 -76q0 -36 4.5 -108.5t4.5 -108.5 q0 -34 -4 -75h-8q-2 22 -9 48q9 22 9 48q0 19 -8.5 54.5t-8.5 54.5q0 41 6 121t6 121q0 104 -12 162q-31 23 -67 23q-68 -52 -68 -132q0 -24 6 -71.5t6 -71.5q0 -51 -21 -91q-27 105 -27 135q0 22 7 67.5t7 67.5q0 67 -62 73q-22 -32 -31 -52q-12 -28 -12 -313 q0 -20 4.5 -60t4.5 -61q0 -63 -22 -109q-14 89 -14 118q0 17 5 49.5t5 49.5q0 247 -35 370h-9v-5q-34 -63 -34 -265q0 -17 8.5 -47.5t8.5 -47.5q0 -34 -39 -31q-9 20 -9 48q14 29 14 87q0 251 -53 292q-24 18 -77 28.5t-70 22.5q-32 20 -32 75zM229 1104q0 -73 71 -133 q67 -44 133 -89l62 -44q39 -26 68 -26t45 86q10 59 10 112q0 273 -58 308h-84q-34 -50 -34 -96q0 -24 11 -71.5t11 -71.5q0 -21 -5 -45q-17 -12 -34 -12q-36 0 -36 57q0 22 15.5 64.5t15.5 64.5q0 77 -62 84q-76 -67 -88 -80q-41 -48 -41 -108zM459 387q0 48 14 122 q20 -38 20 -99v-79l-8 -5l-12 5q-14 17 -14 56zM529 -539q0 18 9 47q12 36 13 48q24 -44 26 -121q-21 -12 -36 -14q-12 18 -12 40zM589 514l10 -87h3v65q-5 6 -13 22z" />
<glyph unicode="T" horiz-adv-x="1411" d="M56 1026l96 365l31 5q30 -55 54 -73q33 -28 86 -28q15 0 45 4.5t45 4.5q155 0 416 -4q308 -5 415 -5q35 101 89 101h2v-391l-29 -13q-26 71 -52 143q-37 84 -111 87q-17 -32 -22 -97q-3 -70 -17 -99q0 107 -48 196h-12q-20 -36 -22 -96q-5 -97 -5 -100q-13 -11 -29 -12 l-13 8l-6 79q9 20 9 48q0 30 -3 56q-38 26 -127 26h-39q0 -94 5 -362q3 -226 3 -360q0 -45 -4 -135.5t-4 -134.5q0 -75 14 -138q59 -28 225 -62v-39l-169 5q-26 -15 -26 -75q0 -17 2 -52t2 -52q0 -29 -13 -87t-13 -87q0 -36 8.5 -104.5t8.5 -100.5q-12 -3 -27 -3h-4v109 q0 5 -1.5 12.5t-1.5 12.5q0 14 4.5 41.5t4.5 40.5q0 23 -9.5 68t-9.5 67q0 17 2.5 52t2.5 52q0 91 -48 106q-24 -43 -27 -114q0 6 1 6t1 -127q0 -106 -26 -157q-24 187 -24 302q0 37 2 68q-19 26 -70 26q-57 0 -75 -57q-12 -51 -26 -100q0 66 -22 102q-25 41 -83 41h-8 l-11 10l-6 12l9 22q92 21 186 40q61 27 61 174q0 78 -12 978h-22l-39 -53q10 -33 22 -99l-27 -17l-9 8q-20 2 -20 34v5q12 23 12 48q0 31 -21.5 52.5t-52.5 21.5q-37 -48 -37 -94q0 3 3 -84l-27 -5l-9 5q0 77 -3 99q-12 63 -53 73q-36 -59 -43 -152q0 -5 -0.5 -45t0.5 -115 l-27 -8q-13 13 -17 34q17 32 17 78q0 62 -20 140l-28 17q-107 -162 -169 -174zM500 -352q0 21 7.5 57.5t9.5 50.5q22 -43 22 -126q0 -14 -3 -29l-22 -5q-14 39 -14 52zM688 -596l22 62q15 -27 17 -75q-12 -4 -36 -9zM1087 778q0 29 7 80q9 58 10 81q19 -38 19 -122 q0 -80 -14 -126q-22 24 -22 87z" />
<glyph unicode="U" horiz-adv-x="1543" d="M67 1348l17 9q182 5 547 13l9 -47q-51 -14 -51 -75q0 -17 1.5 -50.5t1.5 -48.5l-39 -11q-9 21 -9 50q9 19 9 43q0 64 -51 87q-60 -31 -57 -74q-22 -49 -22 -162q0 -44 4.5 -134.5t4.5 -135.5q0 -46 -2.5 -136.5t-2.5 -136.5q0 -186 34 -264q46 -104 196 -174 q67 -31 149 -31q15 0 44 3q251 31 321 135q83 125 83 480q0 61 -22 273q-3 78 -7 157q-5 95 -29 152q-24 -12 -25 -22l-26 -147h-8q-14 27 -14 60q-7 15 -19 97q-5 41 -71 77l-11 30h435v-39q-44 -2 -146 -31q-28 -49 -28 -138q0 -116 4.5 -346.5t4.5 -344.5q0 -56 -19 -138 q-20 -91 -46 -132q-36 -42 -70 -83q-43 -52 -43 -99q0 -16 11.5 -44t11.5 -43q0 -21 -7 -59.5t-7 -58.5q0 -33 3 -85q6 -65 6 -84l-12 -10l-14 5v225q-9 21 -9 44t7 64.5t7 63.5q0 6 -2 11l-34 27l-53 -22q-10 -22 -29 -65q17 -80 17 -96q0 -32 -8.5 -95t-8.5 -96 q0 -15 4.5 -46t4.5 -46q0 -60 -17 -96q-2 18 -12 57t-10 61q0 16 6 44t6 43q0 92 -4 273l-34 36q-99 -19 -99 -159v-40q2 -26 2 -40q0 -77 -21 -114q-27 101 -27 131q0 23 7 65.5t7 64.5q0 65 -57 75q-36 -58 -36 -118q0 -18 3 -54t3 -55q0 -29 -9 -87t-9 -87 q0 -19 4.5 -54.5t4.5 -54.5q0 -62 -17 -96q-17 101 -17 115q0 20 4 62.5t4 63.5q0 5 -8 82q0 95 -27 283h-4v-5q-25 -34 -25 -152q0 -104 3 -230q-19 -9 -39 -9q-9 21 -9 48q14 29 14 87q0 70 -10 159q-16 124 -43 140q-14 6 -39 13q-14 -12 -40 -34q6 -82 17 -244 q-17 -12 -37 -14q-10 26 -10 84v43q18 36 18 87q0 102 -47 150q-79 80 -96 111q-44 85 -44 300q0 104 8.5 311.5t8.5 311.5q0 118 -29 137q-16 10 -140 10q-10 0 -34 14zM792 -539q0 18 12.5 50t14.5 45q24 -42 26 -117q-19 -11 -39 -12l-9 8v9q-5 8 -5 17zM971 -604 q14 26 14 82v8q3 -39 12 -116h-12q-12 12 -14 26z" />
<glyph unicode="V" horiz-adv-x="1591" d="M43 1360l174 5q1 0 33.5 -3t136.5 -3q50 0 79 5q39 6 43 6l165 -5l9 -22l-9 -8q-31 -4 -92 -9l-39 -53q-4 -39 -9 -116l-3 121q-34 31 -67 34q-25 -23 -25 -56q0 -39 26.5 -99t56.5 -75l12 31h9q1 -21 18.5 -64.5t17.5 -68.5q0 -23 -6 -72q159 -358 287 -683v11 q34 80 101 238q19 48 109 274q82 206 82 401q0 97 -24 133q-31 41 -128 58l-5 8v12q340 13 340 14h-4q126 0 200 -14v-20l-5 -14q-69 -8 -91 -60q-13 -32 -13 -111q0 -56 8 -141h-17v99q-10 25 -10 77t-7 75l-39 18q-17 -46 -80 -170q-53 -106 -72 -174q-5 -21 -50 -270 l-20 -3q-17 8 -36 8q-72 -155 -194 -474q-14 -55 -28 -111q-19 -74 -48 -98l-47 -5q-5 31 -60 149q-51 130 -157 387q-70 159 -208 478q-31 77 -101 225q-12 21 -39 58q-14 12 -96 28q-72 12 -78 49zM1166 1143q0 -11 3 -25l26 -5q1 10 18 63q12 37 12 63q0 24 -8 39l-12 5 q-39 -66 -39 -140z" />
<glyph unicode="W" horiz-adv-x="2068" d="M84 1348h8q26 12 65 12q27 0 80 -6t80 -6q35 0 62 12q41 -3 121 -8v-43q-75 -3 -75 -133q0 -48 67 -207q73 -169 208 -508l44 -140q29 -82 65 -130v9q46 53 127 221t95 239q-75 152 -208 461l-28 80q-20 47 -47 69v-9q-35 -15 -35 -73q0 -36 4 -67h-17v22q13 28 13 57 q0 46 -47 78q-60 41 -70 62l5 12h472l6 -29l-6 -11q-134 -1 -134 -42q0 -22 39 -101q19 -36 63 -165q36 -105 77 -161v5q44 57 85 176t41 189q0 55 -34 82q-39 31 -44 53q41 16 128 16q199 0 251 -16l3 -22l-3 -14l-53 -12q-40 -83 -40 -230q0 -51 7 -152t7 -148l-22 -5 q-14 70 -14 95q0 48 11 142t11 141q0 115 -56 130q-61 -61 -107 -182q-70 -181 -81 -200q-51 -99 -51 -118q0 -14 239 -560v4q101 232 200 462q117 289 117 482q0 87 -32 126q-37 48 -41 70q67 8 196 8q94 0 139 -13l-9 -26q-60 -41 -84 -183h-3q0 82 -39 88 q-96 -219 -96 -313q0 -20 6 -61t6 -62q0 -66 -39 -73l-12 3l-31 67h-5q-61 -152 -121 -306q-73 -182 -109 -309q-16 -56 -31 -112q-27 -70 -77 -70q-31 131 -118 300q-75 144 -151 287q-29 -85 -108 -224q-87 -151 -114 -218q-36 -89 -40 -94q-30 -51 -80 -51h-3l-268 648 h-2q-36 0 -56 31q-10 77 -26 178q-10 54 -64.5 199t-82.5 185q-20 29 -39 44q-5 5 -53 29q-32 17 -42 39z" />
<glyph unicode="X" horiz-adv-x="1746" d="M108 14l5 29q53 8 107 15q65 12 101 34q68 43 155 152q68 89 137 178q49 52 97 105q56 64 72 122q-34 46 -104 138q-31 -9 -31 -87q0 -57 -31 -57q-25 0 -25 79q13 27 13 65q0 104 -95 242q-84 108 -166 215q-14 -15 -24 -56t-24 -53h-5q-20 0 -32 66q-5 43 -11 86 l-13 -4q-31 -66 -31 -182q0 -34 9 -154l-12 -12q-23 9 -23 51q0 9 3 26t3 26q0 196 -19 232q-24 25 -51 90q133 5 165 5q94 0 160.5 -8.5t78.5 -8.5q58 0 256 9l5 -31q-20 0 -95 -17q-45 -77 -45 -104q0 -85 99 -227q79 -102 157 -205q79 77 108 150q20 46 46 178 q2 -41 56 -45q39 96 39 166q0 77 -56 82l-14 -9q-15 -24 -17.5 -76.5t-12.5 -75.5v113q0 10 -19.5 36t-19.5 43q0 13 5 25h530l4 -25q-70 -11 -70 -96v3q1 0 8 -121q-13 -10 -29 -12l-13 17v144q-16 12 -34 17q-4 -16 -33 -121q-20 -74 -20 -123q0 -34 13.5 -99t13.5 -97 q0 -4 -2 -7q-20 -9 -42 -9q-17 27 -17 74q29 47 29 151q0 128 -60 144q-34 -39 -101 -118q-10 -72 -31 -217v12q0 43 -12 89q-17 10 -39 12q-42 -89 -49 -161q-4 -28 -4 -124v-41q-22 0 -42 -3v-36q73 -62 177 -226q109 -175 171 -235q112 -109 256 -109l3 -43h-73 q-34 -27 -39 -97q0 5 0 -111q0 -466 -26 -470l-5 12q17 53 17 132q0 49 -10.5 147.5t-10.5 147.5q0 22 6 67.5t6 67.5q0 94 -29 118h-75q-39 -62 -39 -229q0 -149 17 -263q-15 -12 -34 -17q-9 19 -9 48q23 39 23 107q0 46 -8.5 136.5t-8.5 136.5q0 67 -28 84h-68 q-31 -43 -31 -113q0 -30 4 -83q5 -58 5 -82q-17 -10 -36 -14q-12 28 -12 75v-1l3 88q9 19 9 52q0 75 -75 75h-2q-36 -75 -36 -205q0 -46 4.5 -135t4.5 -131l-31 -4l-3 57q8 27 8 104q0 216 -8 235q-5 12 -40 51q-25 29 -25 57q61 10 182 27q16 19 18 43q-120 186 -340 478 h-9q-90 -111 -182 -224q-120 -147 -127 -241q35 -41 113 -56q104 -21 126 -31l6 -39h-62q-48 -79 -48 -312q0 -21 2.5 -59.5t2.5 -58.5q0 -27 -8 -48q0 65 -10 203q-9 133 -9 204t-29 88h-92q-31 -49 -31 -152q0 -32 2.5 -96t2.5 -97q0 -71 -17 -107q0 29 2 88.5t2 90.5 q0 273 -91 278q-53 -82 -53 -188q0 -29 8.5 -87t8.5 -87t-8 -47q-4 -4 -9 -4q-25 0 -25 126q0 24 1.5 73.5t1.5 73.5q0 108 -39 132q-10 -17 -29 -53v-253l-22 -3q-4 29 -9 87q9 20 9 53q0 78 -14 133q-43 36 -73 36h-5zM416 -582l36 87q33 -46 34 -118l-8 -17q-7 -1 -14 -1 q-48 0 -48 49zM930 736q0 -24 27.5 -53t51.5 -34v3q30 32 30 96q0 30 -13 64q-21 16 -36 19q-4 -5 -36 -48q-24 -32 -24 -47zM1138 792q17 20 17 60l17 -79l-20 -3q-5 7 -14 22z" />
<glyph unicode="Y" horiz-adv-x="1579" d="M68 1360q248 -3 393 -3q20 0 62 4t62 4q35 0 62 -13l5 -26q-61 -34 -61 -121q0 -132 92 -287q82 -128 164 -258q23 26 104 149q117 177 201 292q55 73 61 83q28 50 29 99q-22 11 -92 28q-63 15 -85 32l-5 27h457l-5 -44q-90 0 -169 -82q-5 -5 -118 -153 q-88 -108 -177 -217q-103 -128 -149 -234q-25 -60 -25 -210q0 -227 29 -348q75 -31 227 -39l-5 -38q-21 -3 -41 -3q-22 0 -46 3q-26 -32 -26 -70q0 -17 7 -47.5t7 -47.5q0 -24 -11 -70t-11 -70q0 -19 6.5 -54t6.5 -54q0 -22 -9.5 -63t-9.5 -63q0 -24 7 -67.5t7 -64.5l-22 -3 l-4 34q12 26 12 70q0 31 -10 91.5t-10 91.5q0 24 4 71.5t4 71.5q0 12 -2.5 35t-2.5 35q0 19 7 54t7 54q0 70 -92 70q-51 -96 -51 -152q0 -23 6 -68t6 -67q0 -39 -17 -70q-26 95 -26 123q0 24 7 73.5t7 72.5q0 88 -79 88q-3 0 -14 -4l-30 -87q5 -157 5 -174q0 -27 -8.5 -81 t-8.5 -81q0 -21 4 -61t4 -60q0 -45 -13 -79q-17 22 -17 70q0 21 6.5 61t6.5 60q0 53 -11 157t-11 157q0 115 -61 118q-35 -58 -35 -189q0 -5 9 -224q-14 -8 -31 -10l-17 22q17 68 17 188q0 208 -73 213v34l3 4q87 8 123 17q82 17 108 49q18 24 18 331q0 69 -10 103 q-27 90 -160 271q-191 259 -196 268q-29 51 -57 102q-41 64 -82 77q-34 -53 -34 -140q0 -25 2 -75.5t2 -76.5q0 -10 -14 -320h-17l-4 17q9 18 9 39q0 22 -11 63t-11 63q0 43 6.5 125.5t6.5 125.5q0 205 -87 244zM456 1256q24 -34 70 -104q17 9 34 36v12q0 87 -57 112 q-17 -10 -32 -20t-15 -36zM829 -531q16 24 18 65q3 -31 13 -90q-17 -9 -25 -9h-6v34z" />
<glyph unicode="Z" horiz-adv-x="1446" d="M106 34q70 56 141 161q60 88 120 179q12 17 213 278q96 123 118 162q51 92 51 191q0 26 -8.5 78t-8.5 78q0 15 4.5 43t4.5 44q0 12 -4 25q-29 26 -58 27l-8 -5q-19 -32 -19 -99q0 -18 2 -61q-17 -9 -31 -9q-24 0 -24 64q0 13 1.5 38.5t1.5 36.5q-17 13 -35 22v-4 q-57 -63 -57 -179q0 -48 11 -143.5t11 -143.5q0 -73 -17 -121q-27 16 -27 62q0 1 5 102q-13 27 -13 75q0 36 6.5 107t6.5 107q0 99 -49 126q-16 8 -29 8q-11 0 -22 -5q-24 -36 -60 -112q2 59 -45 70q-37 -53 -76 -106q-55 -74 -89 -82v14q34 105 68 211q53 162 94 171v-14 q-5 -10 -5 -22q0 -20 8 -43q53 -25 161 -25q34 0 99.5 6.5t100.5 6.5q27 0 80.5 -2.5t81.5 -2.5q22 0 104 9q129 13 222 13q95 0 174 -13v-14q-43 -61 -84 -112q-94 -122 -111 -156q-33 -65 -33 -155q0 -16 1 -33q-19 -15 -43 -17q-27 31 -53 38q-15 -21 -22 -61t-17 -50 q-15 -15 -47 -15q-10 0 -21 1q-16 -39 -55 -85q-34 -38 -68 -77q-82 -116 -251 -343q-43 -49 -87 -99q-50 -60 -70 -109h657q14 7 128 38q72 18 111 75q8 12 46 119q29 87 58 97q-3 -128 -9 -385h-117q-12 -16 -48 -67q-5 24 -39 62q-43 -19 -43 -101q0 -33 7 -89 q8 -63 10 -89q-19 -8 -39 -8l-17 22q20 61 20 155q0 96 -34 115h-101q-59 -93 -59 -447v-24h-14q-9 27 -9 44q0 20 4.5 58.5t4.5 59.5q0 -2 -3.5 68t-6.5 138q-10 98 -55 103q-30 -50 -30 -155v-7v-9q0 -103 -23 -147q-1 115 -7 171q-10 130 -35 150h-62q-31 -80 -31 -208 q0 -38 4.5 -111t4.5 -111q0 -77 -12 -140h-17q-14 131 -14 126q0 45 8.5 135.5t8.5 134.5q0 172 -78 174l-26 -34q9 -77 9 -99q0 -51 -11 -155t-11 -156q0 -27 13.5 -80t13.5 -80q0 -17 -5 -34l-39 -5q-9 20 -9 61q22 46 22 147q0 44 -11 130.5t-11 128.5q0 17 4.5 53 t4.5 53q0 50 -36 63q-16 5 -77 7q-36 -55 -36 -147q0 -51 12 -135q14 -99 15 -134q-18 -9 -44 -9q-17 38 -17 68q0 40 12.5 118.5t12.5 117.5q0 118 -107 118q-27 0 -87 -9zM305 1014v20q23 33 28 75q29 -47 29 -126q-17 -8 -34 -8q-23 0 -23 39zM741 -526q0 122 17 178 q1 -103 13 -309l-30 -9v140zM763 1261l3 -322l22 -9v5q48 40 91.5 126t43.5 147q0 96 -116 96h-5zM963 1248q0 -14 5 -31q10 -4 29 -9q3 26 13 79l-22 22q-25 -36 -25 -61zM1150 -444q0 58 12 170t14 165q22 -58 22 -249v-75q0 -38 -8 -62l-31 -5q-9 26 -9 56z" />
<glyph unicode="[" horiz-adv-x="625" d="M239 -200v1675h369v-40h-96q-32 -41 -38 -65q-1 -8 -1 -75q0 -30 -9 -47v20q0 154 -60 162l-30 -12q-14 -111 -14 -252q0 -101 2.5 -302.5t2.5 -302.5q0 -30 -1.5 -93.5t-1.5 -93.5q0 -58 3 -91q9 -82 9 -78q0 -39 -8.5 -117.5t-8.5 -118.5q0 -63 20 -112q89 -14 231 -14 v-43h-122q-34 -49 -34 -135q0 -37 8.5 -113t8.5 -113q0 -40 -5 -69h-39v9q-9 24 -9 48q0 44 15.5 130t15.5 131q0 112 -73 112q-17 -30 -19 -97.5t-17 -98.5q-5 55 -10 109q-11 77 -40 86q-17 3 -49 1zM321 -556q0 22 7 56q8 43 10 56q22 -34 22 -90q0 -22 -8.5 -65.5 t-8.5 -66.5q0 -18 9 -143h-14q-10 7 -12 17q12 24 12 70q0 27 -8.5 82.5t-8.5 83.5zM461 1087v27q0 2 3 24l9 -51h-12z" />
<glyph unicode="\" horiz-adv-x="843" d="M14 1466h95l717 -1679h-90z" />
<glyph unicode="]" horiz-adv-x="778" d="M188 1469h8q34 14 127 14q41 0 119.5 -4t115.5 -4q5 -108 5 -263q0 -57 -2 -171v-171q0 -198 4 -535q5 -391 5 -535h-96l-20 -36v-298h-14q0 2 -7 31q-5 22 -5 68q0 19 2 54.5t2 54.5q0 90 -36 126q-46 -22 -46 -288q0 -39 1.5 -117t1.5 -117q0 -37 -5 -101h-12 q-5 69 -5 354q0 172 -26 264l-109 5v40q70 -6 92 -6q105 0 144 23q17 34 17 100q0 36 -7 108.5t-7 108.5q0 39 9.5 115t9.5 115q0 94 -10 169q-9 64 -9 70q0 21 2.5 61t2.5 61q0 66 -6.5 200t-6.5 201q0 27 6.5 80t6.5 80q0 51 -17 92h-1q-48 0 -74 -36l22 -208 q-15 -8 -25 -8q-26 0 -26 51q0 22 13 63t13 63q0 94 -152 87q0 21 -5 39z" />
<glyph unicode="^" horiz-adv-x="1145" d="M113 843l455 545q38 -24 75 -76q29 -42 60 -87q60 -80 161 -194q157 -176 167 -188q-29 -29 -67 -60q-87 87 -203 232q-188 234 -193 241v-3l-385 -470h-14z" />
<glyph unicode="_" horiz-adv-x="1625" d="M299 0v51h1024v-51h-1024z" />
<glyph unicode="`" horiz-adv-x="452" d="M68 1710v39l28 31h23q38 0 67 -14q41 -18 125 -136q78 -109 97 -162h-17q-36 42 -92 51q-29 -53 -29 -215q0 -73 12 -341l-26 -9q-10 26 -10 72v27q1 20 1 27q18 38 18 121q0 318 -43 383q-15 22 -72 63q-68 51 -82 63z" />
<glyph unicode="a" horiz-adv-x="905" d="M49 582q18 22 65 111q38 70 79 99q27 20 87.5 41.5t86.5 36.5q152 0 215 -49q75 -56 75 -203q0 -53 -8.5 -159t-8.5 -159q0 -141 48 -191h48q30 33 35 36q21 19 43 24l3 -34q-116 -135 -116 -178q0 -27 4.5 -80.5t4.5 -81.5q0 -3 -14 -60q-8 -34 -8 -109q0 -54 13 -261 q-17 -8 -35 -8q-9 17 -9 34q0 29 11 87t11 87q0 37 -11 113t-11 114v186q-29 44 -121 70q-7 -21 -22 -62l-17 -8q0 8 1 39v41q0 46 -15 63q-111 -58 -130 -121q9 -92 9 -121q0 -24 -5 -123q-2 -38 -2 -68t2 -53l-21 -5q-5 114 -5 370q-19 17 -39 17q-22 0 -48 -39 q3 -111 9 -335l-17 -8q-28 1 -26 39q12 31 12 125q0 163 -9 179q-13 25 -41 31q-41 8 -49 13q-14 9 -48 57v17q0 95 65 182q58 77 148 126q29 12 79 48q26 33 26 121q0 202 -65 222q-74 -49 -103 -99q-25 -41 -51 -135q-44 -22 -116 -22q-9 19 -9 43zM213 157q19 -26 67 -65 h60v9q39 61 39 191q0 31 -9 65l-25 13q-77 -71 -92 -92q-40 -53 -40 -121zM396 225l14 -68l22 -22h8q24 24 49 48t25 61q13 29 13 106q0 85 -17 107q-59 -24 -73 -34q-33 -24 -33 -71q0 -16 5.5 -46t5.5 -45q0 -3 -19 -36zM396 492q20 -18 48 -18l68 38q24 17 24 75 q0 51 -26 116q-29 72 -70 89l-36 -48z" />
<glyph unicode="b" horiz-adv-x="1068" d="M80 1340l12 17q103 54 261 61q5 -612 5 -648h12q43 27 142 49q89 21 150 21q167 0 277.5 -107.5t110.5 -275.5q0 -107 -43 -204q-46 -106 -128 -161q-31 -15 -63 -32q-41 -21 -54 -44t-13 -50v2q1 0 9 -108q-14 0 -26 -3q-8 20 -8 46v5q8 19 8 39q0 31 -22 67 q-44 -23 -44 -205q0 -16 10 -208h-27v34q8 22 8 90q0 174 -20 266q-23 14 -110 23q-25 -41 -25 -132q0 -19 17 -225q-21 -9 -45 -9q-8 14 -8 29q0 14 8.5 39.5t8.5 39.5q0 22 -4.5 65.5t-4.5 65.5q0 12 3 35t3 35q0 86 -74 96q-48 -72 -48 -154q0 -20 4.5 -62t4.5 -62 q0 -63 -17 -92q-22 70 -22 100q0 21 8.5 61t8.5 60q0 50 -22 130l-23 19h-8q-16 -53 -65 -53q-3 65 -3 172q0 118 4 355.5t4 354.5q0 203 -14 366q-54 29 -138 92zM323 -565q0 21 12.5 56t14.5 48q25 -44 25 -140q-17 -8 -44 -8q-8 25 -8 44zM353 357q0 -118 22 -168 q31 -70 127 -107q42 -17 90 -17q128 0 220 107q89 103 89 232q0 91 -32 157q-19 40 -89 135h-14q-22 -30 -22 -75q0 -22 4.5 -68t4.5 -68q0 -26 -12 -38q-22 14 -22 92q0 7 5 149l-40 65l-27 8q-43 -48 -43 -111q0 -15 2 -46.5t2 -47.5q0 -42 -12 -70q0 255 -53 279 q-39 -58 -39 -96q0 -15 11 -45t11 -45q0 -31 -39 -31q-12 20 -14 43q19 29 19 69q0 89 -67 93q-36 -19 -39 -21q-21 -15 -29 -32q-14 -307 -14 -343zM589 261l17 51l25 -76q-17 -9 -34 -11z" />
<glyph unicode="c" horiz-adv-x="879" d="M58 413q0 108 43 208q47 109 131 162q34 21 99 38q73 19 101 31h56q210 0 292 -96v-51q-26 -33 -39 -48q-65 0 -145.5 65t-110.5 65q-53 0 -63 -63q-4 -52 -7 -103l-5 5l-4 118l-34 26q-78 -41 -119 -145q-35 -87 -35 -190q0 -135 69 -237q78 -116 206 -116 q121 0 301 118v-65q-55 -38 -68.5 -64.5t-13.5 -89.5q-2 -46 -23 -85q0 121 -49 126q-73 -31 -73 -101q0 -22 6.5 -67t6.5 -67q0 -36 -6.5 -107t-6.5 -107v-251l-26 -5q-14 29 -14 74q0 27 4.5 82.5t4.5 82.5q0 41 -6 122t-6 122q0 19 4 56.5t4 56.5q0 73 -69 73l-48 -65 q-4 67 -62 74q-30 -44 -30 -99q0 -29 5 -79q7 -58 8 -78q-19 -9 -39 -9q-9 23 -9 62q0 15 4.5 47.5t4.5 47.5q0 82 -61 161q-59 71 -117 141q-61 96 -61 224zM398 -399q0 46 17 307q22 -62 22 -205v-203l-27 -14l-12 9v106zM671 -236l18 53q21 -30 21 -88v-38l-34 -3z" />
<glyph unicode="d" horiz-adv-x="1092" d="M39 430q0 179 140 295q133 110 316 110q119 0 235 -57q9 67 9 214q0 211 -26 281q-44 17 -88 36q-57 27 -60 61q49 2 146.5 21.5t148.5 21.5q0 -73 4 -278q1 -174 1 -278v-396q0 -41 -4 -122t-4 -122q0 -77 17 -113q22 -15 61 -20q33 -4 65 -5v-31l-5 -9l-135 -25 q-29 -57 -29 -135q0 -31 4 -82q5 -65 5 -80l-31 -12l-9 59q21 43 21 115q0 121 -76 121h-9v96h-14l-14 -9q-1 -7 -24 -70q-15 -46 -15 -70t2.5 -69t2.5 -69q0 -50 -4 -146t-4 -146q0 -17 17 -96l-23 -12l-25 9q-9 12 -9 26q0 22 8.5 63t8.5 63v360q0 104 -47 118 q-40 -16 -81 -29q-32 -17 -32 -75q0 -19 1.5 -52.5t1.5 -48.5l-30 -9l-12 36q22 36 22 91q-30 48 -66 48h-1q-51 -41 -51 -70q0 -14 6 -41.5t6 -40.5q0 -31 -4 -90t-4 -90q0 -15 5 -41q7 -32 8 -40q-15 -9 -34 -9l-19 17q31 143 31 253q0 177 -78 177q-23 0 -40 -29v-7 q0 -53 7 -150q7 -102 7 -148l-14 -9q-29 10 -29 62q0 25 4.5 75.5t4.5 75.5q0 96 -83 263.5t-83 262.5zM196 461q0 -106 45 -198q47 -104 133 -150q48 -26 143 -26q75 0 133 22q80 29 80 91q0 27 3 80t3 80v159q0 177 -76 198q-23 -35 -23 -131q0 -18 1 -38l-20 -5l-5 92 q8 15 8 31q0 34 -18.5 69t-49.5 43q-41 -80 -41 -213q0 -33 2 -85q3 -64 3 -84l-34 -9l-17 21q17 77 17 162q0 113 -27 208l-29 9q-14 -21 -29.5 -42t-15.5 -45q0 -16 4.5 -46.5t4.5 -44.5h-17l-9 48q9 14 9 31q0 49 -39 60q-33 -28 -88 -91q-51 -75 -51 -196z" />
<glyph unicode="e" horiz-adv-x="927" d="M75 391q0 188 109 319q116 142 299 142q133 0 226 -89q91 -87 91 -215v-5h-126q-25 -38 -25 -57q0 -15 12.5 -40.5t12.5 -41.5q0 -23 -34 -25l-17 20q17 57 17 79q0 65 -101 65q-24 -40 -27 -110q0 7 1 7t1 -123q0 -83 -22 -129l-12 182q-31 2 -31 34q0 12 8.5 35.5 t8.5 34.5q0 65 -66 65h-4q-21 -41 -21 -126q0 -24 2 -68.5t2 -66.5l-26 -3l-8 68h-17q-14 29 -14 75q14 24 14 51q0 46 -34 62q-21 8 -76 8v-8q-8 -17 -8 -45q0 -136 56 -244q69 -131 191 -141q14 18 40 56q1 -75 78 -75q72 17 90 23t72.5 46t68.5 57l3 -3l5 -57 q-135 -95 -135 -179q0 -15 4.5 -45t4.5 -45q0 -51 -7 -152.5t-7 -153.5q0 -22 11 -67t11 -67q0 -28 -3 -48h-44v8q-9 21 -9 48q0 26 11 74.5t11 74.5q0 22 -11 67t-11 67q0 28 8.5 83.5t8.5 82.5q0 41 -8 87q-28 20 -52 22q-32 -17 -63 -36q-37 -24 -37 -56q0 -19 6.5 -55.5 t6.5 -53.5q-13 -9 -27 -9q-26 0 -26 45q0 13 4.5 40.5t4.5 40.5q0 43 -31 53q-22 -44 -22 -139.5t-20 -134.5v104q0 205 -113 205q-44 0 -44 -101q0 -39 11 -111q12 -77 14 -109q-17 -12 -34 -14q-14 26 -14 51q0 29 7 85.5t7 85.5q0 78 -76 236t-76 259zM232 604 q0 -8 4 -17q66 -5 73 -5q8 0 22 5l36 56q7 -56 56 -56q9 0 21 4q22 69 22 114q0 85 -56 87l-48 -92q-7 37 -43 44q-27 -32 -56 -65q-31 -39 -31 -75zM348 474q0 -8 9 -22l-4 40l-5 -14v-4zM379 -399l14 64l25 -95q-14 -7 -34 -9q-5 41 -5 40zM483 669q0 -73 67 -73 q25 0 95 13q15 31 17 57q-48 76 -53 83q-34 38 -87 43l-34 -44q0 -11 -2.5 -37.5t-2.5 -41.5z" />
<glyph unicode="f" horiz-adv-x="850" d="M63 0v31q79 7 109 29q43 27 43 100q0 77 -2.5 230.5t-2.5 230.5q0 38 -7 67l-140 8v26q51 27 144 95q0 231 97 381q114 176 333 176q172 0 170 -113q-32 -34 -65 -70q-13 -20 -13 -95q0 -38 -17 -65q-17 123 -21 136q-24 75 -94 86q-51 -81 -51 -287q0 -171 65 -174v-75 l-3 -4l-28 -8q-20 -24 -25 -68q-5 -38 -9 -76l-8 4q-9 41 -17 80q-11 51 -40 68q-22 -8 -68 -8t-67 -9l-5 -100q14 -33 14 -84q0 -48 -7 -145t-7 -145q0 -125 57 -157q6 -4 102 -17q73 -10 77 -48h-96q-30 -49 -30 -121v1q1 0 8 -155q-20 -8 -48 -8l-17 27q2 22 10 80 q7 50 7 80q0 101 -75 101h-3q-31 -46 -31 -106q0 -17 4.5 -52t4.5 -52q0 -22 -10.5 -67t-10.5 -68q0 -17 10.5 -49.5t10.5 -49.5q0 -8 -4 -18l-8 -4q-28 5 -28 51q0 6 2 11.5t5 28.5q7 49 7 145v75q0 99 -43 155zM333 1000q0 -36 4 -104t4 -101l144 -3q36 61 36 215v66 q0 101 -19 183l-26 17q-41 -123 -43 -217l-8 6q-7 42 -22 126l-26 17q-44 -92 -44 -205zM698 730q0 41 5 111q7 81 9 111q20 -42 20 -146q0 -99 -17 -157q-17 18 -17 81z" />
<glyph unicode="g" horiz-adv-x="1128" d="M90 -309q0 87 101 161l39 83q-6 29 -44 96q-31 53 -31 104q22 15 108 51q77 32 97 53q-84 39 -135 121t-51 174q0 79 33 135q23 41 92 104q25 27 87 67q30 12 99 12q102 0 167 -26q43 -15 147 -82l222 12l18 -17v-79q-25 -11 -47 -11q-24 0 -62 10q-51 13 -61 15 q-17 -20 -17 -48q22 -42 22 -126q0 -119 -31 -169l-31 -8l-25 12q-9 -12 -67 -57q-36 -29 -48 -78.5t-12 -112.5q0 -49 19 -60q5 -3 60 -10q78 -10 132 -31.5t90 -89.5q34 -62 34 -126q0 -91 -83 -170.5t-83 -138.5q0 -16 4.5 -45.5t4.5 -45.5q0 -30 -17 -58l-12 106h-22 l-14 26l9 34l-21 17h-10q-24 -29 -36 -167q-8 -93 -15 -185q3 41 3 65q0 77 -14 155q-20 115 -59 115q-21 0 -39 -4q-26 -43 -26 -136v-14v-14q0 -93 -26 -136q-18 70 -18 205q0 87 -65 90q-14 -29 -19 -94.5t-21 -96.5l-12 -3l-8 3l-10 62q-4 -38 -4 -110q0 -77 4 -157 l-21 -3l-5 31q17 34 17 95q0 169 -68 295q-55 -61 -55 -174q0 -41 7 -104l-27 -13l-4 44q9 20 9 51q0 174 -48 239q-32 34 -66.5 71t-34.5 86zM213 -230v-14q0 -208 152 -222q39 65 39 236q0 49 -8 112q-15 16 -36 22q-85 -70 -147 -134zM256 -65l31 -27q42 19 56 39l-70 27 q-17 -23 -17 -39zM278 121q0 -48 91 -60q10 24 22 74q-9 17 -19 33t-29 20q-65 -46 -65 -67zM309 486q0 -136 73 -169v6q12 20 15.5 62t10.5 59q3 -101 8 -125q19 -72 87 -72q99 0 163 86q56 78 56 181q0 158 -109 264q-31 -12 -31 -56q0 -19 2.5 -55.5t2.5 -53.5l-31 -9 q-13 31 -13 85q0 28 5 89q-29 31 -70 31q-10 0 -22 -5l-48 -108l-2 -68q0 99 -49 111q-48 -131 -48 -253zM404 563l2 65q0 -2 -2 -65zM422 -183q0 -273 22 -295q13 -14 37 -14q101 0 267 45q30 49 30 95q0 24 -12.5 69.5t-12.5 69.5q0 12 1.5 36.5t1.5 36.5t-5 27l-38 17 q-15 -13 -39 -44l-5 14l-14 8l-8 -22q-17 44 -34 44q-31 0 -31 -95v-5q14 -28 14 -69q0 -20 -4.5 -58.5t-4.5 -55.5q-15 -8 -31 -12q-17 36 -17 99q0 21 2 60t2 55q8 11 8 25q0 70 -90 70h-5l-31 -39q-3 -41 -3 -62zM439 135q0 -24 17 -82q18 -15 30 -19q17 12 45 45l3 -14 q43 -39 82 -39q22 56 22 75q0 37 -15 71q-17 43 -50 45q-13 -28 -42 -82q-2 17 -50 78q-42 -17 -42 -78zM512 -1118q0 19 12 46q14 36 15 46q29 -42 29 -126q-15 -9 -30 -9q-11 0 -17 4q-9 17 -9 39zM621 -247l26 70q2 -23 13 -40v12l14 31q2 -10 9.5 -36.5t7.5 -42.5 q0 -22 -27 -25v-45q-12 -6 -29 -8q-14 27 -14 56v28zM678 -1022v-1q2 0 22 84q25 -34 25 -83q0 -22 -8 -43l-26 -5q-13 26 -13 48zM809 -517l3 -31h5v31h-8zM817 -275q0 -65 21 -107h9q58 80 58 138q0 60 -58 101q-30 -45 -30 -132zM817 -795q0 15 4 47q26 -42 26 -104 q0 -63 -26 -104q-4 69 -4 74v87zM817 -1073q0 -6 4 20l14 -60h-18v40z" />
<glyph unicode="h" horiz-adv-x="1121" d="M90 14v12l9 13q26 0 143 34l5 787q12 27 12 85q0 205 -25 277q-39 14 -79 27q-53 22 -56 51q48 2 136.5 37t138.5 37v-722h8q55 80 155 134t197 54q143 0 200 -120q39 -83 39 -246q0 -70 -9 -201q-8 -136 -8 -200l3 -3l145 -31v-34q-42 4 -58 4q-99 0 -99 -79 q0 -17 9 -96l-5 -8l-9 8q-10 24 -10 65v14q1 19 1 34q0 30 -3 44l-27 23h-82q-34 -50 -34 -135q0 -31 3 -84q5 -58 5 -82l-30 -13l-9 70q17 34 17 95q0 89 -32 121q-40 40 -41 45q41 12 121 39q26 63 26 218q0 250 -35 372l-30 6l-14 -23q0 -54 -6 -166t-6 -168q0 -17 6 -48 t6 -44h-26q-3 19 -3 27q0 17 8.5 48t8.5 48q0 20 -7 58.5t-7 58.5q0 28 4.5 82.5t4.5 81.5q0 113 -79 118l-8 -3q-24 -50 -24 -150q0 -16 1 -32q1 -18 1 -34q0 -98 -21 -141q0 322 -53 351v-5q-31 -30 -31 -123q0 -18 1 -37l-26 -9l-14 5v14q0 82 -42 91l-74 -87v-487h9 q49 -12 97 -22q67 -15 77 -48l-5 -8l-65 -9q-22 -46 -22 -118q0 -32 4 -97.5t4 -98.5q0 -80 -22 -126l-26 223q0 21 11.5 58.5t11.5 57.5q0 110 -94 110h-2q-22 -26 -29 -40q-14 -22 -15 -44q20 -38 22 -87l-26 -3q-8 18 -8 39q8 19 8 42q0 67 -25 84q-28 -25 -48 -61 q-9 71 -120 71q-14 0 -29 -1zM212 -382q27 55 27 246v27q26 -62 26 -265v-34q-18 -8 -36 -10q-14 17 -17 36zM447 -548q0 -5 12 70l14 -152h-26v82zM599 169q22 36 22 139v18l21 -205q-16 -8 -26 -12l-12 9z" />
<glyph unicode="i" horiz-adv-x="500" d="M12 5q14 29 72 44q44 11 88 21q36 65 36 253q0 116 -13 343q-64 46 -122 51v39q60 9 139.5 74.5t108.5 68.5l3 -699q-17 -31 -17 -60q0 -87 166 -118l5 -31l-140 4q-31 -85 -31 -203q0 -46 4.5 -139t4.5 -136l-12 -9q-22 9 -22 57q0 49 4 147.5t4 147.5q0 108 -51 131v-8 q-39 -31 -39 -87q0 -31 8 -85q10 -60 12 -86q-19 -12 -51 -12q-9 21 -9 40q0 29 13 84t13 84q0 79 -97 79q-19 0 -72 -5zM164 1248q0 39 48 83l22 9q19 0 70 -17l39 -50q-3 -49 -9 -60.5t-47 -46.5h-28q-34 0 -64 8q-31 41 -31 74z" />
<glyph unicode="j" horiz-adv-x="440" d="M36 -500q162 123 162 613q0 87 -7 259q-7 179 -7 258q-44 27 -87 78h-39v48l61 17q43 51 52 84q3 13 10 95q-4 -30 -4 -54q0 -60 38 -72q32 63 87 73q0 -97 5 -436q4 -272 4 -437q0 -207 -52 -314q-44 -94 -201 -246q-24 8 -22 34zM123 1253q0 54 70 95q46 0 80 -25 q38 -31 38 -75q0 -36 -46 -72q-57 -43 -67 -63q-5 -10 -27 -118q-2 41 -25 126.5t-23 131.5z" />
<glyph unicode="k" horiz-adv-x="1143" d="M106 5v29l3 9l123 18q26 48 26 139v991q0 108 -36 135q-10 7 -63 15q-45 7 -50 33l5 14q46 6 137 51q85 42 136 48v-1013q87 4 194 92.5t115 172.5q-27 36 -43 46t-61 19l-3 13q27 23 82 23q65 0 193.5 -3t193.5 -2v-23l-5 -8l-121 -26q-48 -107 -48 -191q0 -31 3 -126 l-20 -9q-5 -12 -5 -25q0 -19 4 -54t4 -50l-22 -14l-29 14l-5 29q26 52 26 187q0 152 -48 152q-5 0 -14 -8q-59 -62 -59 -191q0 -84 93.5 -227.5t170.5 -185.5q15 -9 75 -21q50 -12 68 -32l6 -21l-205 4q-12 -41 -43 -122q2 125 -121 125q-15 0 -118 -7l-8 29l8 9l138 18 l9 26l-51 73q-22 4 -62 23q-5 24 -17 70q-24 64 -114.5 122t-160.5 60q0 -31 -4 -100t-4 -105q0 -121 25 -151q16 -19 72 -28q48 -10 60 -42h-109q-21 -33 -23 -88q-1 -44 -3 -90l-26 -5l-8 5v121l-14 26h-8v-9q-26 -42 -26 -112q0 -31 4.5 -90t4.5 -90q0 -68 -19 -107 l-17 -5l-4 123q-13 30 -13 68q0 26 2.5 78t2.5 77q0 72 -27 94h-147zM589 514l73 -79q48 22 48 65q0 58 -44 91q-28 -38 -77 -65v-12zM853 -283q0 1 31 87q21 -34 21 -86v-30l-18 -14q-34 15 -34 43z" />
<glyph unicode="l" horiz-adv-x="579" d="M26 34l5 9l160 30q22 53 22 161q0 37 -4 111.5t-4 111.5v791q-39 18 -77 35q-49 28 -58 57l3 3q36 5 137 38q85 25 138 27l-5 -894q0 -46 -4 -137.5t-4 -137.5q0 -96 13 -166q53 -10 155 -39l6 -25q-70 -21 -70 -105q0 -59 5 -163q7 -118 8 -163l-30 -8q-11 24 -9 48 q-14 25 -14 51q0 20 11.5 57t11.5 57q0 17 -9 174q-46 48 -101 48h-56q-36 -60 -36 -198q0 -31 2.5 -89t2.5 -83h-20l-5 25q13 35 13 101q0 207 -44 244q-96 -2 -89 -2q-31 0 -49 6z" />
<glyph unicode="m" horiz-adv-x="1746" d="M99 5v12l9 17l112 31q36 101 36 295q0 155 -27 292l-104 31v39q56 8 127 78t112 74q8 -178 8 -196h5v5q147 157 331 157q159 0 231 -149q71 55 143 109q73 48 174 48q195 0 244 -189q21 -75 21 -347q0 -17 5 -230q13 -19 53 -29q53 -15 59 -19l9 -29q-34 -19 -79 -106v8 q0 43 -21 69q-23 29 -71 29q-17 -15 -34 -48q-7 26 -34 48l-39 -10l-28 -29v-14q0 -27 6 -70q6 -53 8 -70q-15 -8 -34 -8q-14 29 -14 110t-70 81l5 39q62 10 79 17q41 16 59.5 53.5t18.5 212.5q0 147 -6 198q-12 113 -64 185q-44 -28 -44 -178q0 -34 4 -94q5 -68 5 -93 l-21 -9q-8 17 -8 48q0 37 4 113t4 114q0 71 -13 102q-21 50 -82 50q-17 -29 -17 -52q0 -8 1.5 -24.5t1.5 -24.5q0 -22 -15.5 -65t-15.5 -65q0 -32 13 -95t13 -96q0 -44 -17 -75l-17 -9l-4 245q0 5 2 12.5t2 12.5q0 143 -31 205h-3v-14q-25 -39 -25 -123v-21q0 -13 1 -25 q0 -82 -21 -121q-2 94 -3 116q-5 68 -22 115q-17 11 -35 17q-39 -45 -47 -156q-2 -17 -2 -170q0 -166 22 -258q17 -12 36 -17q44 95 56 270v-5q0 -61 22 -161q26 -118 30 -164q-36 -12 -54 -42.5t-34 -63.5q-5 101 -107 101q-3 -2 -14 -5l-34 -51l-13 -403q0 -24 6.5 -71 t6.5 -71q0 -17 -5 -34l-17 -8q0 23 -3 83q-2 53 -2 82t5 88t5 88q0 225 -36 297h-157v27q10 22 91 34q70 11 70 67q0 8 -2 27t-2 27q0 33 8.5 97t8.5 96q0 227 -68 326q-41 -17 -41 -61q0 -17 5 -56l-31 -9l-3 34q9 19 9 45q0 73 -65 87l-53 -62q13 -229 14 -229v2 q0 -14 -7 -40t-7 -40q0 -7 14 -198l-31 -9l-5 62q18 37 18 104q0 29 -5 84.5t-5 84.5q0 17 2.5 52t2.5 52q0 106 -40 106h-2q-41 -46 -41 -162q0 -36 5 -104l-17 -4v191h-9q0 -41 -17 -148l-19 126q-24 19 -47 22q-17 -54 -17 -83q0 -19 4 -54t4 -54q0 -32 -1.5 -95.5 t-1.5 -95.5q0 -140 30 -165q16 -12 69 -19q46 -5 61 -29l5 -26h-53q-15 -22 -28.5 -70.5t-24.5 -69.5q0 80 -13 106q-21 38 -90 38h-4q-26 -50 -26 -118q0 -29 4.5 -89t4.5 -89q0 -42 -5 -73l-40 -5l-8 17q8 43 8 143q0 186 -34 210h-126zM411 160q36 52 36 198v16 q17 -46 17 -207v-27q-15 -5 -22 -5q-20 0 -31 25zM416 -331v-1q1 0 12 132q19 -32 19 -78q0 -14 -1.5 -41t-1.5 -41t3 -39h-19q-12 24 -12 68zM995 -244l20 53q36 -50 36 -92q0 -29 -39 -29q-3 0 -14 3zM1425 -135q15 22 17 62q9 -16 9 -41v-46h-23zM1538 -348q0 25 13 68 q14 50 17 67q31 -52 31 -137v-41q-19 -8 -31 -8q-30 0 -30 51z" />
<glyph unicode="n" horiz-adv-x="1169" d="M84 0v39l134 26q26 49 26 165v209q0 88 -22 170q-34 12 -99 43l-5 36q80 20 124 61q28 34 53 68q36 45 67 48l8 -157h5q57 65 151 102.5t184 37.5q145 0 205 -99q46 -77 46 -232q0 -53 -6 -158.5t-6 -158.5q0 -65 8 -113q41 -12 81 -24q53 -19 58 -49l-4 -14q-22 0 -75 2 h-75q-48 0 -72 -7q-34 -56 -34 -186q0 -31 2 -85q2 -62 2 -84l-9 -5l-14 5q-8 14 -8 56q17 33 17 96q0 177 -43 203h-53q-44 0 -68 5v26q12 22 57 25q56 5 71 12q36 19 36 80q0 19 -4.5 55t-4.5 55v71q2 46 2 70q0 226 -53 311q-39 -16 -39 -62q0 -15 1.5 -45.5t1.5 -44.5 l-25 -5q-10 19 -12 39q12 24 12 56q0 38 -39 87q-48 -18 -48 -109q0 -30 6.5 -86.5t6.5 -82.5l-30 -5l-14 27q27 52 27 122q0 140 -70 140q-12 0 -22 -6l-39 -64q0 -23 2 -75v-74q0 -49 -7 -145.5t-7 -146.5q0 -75 12 -112q22 -36 53 -113h-70q-43 -68 -43 -208 q0 -51 5 -142q7 -101 7 -142l-31 -13q-11 15 -11 36q0 13 8.5 40.5t8.5 41.5q0 22 -7 65.5t-7 65.5q0 26 7 76t7 76q0 75 -48 104v-5q-16 -14 -25 -38.5t-14 -48.5q1 97 -134 97q2 0 -105 -5zM288 -253l35 93q23 -41 25 -110q-20 -13 -41 -13h-7zM362 174l5 -31 q8 -56 10 -56q9 -22 50 -22q47 148 47 353q0 142 -25 239l-39 17l-48 -44v-456z" />
<glyph unicode="o" horiz-adv-x="1067" d="M73 408q0 232 169 362q113 87 318 87q172 0 303.5 -136t131.5 -308q0 -125 -68 -213q-65 -65 -128 -132q-69 -73 -69 -160q0 -43 9 -126.5t9 -124.5l-35 -9l-8 4q-5 46 -5 70q0 51 8 235q-13 41 -56 48l-53 -19q-34 -37 -34 -107q0 -26 4 -74.5t4 -74.5q0 -53 -22 -95 q-20 78 -20 118q0 25 10 75.5t10 75.5q0 81 -82 82l-34 -47q12 -164 12 -168q0 -15 -11 -45.5t-11 -48.5q0 -23 7 -72.5t7 -73.5q0 -17 -4 -36l-31 -4l-5 14q9 210 9 225q0 16 -6 44t-6 43q0 16 4 44t4 43q0 86 -47 101q-16 -22 -31 -22q-9 0 -26 31q-22 39 -23.5 41.5 t-64 46t-101.5 137.5q-38 85 -38 169zM225 418q0 -150 67 -263q78 -133 220 -133q154 0 244 135q79 116 79 278q0 123 -50 220q-56 115 -164 145q-14 -44 -14 -116q0 -17 1 -35l-21 -14q-36 5 -36 48q0 13 7 40.5t7 41.5q0 25 -22 39l-60 8l-36 -12l-25 -61l-6 -273 q0 -21 6 -53q6 -39 8 -53l-34 -3l-19 17q27 116 27 235q0 132 -52 144q-70 -84 -98.5 -155.5t-28.5 -179.5zM300 -244q11 34 21 104l22 -107q-14 -7 -31 -9zM531 -669q20 40 20 171v24q22 -47 22 -152q0 -40 -13 -57l-17 -5z" />
<glyph unicode="p" horiz-adv-x="1246" d="M130 -483l3 5q111 0 135 51q8 514 8 692q0 290 -20 443q-43 16 -123 53l5 26q51 19 147 70q7 5 46 48q29 29 55 34l13 -4v-196h4q118 109 322 109q314 0 383 -362q5 -27 5 -56q0 -66 -31 -148t-75 -130q-27 -22 -68 -79q-14 -30 -14 -95q0 -31 8.5 -91.5t8.5 -91.5 q0 -25 -11 -77.5t-11 -77.5q0 -36 9.5 -107t9.5 -106q-19 -9 -36 -9q-21 0 -21 36v3q26 50 26 130q0 39 -8.5 119.5t-8.5 119.5q0 20 6 63t6 63q0 36 -31 82q-10 -12 -51 -73q-5 27 -44 56l-105 -12q-39 -54 -39 -135q0 -39 7 -116t7 -114q-16 -5 -39 -5v8q-17 28 -17 65 q0 29 15 87t15 87q0 26 -17 72q-19 55 -39 55q-34 0 -53 -192q-14 -131 -14 -235q0 -19 50 -48q56 -32 68 -56h-2q-38 0 -68 -43l-20 -404q0 59 -9 160q-8 113 -10 160q-34 -1 -34 36q8 14 8 31q0 14 -3 29q-26 31 -67 31q-37 -50 -41 -63q-1 -7 -1 -75q0 -21 -9 -40 q0 84 -7 111q-15 67 -69 67h-2l-45 -43q0 -36 14 -108.5t14 -109.5q0 -19 -6 -43q-12 -9 -25 -9q-31 0 -31 62q0 29 17 82t17 82q0 42 -51 87h-56v39zM335 -874q0 24 10 62q13 46 15 59q26 -42 26 -129q0 -26 -4 -45l-30 -3q-17 48 -17 56zM391 492q0 -45 3 -120 q5 -89 5 -119q2 -4 23 -81q11 -44 42 -71q65 -58 174 -58q135 0 230.5 105t95.5 239q0 96 -42 171q-26 44 -110 138q-22 -12 -39 -30q-2 41 -44 59v-3q-12 -10 -34 -82q1 108 -110 108q-18 0 -42 -9q-17 -44 -45 -87v14l-42 34q-65 -34 -65 -208zM403 -150v-109 q0 -192 53 -193l39 39v5q0 34 -11 101.5t-11 101.5q0 33 2.5 98.5t2.5 97.5q0 43 -70 74q0 -26 -4 -108q-1 -66 -1 -107zM481 452v40q0 1 17 61q23 -32 23 -96q-14 -6 -26 -10zM503 -1138l23 68q24 -31 25 -79l-39 -3zM672 396q0 10 23 90q17 -35 17 -104v-112 q0 -55 -12 -96h-11q-17 230 -17 222zM773 570v51q9 -15 9 -29v-13l-5 -14zM795 -348q0 41 12 119.5t14 115.5l26 -269l-23 -17l-20 12q-9 17 -9 39z" />
<glyph unicode="q" horiz-adv-x="1135" d="M44 413q0 160 134 299.5t293 139.5q61 0 171.5 -40.5t166.5 -41.5q14 36 29 71q22 41 58 41l5 -1326q12 -27 71 -41.5t67 -48.5h-152q-37 -65 -37 -254q0 -36 2 -99q1 -70 1 -99l-13 -14q-23 7 -23 39q0 21 9.5 59t9.5 59q0 72 -13 162q-17 121 -48 142 q-53 -137 -53 -311v-49q0 -28 9.5 -81.5t9.5 -81.5q0 -81 -14 -129l-14 3v183q0 17 4.5 53t4.5 53q0 15 -1.5 43t-1.5 44q0 10 1.5 32t1.5 32q0 154 -60 222l-78 -8l-9 48q29 29 29 97q0 15 -1.5 44t-1.5 45q0 27 11 81.5t11 81.5q0 94 -31 151l-22 -23l5 -148h-14l-5 22 q11 24 11 74q0 30 -6 56q-20 15 -42 19q-31 -52 -31 -132q0 -32 4 -87q5 -63 5 -87l-26 -8l-10 5v65q22 39 22 95q0 144 -111 144h-2q-39 -77 -39 -256q0 -70 7 -188q8 -137 10 -186q-20 -12 -43 -14l-8 5v12q-5 10 -5 22q0 24 11 72t11 72v133q0 104 -22 159q0 17 2 70v70 q0 18 -2 25q-9 34 -43 56.5t-66 42.5q-62 46 -101 140q-38 87 -38 169zM213 447q0 -150 105 -248t257 -98q157 0 186 59v309q0 23 -12 84q-20 101 -34.5 125.5t-96.5 91.5q-45 -19 -45 -94q0 -17 2 -36l-8 -14q-24 7 -24 46q0 12 1 24q-8 31 -30 91l-40 5q-23 -36 -70 -123 q2 46 -47 84q-70 -28 -111 -132q-33 -83 -33 -174zM387 208q12 41 12 101q0 20 -1.5 60.5t-1.5 60.5q0 62 8 191q23 -44 23 -87q0 -31 -8.5 -91.5t-8.5 -90.5q0 -23 8.5 -65.5t8.5 -64.5q0 -10 -4 -22l-27 -9zM626 -422q0 -10 5 -22q31 -32 60 -34q19 5 58 31q29 31 29 172 q0 74 -7 190q-8 158 -10 189q-39 -29 -77.5 -61.5t-38.5 -88.5q0 -17 4.5 -53t4.5 -53q0 -44 -14 -134.5t-14 -135.5z" />
<glyph unicode="r" horiz-adv-x="759" d="M68 22l9 12l157 31v14q17 34 17 114q0 60 -4.5 180t-4.5 180q0 70 -44 89q-2 1 -104 18v31q198 89 230 200h36l4 -256h13q24 65 101 136q83 77 147 77q42 0 73 -33t31 -76q0 -32 -59 -64t-59 -74v3q1 0 9 -87l-29 -8q-9 20 -9 47q12 21 12 45q0 25 -12 65q-38 23 -67 25 l-29 -48q-8 24 -35 23q-23 -33 -43 -65q-31 -48 -31 -67l9 -452q39 -24 119 -29q92 -7 125 -19l3 -25q-87 -4 -119 -4q-19 0 -33 4q-39 -62 -39 -139q0 -27 7 -82.5t7 -82.5q0 -29 -5 -62l-18 -13q-34 15 -34 78q0 33 8.5 96t8.5 95q0 91 -56 106q-44 -75 -44 -162 q0 -20 6.5 -63t6.5 -63q0 -38 -17 -69v26q0 22 2 65.5t2 65.5q0 193 -65 200q-34 -85 -34 -118q0 -29 10 -85t10 -85q0 -34 -6 -101t-6 -99l-27 -3l-3 64q8 21 8 48q0 22 -11 63t-11 64t8.5 68.5t8.5 69.5q0 41 -39 109l-87 5zM294 -626q0 37 8.5 109t9.5 104 q29 -60 29 -222q0 -15 -3 -31q-15 -8 -31 -12q-13 18 -13 52zM476 556q0 2 14 53l13 -95h-22q-5 46 -5 42z" />
<glyph unicode="s" horiz-adv-x="736" d="M70 635q0 97 84 164q78 61 177 61q201 0 236 -56l17 -178h-40q-15 69 -56 82l-8 -3q-40 -67 -40 -118q0 -66 98.5 -167t98.5 -184q0 -82 -78.5 -165t-78.5 -167q0 -29 8.5 -84.5t8.5 -84.5q0 -34 -7 -105.5t-7 -107.5h-17q-2 5 -3 12q0 21 1.5 60t1.5 60q0 10 -1.5 31 t-1.5 32q0 27 1.5 82.5t1.5 82.5q0 57 -17 87q-19 -8 -43 -8q-17 0 -39 5l-27 -36q6 -72 13 -217l-17 -8q-17 5 -53 17q-25 36 -25 65q0 8 22 73q0 -41 17 -68l8 78q0 -47 18 -78l5 105v-1q0 32 -5 56h-12l-11 -13q-3 15 -17 22l-8 -9v5q-22 19 -89.5 38t-84.5 39 q-26 33 -26 183v53h31q41 -98 46 -110q34 -63 84 -81q39 64 39 191q0 131 -62 152v-10q0 -47 -17 -129l-25 -8q-14 29 -14 65q14 27 14 51q0 41 -50.5 116t-50.5 128zM193 674q0 -118 194 -169q36 58 36 173q0 102 -44 122h-4q-35 -25 -35 -87q0 6 8 -100l-20 -9l-5 26 q8 19 8 61q0 48 -8 82q-16 12 -48 31q-82 -67 -82 -130zM283 208h5v9q12 20 12 53q0 46 -17 65v-127zM314 217q0 -98 26 -183l27 -3l48 56v-8l34 -31q82 42 82 143q0 77 -57 92q-23 -27 -47 -56q-5 -7 -17 -79q0 176 -62 204q-34 -48 -34 -135z" />
<glyph unicode="t" horiz-adv-x="650" d="M20 773l96 58q56 38 79 77q15 46 32 92q22 58 63 62v-231l290 4l-3 -74l-278 -8l-9 -5v-321q0 -23 -4 -68t-4 -67q0 -121 20 -157q12 -22 53 -53q12 -3 22 -3q41 0 103 20q75 26 100 31q9 -16 9 -34q-60 -43 -60 -118q0 -21 4.5 -61t4.5 -60q0 -29 -13 -84.5t-13 -84.5 q0 -26 10 -75.5t10 -73.5q-18 -8 -39 -8q-12 34 -12 61q0 48 11 141t11 141q0 140 -66 143l-21 -12q-27 -44 -27 -101q0 -32 5 -90q7 -63 9 -89q-16 -8 -34 -8q-14 27 -14 66q0 -3 8.5 34.5t8.5 90.5q0 70 -82 106q-101 41 -126 90q-22 43 -22 179q0 34 8.5 101.5t8.5 101.5 q0 12 -9 262l-126 -4z" />
<glyph unicode="u" horiz-adv-x="1145" d="M49 840h275q-1 -50 -8 -248q-5 -153 -5 -249q0 -118 34 -167q42 -63 153 -63q87 0 157 29q91 39 104 111q4 18 4 116q0 42 4 125t4 126q0 99 -25 141l-22 9q-43 -60 -43 -157q0 -43 12 -121l-26 -14q-13 22 -13 48q22 44 22 92q0 41 -17 97q-21 67 -48 80q-15 5 -33 12 t-20 24q120 9 126 9h219q0 -79 -9.5 -240t-9.5 -243q0 -133 19 -231h8q34 -15 139 -17v-30q-41 -11 -60 -69q-15 -46 -31 -92q-3 55 -31 108h-8q-44 -74 -44 -144q0 -37 6.5 -109t6.5 -104l-25 -4l-6 9q18 84 18 157q0 128 -48 186l-65 -12l-4 147h-13v-4q-62 -59 -62 -365 q0 -179 17 -356l-25 -14l-9 26q14 29 14 75q0 22 -4.5 67t-4.5 67q0 48 6 141t6 141q0 79 -12 126l-44 17q-53 -66 -53 -216q0 -31 2.5 -90t2.5 -90q0 -85 -17 -143q-17 21 -17 79q0 41 4.5 123.5t4.5 123.5q0 131 -62 149q-48 -65 -48 -130q0 -29 7 -83.5t7 -78.5l-17 -9 q-32 5 -31 45q21 40 21 107q0 96 -31 130q-14 17 -71 35.5t-89 61.5q-60 77 -60 256q0 55 6 162.5t6 161.5q0 79 -26 106l-112 31zM942 -265v-3q2 0 17 94q26 -43 26 -118q0 -32 -9 -73h-22l-3 70q-9 15 -9 30z" />
<glyph unicode="v" horiz-adv-x="1157" d="M94 840h299q80 0 170 -9v-31q-65 -18 -65 -143q0 -131 44.5 -249t90.5 -234q62 58 109 219q43 145 43 247q0 89 -31 147q-32 0 -49 7q-26 10 -24 37h416l6 -27q-59 -17 -105 -21l-35 -58l8 -230l-31 -9l-8 36q8 19 8 58q0 67 -8 103q-17 0 -34 5q-26 -91 -51 -181 q-26 -104 -28 -184q-19 -12 -39 -14l-26 14q-41 -113 -75 -186q-65 -142 -104 -151l-51 118q-17 15 -38.5 15t-31.5 50q-5 26 -17 75q-22 -39 -56 -39l-6 95q9 19 9 40q0 117 -135 390l-17 -5q-17 -37 -19 -102l1 22q1 0 1 -128q0 -80 -17 -118q0 366 -56 393 q-17 7 -33.5 16t-14.5 32zM176 196q22 37 22 131v16l20 -177q-20 -12 -34 -14q-8 15 -8 44zM432 649h5q17 15 17 51t-22 53v-104z" />
<glyph unicode="w" horiz-adv-x="1649" d="M130 795v40h409l4 -31l-4 -9q-36 -1 -106 -22l-17 -43q65 -160 279 -590q47 87 97 174q73 135 73 164q0 17 -22 65q-31 66 -37 86.5t-19 61.5q-17 53 -45 70q-34 12 -68 22q-44 14 -44 48q169 0 447 4v-35l-60 -17q-31 -49 -31 -126q0 -206 144 -505q25 49 73 148 q29 96 104 279q53 99 53 126q0 49 -63 72q-51 17 -102 32q15 31 83 31q48 0 143 -2.5t139 -2.5l5 -40q-51 0 -84 -22q-76 -51 -215 -421q-131 -354 -198 -369q-24 68 -46 136q-32 94 -58 125q-13 15 -39 48q-10 17 -17 58t-17 58v-4q-56 -100 -157 -308q-26 -60 -36 -76 q-25 -37 -64 -37h-4q-14 31 -357 722h-14q-25 -38 -25 -123q0 -90 3 -232q5 -198 5 -232l-17 -5q-25 15 -25 61q0 38 8 58h2q12 34 12 99q0 46 -9.5 136.5t-9.5 136.5q0 16 4.5 44t4.5 43q0 96 -82 104zM916 736q0 -4 23 -84h13l17 22v39q0 7 -5 26l-42 22q-6 -13 -6 -25z " />
<glyph unicode="x" horiz-adv-x="1111" d="M130 826q12 0 39 4.5t43 4.5h262q14 0 69 -4l13 -31q-39 -34 -39 -92q0 -53 31 -114q34 -67 78 -85v5q127 129 135 234l-8 22q-38 7 -106 34l-4 27h378l5 -31q-51 -10 -63 -42q-7 -19 -7 -80q0 -53 -17 -156.5t-17 -156.5q0 -24 8.5 -71.5t8.5 -71.5q0 -27 -16 -41 q-22 -24 -27 -33l73 -75l87 -30v-43h-126q-24 -36 -24 -99q0 -14 2 -49h-17v52q14 21 14 40q0 65 -101 65q-39 -33 -39 -91q0 -19 4 -54t4 -52l-20 -3q-11 15 -14 31q14 23 14 56q0 32 -14 78q-35 26 -85 26h-7v34l5 5q118 0 121 70l-200 256q-39 -44 -61 -129 q-51 -12 -85 -54t-36 -95q41 -22 140 -44l3 -43h-177q-22 -38 -22 -73q0 3 13 -93q-15 -6 -36 -8q-1 2 -8 12t-7 41q0 10 1.5 28t1.5 28q0 33 -13 60q-17 -17 -48 -51q-11 56 -95 56h-9v39l3 4q118 10 229 125t111 231q0 29 -9 58q-12 40 -49 86q-31 37 -63 75 q-26 37 -50 75q-32 44 -68 55l-34 -23q-7 16 -45 46q-29 26 -30 55zM205 570v43q8 -16 8 -31v-21zM213 -399q0 20 26 216q26 -53 26 -186v-41q0 -12 -4 -20q-10 -9 -22 -9q-26 0 -26 40zM430 748h9l8 5v8h-3l-14 9v-22zM526 396h13v8h-13v-8zM647 478l210 -282l17 4 q42 68 42 213q0 39 -6 154q-7 128 -14 138q-17 27 -39 34q-40 -41 -105.5 -131.5t-104.5 -129.5z" />
<glyph unicode="y" horiz-adv-x="1007" d="M96 835q41 0 129.5 4t134.5 4q97 0 162 -12v-27l-70 -17q-25 -39 -25 -144q0 -111 56 -266l96 -256q25 26 51 101q17 56 36 113q39 100 78 201q41 116 43 212q-41 17 -84 35q-54 26 -68 52h365v-31l-5 -9q-77 -5 -125 -59q-37 -41 -64 -122q-21 -68 -41 -136 q-17 -53 -186 -509q-29 -80 -57 -162q-34 -94 -70 -155q-15 -27 -68 -85q-48 -52 -64 -91t-16 -147.5t-17 -140.5h-3q-19 0 -19 25q0 -3 10 29q7 22 7 62q0 135 -38 174q-24 17 -46 32q-29 22 -29 46q0 34 22 59t56 25h-2q0 -2 112 -19q146 169 146 314q0 51 -15 101 q-22 68 -58 77q-15 -9 -43 -9l-5 126q-12 29 -18 90t-16 88l-140 362q-104 8 -112 65z" />
<glyph unicode="z" horiz-adv-x="908" d="M56 5v29q69 56 181 196q121 151 145 217q14 39 14 114q0 142 -48 183h-5q-19 -25 -24 -75q-3 -41 -7 -82l-34 -5q-13 31 -13 92q5 9 5 17q0 29 -36 34q-43 -46 -121 -143q-19 3 -23 22q28 89 53 176q43 131 91 133v-14q-9 -15 -9 -34q0 -22 9 -42q73 -28 210 -28 q65 0 193 8.5t189 8.5l9 -39q-106 -162 -371 -473q-54 -56 -109 -112q-65 -69 -90 -127q8 0 32 -2.5t38 -2.5q10 0 28 4.5t28 4.5q22 0 65.5 -6t65.5 -6q127 0 186 51q33 27 63 97q23 55 55 60l9 -36q-9 -65 -18 -129q-15 -91 -64 -91q-36 -54 -41 -148q-2 -79 -4 -157 l-8 -4l-26 17q17 50 17 121q0 171 -102 171h-2l-48 -48q-17 -228 -17 -401q0 -25 13 -75.5t13 -76.5q0 -24 -14 -44l-25 -3v8q-9 17 -9 34t8.5 49.5t8.5 49.5q0 43 -11 126.5t-11 126.5q0 20 11 61t11 62q0 131 -85 131h-5l-11 -5q-35 -38 -41 -56q-1 -7 -1 -70 q0 -16 -9 -26q4 24 4 56q0 70 -38 87q-27 -76 -27 -238q0 -77 5 -161l-22 -10l-5 95q13 31 13 93q0 198 -51 235h-188zM413 582q0 -67 31 -87h3q92 65 92 188q0 34 -8 65q-29 13 -79 13l-25 -39q-14 -116 -14 -140zM587 725q4 -12 22 -25q7 3 48 48q-15 11 -48 13z" />
<glyph unicode="{" horiz-adv-x="679" d="M32 652l6 5q15 0 59 26q84 47 96 56q39 36 39 101q0 46 -21.5 136.5t-21.5 136.5q0 147 101 246q92 88 242 119v-34q-199 -48 -199 -200q0 -48 22 -139t22 -139q0 -99 -82.5 -196.5t-82.5 -151.5q0 -21 3 -36q157 -97 157 -270q0 -46 -22 -134.5t-22 -134.5 q0 -84 61 -144q56 -53 143 -68v-31l-69 9q-11 -14 -30 -39q-5 18 -35 56l-26 -26v-3q0 -36 8.5 -102.5t8.5 -98.5q-12 -11 -25 -14q-14 17 -14 53q0 19 4 56.5t4 55.5q0 74 -25 135q-138 103 -138 258q0 51 13 128q22 118 24 128h-37q-28 22 -29 77q0 70 -7 88l-9 -8 q-17 -39 -17 -101q0 -34 11 -99.5t11 -99.5q0 -9 -10 -30.5t-10 -38.5v-22q2 -15 2 -22q0 -32 -9 -53l-12 -5v10q-8 17 -8 38q0 12 1.5 35t1.5 35q0 13 -4.5 39t-4.5 39q0 26 7 79t7 78q0 72 -53 178l-25 5zM463 -461q0 84 22 205q25 -43 25 -140q0 -22 -2.5 -68t-2.5 -70 l-29 -5q-13 39 -13 78z" />
<glyph unicode="|" horiz-adv-x="730" d="M299 -200v1675h87v-1675h-87z" />
<glyph unicode="}" horiz-adv-x="623" d="M116 -169q2 0 61 29l50 17q27 10 46 31q44 49 44 131q0 46 -19.5 135t-19.5 135q0 77 45 145q15 24 80 99q44 49 44 82q0 19 -44 68q-58 65 -80 104q-45 74 -45 149q0 44 24 130t24 131q0 53 -28 108.5t-73 79.5q-34 12 -66 23q-41 18 -43 50h7q19 0 94 -26 q95 -32 165 -117q74 -91 74 -186q0 -50 -21.5 -144.5t-21.5 -144.5q0 -97 58 -140q72 -34 142 -68l3 -34l-3 -5q-77 0 -110 -40l-17 -68q-46 -20 -59.5 -35.5t-13.5 -61.5q0 -50 21.5 -143.5t21.5 -143.5q0 -66 -43 -137t-101 -110q-30 -16 -82 -62q-22 -32 -22 -104 q0 -22 2 -67t2 -68q0 -29 -8.5 -88.5t-8.5 -88.5q0 -22 10 -61.5t12 -56.5l-26 -3l-8 12q8 29 8 83q0 28 -4 82.5t-4 81.5t8.5 81t8.5 81q0 29 -9 57l-44 51l-31 -4v31zM481 630q0 -12 14 -12q24 0 39 22q-8 0 -44 12q-9 -14 -9 -22z" />
<glyph unicode="~" horiz-adv-x="1551" d="M230 565v7q0 114 68.5 192.5t181.5 78.5q114 0 307 -95.5t288 -95.5q86 0 139.5 53t60.5 138h48q-7 -95 -34 -148q-33 -60 -110 -108l-47 -152q0 65 -22.5 89t-87.5 41l-30 -34l5 -208l-31 -11q-14 24 -14 48q23 39 23 97q0 139 -79 144q-27 -72 -27 -243q0 -121 13 -315 l-12 -12l-13 8l-9 14q21 39 21 193q0 17 -2 53t-2 53q0 18 2 54t2 55q0 124 -55 174l-31 8l-25 -30q0 -81 -5 -245.5t-5 -246.5l-4 2q-12 0 -22 -5q-9 19 -9 59q23 45 23 171q0 301 -53 340q-21 15 -48 17l-31 -39v-14q0 -27 2.5 -83.5t2.5 -82.5q-17 -8 -39 -8 q-3 20 -17 56l-22 -3q-17 37 -14 157l-43 65q-39 -36 -56 -70q-14 -26 -14 -296q0 -23 13 -67t15 -64q-17 -9 -50 -9q-8 19 -8 57q22 37 22 179q0 145 -17 208q-21 12 -39 17q-21 -46 -65 -135zM556 601q0 -22 9 -36l5 65q0 37 -14 53v-82zM1114 188q11 27 14 92q2 49 4 99 q30 -53 30 -171v-107q-19 -14 -36 -19l-8 10z" />
<glyph unicode="&#xa1;" horiz-adv-x="413" d="M113 978q24 31 78 87h4q46 0 73 -21q12 -10 49 -58v-11q0 -72 -104 -175q12 -17 31 -52q17 -41 17 -127q0 -19 -7 -56.5t-7 -55.5q0 -144 23 -400q3 -37 24 -136q18 -87 18 -139q0 -61 -49.5 -120.5t-49.5 -143.5q0 -34 6 -102.5t6 -102.5q0 -29 -8 -56q-10 -12 -26 -14 l-3 36q8 24 8 176q0 126 -13 167q-9 24 -41 68q-21 31 -21 89q0 99 27 251q18 95 18 118q0 10 -4.5 30.5t-4.5 30.5q0 39 13 115t13 116q0 29 -11.5 84t-11.5 84q0 28 36 149q-83 87 -83 169z" />
<glyph unicode="&#xa2;" horiz-adv-x="985" d="M99 927q0 109 43 208q47 109 131 162q32 21 99 38q73 18 101 30q68 0 106 -1l47 111h93v-9l-48 -113q95 -20 150 -83v-51q-12 -18 -39 -48q-67 0 -159 77l-256 -582q72 -70 167 -70q121 0 301 117v-64q-55 -38 -68.5 -64.5t-13.5 -87.5q-2 -46 -23 -87q0 121 -49 126 q-73 -31 -73 -101q0 -22 6.5 -67t6.5 -68q0 -35 -6.5 -106t-6.5 -107v-251l-26 -5q-14 29 -14 73q0 28 4.5 83.5t4.5 82.5q0 41 -6 122t-6 122q0 19 4 56.5t4 56.5q0 73 -70 73l-47 -65q-4 67 -62 74q-30 -45 -30 -99q0 -29 5 -79q6 -58 8 -78q-19 -9 -39 -9q-9 22 -9 61 q0 16 4.5 48.5t4.5 47.5q0 67 -33 121l-87 -203h-87v9l116 268q-81 90 -110 148q-38 77 -38 183zM259 949q0 -113 52 -208l239 554q-14 5 -24 5q-53 0 -63 -63q-4 -51 -7 -102l-5 5l-4 118l-34 25q-78 -41 -119 -145q-35 -87 -35 -189zM439 9v105q0 46 17 308 q22 -62 22 -205v-203l-27 -14zM712 278l18 53q21 -31 21 -89v-37l-34 -4z" />
<glyph unicode="&#xa5;" horiz-adv-x="1702" d="M145 1360q248 -3 393 -3q20 0 62 4t62 4q34 0 62 -13l5 -26q-62 -34 -62 -121q0 -150 142 -365h239q111 165 181 261q54 73 60 83q29 50 30 99q-22 11 -92 28q-63 15 -85 32l-5 27h457l-5 -44q-91 0 -169 -82q-12 -12 -118 -153q-68 -82 -203 -251h295v-87h-92 q-42 -62 -42 -232v-29l-9 -14q-24 10 -24 73q0 -7 2 40q22 37 22 69q0 93 -121 93q-10 -38 -39 -110q-4 43 -48 105q-19 -21 -53 -91v12q-39 -80 -39 -213v-86h112q5 23 9 106q1 68 22 103q22 -64 22 -96q0 -14 -2.5 -39.5t-2.5 -39.5q0 -15 5 -30l278 -4v-92h-121 q-31 -56 -31 -177q0 -34 2 -92q2 -65 2 -91l-26 -5q-8 43 -8 121q0 33 1.5 96t1.5 95q0 40 -51 53q-41 -85 -44 -229q41 -5 87 -6l-6 -38q-20 -3 -40 -3q-16 0 -41 3q0 -75 8 -198q12 -153 14 -198q-16 -7 -34 -8q-17 41 -7 211q-2 -10 -12 -56q-9 -34 -9 -56q0 -19 7 -54 t7 -54q0 -22 -9.5 -63t-9.5 -63q0 -24 7 -67.5t7 -64.5l-22 -3l-4 34q12 26 12 70q0 31 -10 91.5t-10 91.5q0 24 4 71.5t4 71.5q0 12 -2.5 35t-2.5 35q0 19 7 54t7 54q0 70 -92 70l-9 -16q2 -46 2 -75q0 -82 -14 -126q-24 24 -22 123q-9 -29 -9 -58q0 -23 6 -68t6 -67 q0 -39 -17 -70q-25 95 -25 123q0 24 6.5 73.5t6.5 72.5q0 67 -44 82l-7 -3l-12 7q-10 2 -15 2q-4 0 -14 -4q-10 -29 -31 -87q6 -159 6 -174q0 -27 -8.5 -81t-8.5 -81q0 -21 4 -61t4 -60q0 -45 -14 -79q-17 22 -17 70q0 21 7 61t7 60q0 53 -11 157t-11 157q0 115 -62 118 q-10 -19 -17 -36q9 -49 19 -152l-36 -5q0 -1 9 -220q-14 -8 -31 -10l-17 22q17 68 17 188q0 194 -67 211q2 -56 2 -93.5t-20 -69.5q-4 174 -7 232q-12 181 -46 206h-39q-4 0 -14 -3q-15 -46 -15 -198q0 -121 -28 -173q-1 99 -3 198q-9 151 -41 173l-51 3v92h469q39 63 39 70 q0 82 -27 144q-17 41 -73 126l-9 -10q5 -29 5 -34q0 -2 -2 -4v-5l6 -56h-18v20q12 21 12 38q0 36 -18.5 65t-52.5 29l-14 -5q-12 -23 -36 -65q0 46 -34 61q-22 9 -75 9h-12q-34 -52 -44 -96q5 -20 5 -39q0 -21 -4 -36q17 -84 17 -99q0 -39 -25 -36q-14 29 -14 84 q16 25 22 51q-5 22 -5 39q0 19 4 36q-26 102 -116 96v87h317q-61 78 -176 242q-29 51 -56 102q-41 64 -82 77q-34 -53 -34 -140q0 -25 1.5 -75.5t1.5 -76.5q0 -10 -13 -320h-17l-4 17q9 18 9 39q0 22 -11 63t-11 63q0 43 6.5 125.5t6.5 125.5q0 205 -87 244zM364 -244 q25 31 30 84q33 -53 34 -123q-17 -12 -47 -12q-17 25 -17 51zM532 1256q24 -34 70 -104q18 9 35 36v12q0 87 -57 112q-17 -10 -32.5 -20t-15.5 -36zM543 -239q12 -22 12 -51v-29q0 -24 -9 -51l-3 5v126zM560 118q0 -21 1 -75q30 3 88 10q-6 114 -29 208l-12 14 q-48 -50 -48 -157zM568 582q12 22 12 70l11 -79l-6 -3l-13 3zM671 58q94 17 117 51q11 16 16 166l-84 3q-36 -61 -49 -220zM870 748q29 -45 53 -88q22 26 50 65q-22 28 -82 28h-19zM906 -531q16 24 17 65q4 -31 14 -90q-17 -9 -26 -9h-5v34zM968 140q0 -12 12 -58 q56 -24 131 -33q-22 231 -113 229q-30 -51 -30 -138zM985 553l5 43l8 -43h-13zM1089 -65q0 -17 7 -48.5t7 -46.5q13 136 13 126q0 8 -2 39q-25 -34 -25 -70z" />
<glyph unicode="&#xa6;" horiz-adv-x="683" d="M299 -200v770h87v-770h-87zM299 773v702h87v-702h-87z" />
<glyph unicode="&#xa8;" horiz-adv-x="969" d="M222 1565q0 61 83 118h14q75 0 103 -43q22 -32 22 -109q-75 -84 -84 -106q-14 -31 -12 -130l-25 -8q-12 24 -14 66q0 53 -3.5 69.5t-46.5 62.5q-37 39 -37 80zM689 1577q0 55 88 113l78 -9q56 -60 56 -104q0 -48 -70 -109h-17q-49 0 -92 30.5t-43 78.5z" />
<glyph unicode="&#xab;" horiz-adv-x="1191" d="M39 377l529 372h16l46 -46q-10 -12 -121 -90q-87 -65 -263 -188q-28 -14 -72 -53h5l451 -314v-10q-28 -12 -51 -48l-41 15q-36 -51 -36 -167q0 -34 2.5 -97t2.5 -92h-15v204q-9 19 -9 41q0 14 3.5 39t3.5 38q0 22 -29 103l-10 5q-23 -10 -29.5 -16t-11.5 -25 q-2 3 -62 114q-34 29 -160 101q-106 58 -149 114zM384 -142q20 38 20 116q24 -46 24 -126q0 -24 -3 -43l-31 -5q-10 21 -10 58zM425 377l529 372h15l46 -46q-11 -12 -121 -90q-87 -65 -264 -188q-28 -14 -72 -53h5l452 -314v-10q-27 -12 -51 -48l-128 89q-34 -17 -34 -57 q0 -13 4.5 -39.5t4.5 -40.5q0 -22 -2.5 -65.5t-2.5 -65.5q0 -58 5 -161q5 -111 5 -158q-14 -9 -31 -11l-10 6v105q-10 24 -10 62q0 32 8.5 98.5t8.5 99.5q0 237 -17 269q-23 43 -159 120q-147 84 -181 126z" />
<glyph unicode="&#xad;" horiz-adv-x="724" d="M92 761l4 79h477q14 -14 23 -92h-65q-53 -77 -53 -231q0 -37 5 -109.5t5 -107.5l-22 -8l-5 87q13 29 13 104q0 203 -39 247h-8q-40 -49 -40 -216q0 -60 11.5 -180.5t11.5 -179.5q0 -28 -6 -50l-25 -8q-9 25 -9 47q0 17 8.5 48t8.5 48q0 19 -8.5 56.5t-8.5 56.5 q0 27 6 80.5t6 81.5q0 18 -2.5 53t-2.5 54q0 118 -60 135l-34 -8q-47 -69 -47 -226q0 -54 5 -158q6 -110 6 -159l-20 -5v117q0 26 4.5 79t4.5 78q0 255 -48 282h-45q-34 0 -51 5z" />
<glyph unicode="&#xaf;" horiz-adv-x="1625" d="M299 1314v51h1024v-51h-1024z" />
<glyph unicode="&#xb0;" horiz-adv-x="1017" d="M230 1091q0 70 36 136.5t94 100.5q38 10 113 37h3q120 0 207 -71q94 -77 94 -193q0 -74 -41 -137q-19 -29 -77 -88q-41 -43 -41 -67q0 -17 3 -44q4 -33 4 -45v-119q0 -45 3 -82l-17 -7l-5 20q10 19 10 62q0 20 -6 61t-6 62q0 13 3.5 39.5t3.5 40.5t-3 27q-16 11 -31 12 l-7 -3l-27 -39q12 -96 12 -105q0 -18 -3.5 -55.5t-3.5 -56.5q0 -38 3 -114l-12 -4q-10 14 -10 51q0 14 1.5 38.5t4.5 35t3 24.5q0 12 -4.5 37.5t-4.5 37.5q0 15 4.5 45.5t4.5 46.5q0 49 -48 49h-4q-10 -17 -15 -56t-14 -56q0 119 -53 128q-22 -31 -22 -79q0 -5 5 -90 q-10 -7 -20 -7q-7 14 -7 29q9 17 9 55q0 92 -23 126q-116 68 -116 217zM317 1097q0 -46 21 -90q26 -53 66 -60q21 22 21 60q0 24 -4.5 71t-4.5 71q0 10 5.5 28t5.5 28q0 29 -29 41q-81 -75 -81 -149zM433 1210q0 -14 6 -42t6 -42q0 -25 -4 -73.5t-4 -74.5q0 -60 39 -63 q10 -5 29 -5q68 0 123 58t55 126q0 77 -58 137q-31 -16 -31 -59q0 -15 4 -41.5t4 -38.5l-13 -3l-2 27q9 16 9 50q0 95 -45 102q-17 -17 -17 -73q0 -34 2 -96q3 -66 3 -95l-18 -4v7q-7 15 -7 41q0 19 6 57t6 57q0 48 -12 106q-12 9 -38 9q-7 0 -12 -2q-31 -50 -31 -65z M447 616v26q0 3 10 51q16 -29 16 -82q0 -7 -4 -19q-5 -5 -15 -7q-7 14 -7 31z" />
<glyph unicode="&#xb1;" horiz-adv-x="1251" d="M92 756v87h500v509h91v-509h505v-87l-96 -8q-34 -67 -30 -178h-18l-5 17q17 31 17 62q0 44 -28 75.5t-71 31.5q-20 -32 -29 -99q-10 -72 -23 -101q1 113 -48 200q-24 -12 -53 -43l5 -152h-22q-4 64 -4 147q-5 12 -44 48h-56v-500h-91v500h-153q-26 -48 -26 -90 q0 -14 4.5 -42t4.5 -42q0 -29 -15.5 -84.5t-15.5 -84.5q0 -19 6.5 -56.5t6.5 -56.5q0 -20 -3 -39h-19v113q9 15 9 34q0 25 -14.5 74t-14.5 74q0 19 4 56.5t4 56.5q0 87 -109 87q-43 -55 -43 -73q0 -11 2 -30.5t2 -30.5t4 -32.5t4 -33.5q0 -27 -12 -47q-1 6 -1 10 q0 17 2.5 53t2.5 53q0 6 -2 20t-2 21q0 90 -126 90zM200 247l18 192q26 -46 26 -144q0 -106 -26 -155q0 15 -10 51t-8 56zM227 14l3 78h760q14 -13 22 -92h-65q-53 -77 -53 -230q0 -38 5.5 -110.5t5.5 -106.5l-23 -9l-5 87q14 29 14 104q0 204 -39 248h-291 q-39 -50 -39 -217q0 -60 11 -180t11 -180q0 -27 -5 -49l-25 -9q-9 26 -9 48q0 17 8.5 47.5t8.5 47.5q0 19 -8.5 56.5t-8.5 56.5q0 27 6 81t6 81q0 19 -2.5 54t-2.5 54q0 117 -60 135l-34 -9q-48 -68 -48 -225q0 -55 5 -159q7 -109 7 -159l-20 -5v118q0 26 4 78.5t4 78.5 q0 254 -47 282h-45q-34 0 -51 5zM891 126l14 408q8 -17 8 -51q0 -15 -4 -47.5t-4 -48.5q0 -5 5 -30q8 -43 8 -92v-144l-22 -8z" />
<glyph unicode="&#xb4;" horiz-adv-x="492" d="M26 1468v8q47 82 160 231q32 24 96 73h58l25 -31q-5 -56 -76.5 -127t-71.5 -154q0 -41 11 -119.5t11 -119.5q0 -24 -9 -41l-25 -12q-19 32 -19 99q27 46 27 131q0 104 -30 152q-21 -22 -74 -52t-83 -38z" />
<glyph unicode="&#xb7;" horiz-adv-x="461" d="M116 717q0 61 84 118h13q75 0 103 -43q22 -33 22 -109q-75 -84 -84 -106q-13 -31 -12 -130l-25 -8q-12 24 -14 66q0 53 -3.5 69.5t-45.5 62.5q-38 39 -38 80z" />
<glyph unicode="&#xbb;" horiz-adv-x="1191" d="M203 58q109 79 329 230q36 21 70 41q45 28 58 55l-457 314l46 53h16l529 -372q-11 -10 -103 -75l-232 -162l-41 -130q-2 27 -36 61h-10q-34 -114 -34 -319q0 -75 14 -356l-31 -11q-10 19 -10 41q13 28 13 79q0 17 -1.5 48.5t-1.5 48.5q0 41 4 123t4 123q0 101 -20 133 q-10 17 -47.5 28t-58.5 47zM398 -309q20 39 20 137q24 -50 24 -140q0 -17 -3 -38l-31 -7q-10 21 -10 48zM589 58q107 79 327 230q36 21 70 41q45 28 58 55l-455 314l46 53h15l529 -372q-42 -44 -167 -120q-131 -78 -181 -126q-85 -78 -85 -172q0 -31 5 -80q5 -60 7 -79 l-10 -5q-19 5 -21 26q15 32 15 109q0 102 -51 106q-29 -33 -44 -33q-10 0 -58 53z" />
<glyph unicode="&#xbf;" horiz-adv-x="942" d="M166 200q0 165 114 244q44 30 135 48q71 11 143 25q41 60 43 188h39l9 -5l25 -282q0 -7 11 -19t11 -20q0 -22 -30 -62v-116q0 -35 -10.5 -107t-10.5 -108q0 -87 31 -124q8 -9 60 -38q30 -17 30 -60q0 -40 -46 -66q-41 -19 -80 -38q-9 -27 -9 -82q0 -29 4.5 -87t4.5 -87 q0 -73 -26 -121v120q0 211 -39 285l-44 8q-51 -37 -51 -153q0 -40 8.5 -113t8.5 -108l-26 -13l-14 8v113q14 27 14 87q0 51 -10 121q-14 89 -33.5 108.5t-64 45t-61.5 41t-36 46.5q-100 157 -100 321zM241 79q0 -94 56 -127v5q31 29 34 99q2 86 14 110l3 -79q0 61 9 79 l18 -127q-25 -13 -22 -30l40 -166q47 -26 112 -26q22 0 96 9q39 61 39 239q0 167 -31 278l-59 5q-53 -46 -53 -234v-123q0 -64 13 -139l-5 -9l-8 9q-9 18 -9 27q0 53 4.5 156t4.5 156q0 126 -53 149l-43 -14l-44 -82l-4 3q-8 -10 -13 -25q-7 41 -57 43q-42 -77 -42 -186z M514 927q0 39 13 87l48 39q14 3 26 3q20 0 73 -17q39 -51 39 -104q0 -92 -126 -92q-73 56 -73 84zM579 -905q0 26 15 64q17 44 20 63q38 -65 40 -157q-24 -17 -48 -17q-27 25 -27 47z" />
<glyph unicode="&#xc0;" d="M36 5v26q82 10 197 42q47 35 92 157q31 91 60 183q117 317 351 952q22 4 67 9q148 -333 351 -917q31 -100 62 -201q46 -143 87 -174q12 -9 88 -24q58 -10 67 -53l-3 -5h-53l-40 -48q2 -22 7 -116q5 -72 5 -116q0 -107 -23 -155q-2 41 -14 141q-10 91 -10 142q0 17 4 50.5 t4 50.5q0 15 -3 29q-16 17 -38 22q-24 -36 -27 -94q2 27 2 -101q0 -52 -14 -75h-5v103q0 80 -14 114q-22 58 -102 58h-19l-39 -66q5 -91 5 -108q0 -27 -11 -82.5t-11 -83.5q0 -17 9 -50t9 -50q0 -12 -1 -22q-16 -7 -31 -7t-20 17q32 95 32 135q0 66 -14 167q-17 126 -41 150 h-87q-1 15 -8 29q60 5 118 10q85 14 85 57q0 34 -62 204q-49 140 -81 217q-33 -29 -40 -53h-3q-10 128 -96 127q-39 -62 -39 -192q0 -58 11 -171.5t11 -167.5q-12 -5 -24 -5q-29 0 -29 107q0 57 5 89q9 55 9 61q0 185 -44 274q-38 -36 -38 -77q0 -24 5 -62q5 -46 7 -61 l-34 -4l-5 60q13 24 13 55q0 87 -92 94q-63 -94 -63 -171v-21q2 -13 2 -20t-2 -20v-19q0 -28 19 -77.5t19 -76.5q-21 -14 -48 -14q-4 2 -14 6q-7 20 -8 42q32 53 32 120q0 5 -1.5 17t-1.5 17q0 8 1.5 22.5t1.5 23.5q0 48 -32 84h-4q-39 -69 -83.5 -222.5t-47.5 -230.5h13 q50 -25 183 -22q10 -14 12 -29l-143 -5q-26 -58 -31 -140v-145q0 -92 -21 -137q-29 161 -29 190q0 22 3.5 66.5t3.5 66.5q0 101 -61 104l-48 -70q5 -107 5 -126q0 -27 -5 -96q-5 -59 -3 -95h-9l-8 3q6 24 6 55q0 29 -20 128q15 82 15 119q0 92 -181 82zM357 -579 q0 -10 10 70l18 -92q-7 -3 -23 -8v5q-5 10 -5 25zM533 652l3 -3q82 -11 157 -11q41 0 113 2q82 3 113 3v17q-55 118 -144 362q-18 74 -20 74q-14 42 -39 65q-19 -74 -99 -253q-70 -157 -84 -256zM563 1710v39l28 31h23q38 0 67 -14q41 -18 125 -136q78 -109 97 -162h-17 q-36 42 -92 51q-29 -53 -29 -215q0 -73 12 -341l-26 -9q-10 26 -10 72v27q1 20 1 27q18 38 18 121q0 318 -43 383q-15 22 -72 63q-68 51 -82 63zM902 335l22 52q19 -30 22 -75q-7 -3 -19 -8q-24 10 -25 31z" />
<glyph unicode="&#xc1;" d="M36 5v26q82 10 197 42q47 35 92 157q31 91 60 183q117 317 351 952q22 4 67 9q148 -333 351 -917q31 -100 62 -201q46 -143 87 -174q12 -9 88 -24q58 -10 67 -53l-3 -5h-53l-40 -48q2 -22 7 -116q5 -72 5 -116q0 -107 -23 -155q-2 41 -14 141q-10 91 -10 142q0 17 4 50.5 t4 50.5q0 15 -3 29q-16 17 -38 22q-24 -36 -27 -94q2 27 2 -101q0 -52 -14 -75h-5v103q0 80 -14 114q-22 58 -102 58h-19l-39 -66q5 -91 5 -108q0 -27 -11 -82.5t-11 -83.5q0 -17 9 -50t9 -50q0 -12 -1 -22q-16 -7 -31 -7t-20 17q32 95 32 135q0 66 -14 167q-17 126 -41 150 h-87q-1 15 -8 29q60 5 118 10q85 14 85 57q0 34 -62 204q-49 140 -81 217q-33 -29 -40 -53h-3q-10 128 -96 127q-39 -62 -39 -192q0 -58 11 -171.5t11 -167.5q-12 -5 -24 -5q-29 0 -29 107q0 57 5 89q9 55 9 61q0 185 -44 274q-38 -36 -38 -77q0 -24 5 -62q5 -46 7 -61 l-34 -4l-5 60q13 24 13 55q0 87 -92 94q-63 -94 -63 -171v-21q2 -13 2 -20t-2 -20v-19q0 -28 19 -77.5t19 -76.5q-21 -14 -48 -14q-4 2 -14 6q-7 20 -8 42q32 53 32 120q0 5 -1.5 17t-1.5 17q0 8 1.5 22.5t1.5 23.5q0 48 -32 84h-4q-39 -69 -83.5 -222.5t-47.5 -230.5h13 q50 -25 183 -22q10 -14 12 -29l-143 -5q-26 -58 -31 -140v-145q0 -92 -21 -137q-29 161 -29 190q0 22 3.5 66.5t3.5 66.5q0 101 -61 104l-48 -70q5 -107 5 -126q0 -27 -5 -96q-5 -59 -3 -95h-9l-8 3q6 24 6 55q0 29 -20 128q15 82 15 119q0 92 -181 82zM357 -579 q0 -10 10 70l18 -92q-7 -3 -23 -8v5q-5 10 -5 25zM533 652l3 -3q82 -11 157 -11q41 0 113 2q82 3 113 3v17q-55 118 -144 362q-18 74 -20 74q-14 42 -39 65q-19 -74 -99 -253q-70 -157 -84 -256zM555 1468v8q47 82 160 231q32 24 96 73h58l25 -31q-5 -56 -76.5 -127 t-71.5 -154q0 -41 11 -119.5t11 -119.5q0 -24 -9 -41l-25 -12q-19 32 -19 99q27 46 27 131q0 104 -30 152q-21 -22 -74 -52t-83 -38zM902 335l22 52q19 -30 22 -75q-7 -3 -19 -8q-24 10 -25 31z" />
<glyph unicode="&#xc2;" d="M36 5v26q82 10 197 42q47 35 92 157q31 91 60 183q117 317 351 952q22 4 67 9q148 -333 351 -917q31 -100 62 -201q46 -143 87 -174q12 -9 88 -24q58 -10 67 -53l-3 -5h-53l-40 -48q2 -22 7 -116q5 -72 5 -116q0 -107 -23 -155q-2 41 -14 141q-10 91 -10 142q0 17 4 50.5 t4 50.5q0 15 -3 29q-16 17 -38 22q-24 -36 -27 -94q2 27 2 -101q0 -52 -14 -75h-5v103q0 80 -14 114q-22 58 -102 58h-19l-39 -66q5 -91 5 -108q0 -27 -11 -82.5t-11 -83.5q0 -17 9 -50t9 -50q0 -12 -1 -22q-16 -7 -31 -7t-20 17q32 95 32 135q0 66 -14 167q-17 126 -41 150 h-87q-1 15 -8 29q60 5 118 10q85 14 85 57q0 34 -62 204q-49 140 -81 217q-33 -29 -40 -53h-3q-10 128 -96 127q-39 -62 -39 -192q0 -58 11 -171.5t11 -167.5q-12 -5 -24 -5q-29 0 -29 107q0 57 5 89q9 55 9 61q0 185 -44 274q-38 -36 -38 -77q0 -24 5 -62q5 -46 7 -61 l-34 -4l-5 60q13 24 13 55q0 87 -92 94q-63 -94 -63 -171v-21q2 -13 2 -20t-2 -20v-19q0 -28 19 -77.5t19 -76.5q-21 -14 -48 -14q-4 2 -14 6q-7 20 -8 42q32 53 32 120q0 5 -1.5 17t-1.5 17q0 8 1.5 22.5t1.5 23.5q0 48 -32 84h-4q-39 -69 -83.5 -222.5t-47.5 -230.5h13 q50 -25 183 -22q10 -14 12 -29l-143 -5q-26 -58 -31 -140v-145q0 -92 -21 -137q-29 161 -29 190q0 22 3.5 66.5t3.5 66.5q0 101 -61 104l-48 -70q5 -107 5 -126q0 -27 -5 -96q-5 -59 -3 -95h-9l-8 3q6 24 6 55q0 29 -20 128q15 82 15 119q0 92 -181 82zM357 -579 q0 -10 10 70l18 -92q-7 -3 -23 -8v5q-5 10 -5 25zM524 1512l331 396q23 -14 99 -118q81 -92 239 -278q-20 -22 -47 -44q-31 27 -98 107l-193 232l-283 -339h-5zM533 652l3 -3q82 -11 157 -11q41 0 113 2q82 3 113 3v17q-55 118 -144 362q-18 74 -20 74q-14 42 -39 65 q-19 -74 -99 -253q-70 -157 -84 -256zM902 335l22 52q19 -30 22 -75q-7 -3 -19 -8q-24 10 -25 31z" />
<glyph unicode="&#xc3;" d="M36 5v26q82 10 197 42q47 35 92 157q31 91 60 183q117 317 351 952q22 4 67 9q148 -333 351 -917q31 -100 62 -201q46 -143 87 -174q12 -9 88 -24q58 -10 67 -53l-3 -5h-53l-40 -48q2 -22 7 -116q5 -72 5 -116q0 -107 -23 -155q-2 41 -14 141q-10 91 -10 142q0 17 4 50.5 t4 50.5q0 15 -3 29q-16 17 -38 22q-24 -36 -27 -94q2 27 2 -101q0 -52 -14 -75h-5v103q0 80 -14 114q-22 58 -102 58h-19l-39 -66q5 -91 5 -108q0 -27 -11 -82.5t-11 -83.5q0 -17 9 -50t9 -50q0 -12 -1 -22q-16 -7 -31 -7t-20 17q32 95 32 135q0 66 -14 167q-17 126 -41 150 h-87q-1 15 -8 29q60 5 118 10q85 14 85 57q0 34 -62 204q-49 140 -81 217q-33 -29 -40 -53h-3q-10 128 -96 127q-39 -62 -39 -192q0 -58 11 -171.5t11 -167.5q-12 -5 -24 -5q-29 0 -29 107q0 57 5 89q9 55 9 61q0 185 -44 274q-38 -36 -38 -77q0 -24 5 -62q5 -46 7 -61 l-34 -4l-5 60q13 24 13 55q0 87 -92 94q-63 -94 -63 -171v-21q2 -13 2 -20t-2 -20v-19q0 -28 19 -77.5t19 -76.5q-21 -14 -48 -14q-4 2 -14 6q-7 20 -8 42q32 53 32 120q0 5 -1.5 17t-1.5 17q0 8 1.5 22.5t1.5 23.5q0 48 -32 84h-4q-39 -69 -83.5 -222.5t-47.5 -230.5h13 q50 -25 183 -22q10 -14 12 -29l-143 -5q-26 -58 -31 -140v-145q0 -92 -21 -137q-29 161 -29 190q0 22 3.5 66.5t3.5 66.5q0 101 -61 104l-48 -70q5 -107 5 -126q0 -27 -5 -96q-5 -59 -3 -95h-9l-8 3q6 24 6 55q0 29 -20 128q15 82 15 119q0 92 -181 82zM357 -579 q0 -10 10 70l18 -92q-7 -3 -23 -8v5q-5 10 -5 25zM533 652l3 -3q82 -11 157 -11q41 0 113 2q82 3 113 3v17q-55 118 -144 362q-18 74 -20 74q-14 42 -39 65q-19 -74 -99 -253q-70 -157 -84 -256zM535 1468q-2 65 37 108.5t103 43.5q63 0 169.5 -52t159.5 -52q106 0 114 104 h26q-7 -99 -79 -144l-25 -82q0 40 -14 52q-2 1 -48 22l-17 -21v-118h-17q-5 12 -5 26q9 15 9 53q0 75 -43 77q-15 -41 -15 -149q0 -63 6 -158l-5 -11l-8 5l-5 9q12 24 12 85v156q0 70 -47 90l-17 -17v-275q-8 0 -17 -5q-5 10 -5 31v5q14 27 14 116q0 172 -56 176 q-19 -22 -19 -27q0 -16 2.5 -46t2.5 -45l-22 -8q-2 11 -12 34l-9 -4q-12 26 -10 86l-26 35q-39 -30 -39 -121v-15v-63q0 -14 8.5 -38.5t8.5 -36.5q-7 -4 -25 -4q-9 16 -9 31q17 27 17 104q0 68 -12 113q-10 5 -22 8q-10 -27 -34 -78h-27zM715 1490q0 -10 7 -22q0 3 2 11 t2 13v18q0 11 -9 19q0 -3 -2 -13v-12v-14zM902 335l22 52q19 -30 22 -75q-7 -3 -19 -8q-24 10 -25 31zM1026 1260q5 11 14 104q12 -21 12 -57v-100q-9 -7 -17 -9l-4 5z" />
<glyph unicode="&#xc4;" d="M36 5v26q82 10 197 42q47 35 92 157q31 91 60 183q117 317 351 952q22 4 67 9q148 -333 351 -917q31 -100 62 -201q46 -143 87 -174q12 -9 88 -24q58 -10 67 -53l-3 -5h-53l-40 -48q2 -22 7 -116q5 -72 5 -116q0 -107 -23 -155q-2 41 -14 141q-10 91 -10 142q0 17 4 50.5 t4 50.5q0 15 -3 29q-16 17 -38 22q-24 -36 -27 -94q2 27 2 -101q0 -52 -14 -75h-5v103q0 80 -14 114q-22 58 -102 58h-19l-39 -66q5 -91 5 -108q0 -27 -11 -82.5t-11 -83.5q0 -17 9 -50t9 -50q0 -12 -1 -22q-16 -7 -31 -7t-20 17q32 95 32 135q0 66 -14 167q-17 126 -41 150 h-87q-1 15 -8 29q60 5 118 10q85 14 85 57q0 34 -62 204q-49 140 -81 217q-33 -29 -40 -53h-3q-10 128 -96 127q-39 -62 -39 -192q0 -58 11 -171.5t11 -167.5q-12 -5 -24 -5q-29 0 -29 107q0 57 5 89q9 55 9 61q0 185 -44 274q-38 -36 -38 -77q0 -24 5 -62q5 -46 7 -61 l-34 -4l-5 60q13 24 13 55q0 87 -92 94q-63 -94 -63 -171v-21q2 -13 2 -20t-2 -20v-19q0 -28 19 -77.5t19 -76.5q-21 -14 -48 -14q-4 2 -14 6q-7 20 -8 42q32 53 32 120q0 5 -1.5 17t-1.5 17q0 8 1.5 22.5t1.5 23.5q0 48 -32 84h-4q-39 -69 -83.5 -222.5t-47.5 -230.5h13 q50 -25 183 -22q10 -14 12 -29l-143 -5q-26 -58 -31 -140v-145q0 -92 -21 -137q-29 161 -29 190q0 22 3.5 66.5t3.5 66.5q0 101 -61 104l-48 -70q5 -107 5 -126q0 -27 -5 -96q-5 -59 -3 -95h-9l-8 3q6 24 6 55q0 29 -20 128q15 82 15 119q0 92 -181 82zM357 -579 q0 -10 10 70l18 -92q-7 -3 -23 -8v5q-5 10 -5 25zM533 652l3 -3q82 -11 157 -11q41 0 113 2q82 3 113 3v17q-55 118 -144 362q-18 74 -20 74q-14 42 -39 65q-19 -74 -99 -253q-70 -157 -84 -256zM632 1565q0 61 83 118h14q75 0 103 -43q22 -32 22 -109q-75 -84 -84 -106 q-14 -31 -12 -130l-25 -8q-12 24 -14 66q0 53 -3.5 69.5t-46.5 62.5q-37 39 -37 80zM902 335l22 52q19 -30 22 -75q-7 -3 -19 -8q-24 10 -25 31zM1099 1577q0 55 88 113l78 -9q56 -60 56 -104q0 -48 -70 -109h-17q-49 0 -92 30.5t-43 78.5z" />
<glyph unicode="&#xc5;" d="M36 5v26q82 10 197 42q47 35 92 157q31 91 60 183q117 317 351 952q22 4 67 9q148 -333 351 -917q31 -100 62 -201q46 -143 87 -174q12 -9 88 -24q58 -10 67 -53l-3 -5h-53l-40 -48q2 -22 7 -116q5 -72 5 -116q0 -107 -23 -155q-2 41 -14 141q-10 91 -10 142q0 17 4 50.5 t4 50.5q0 15 -3 29q-16 17 -38 22q-24 -36 -27 -94q2 27 2 -101q0 -52 -14 -75h-5v103q0 80 -14 114q-22 58 -102 58h-19l-39 -66q5 -91 5 -108q0 -27 -11 -82.5t-11 -83.5q0 -17 9 -50t9 -50q0 -12 -1 -22q-16 -7 -31 -7t-20 17q32 95 32 135q0 66 -14 167q-17 126 -41 150 h-87q-1 15 -8 29q60 5 118 10q85 14 85 57q0 34 -62 204q-49 140 -81 217q-33 -29 -40 -53h-3q-10 128 -96 127q-39 -62 -39 -192q0 -58 11 -171.5t11 -167.5q-12 -5 -24 -5q-29 0 -29 107q0 57 5 89q9 55 9 61q0 185 -44 274q-38 -36 -38 -77q0 -24 5 -62q5 -46 7 -61 l-34 -4l-5 60q13 24 13 55q0 87 -92 94q-63 -94 -63 -171v-21q2 -13 2 -20t-2 -20v-19q0 -28 19 -77.5t19 -76.5q-21 -14 -48 -14q-4 2 -14 6q-7 20 -8 42q32 53 32 120q0 5 -1.5 17t-1.5 17q0 8 1.5 22.5t1.5 23.5q0 48 -32 84h-4q-39 -69 -83.5 -222.5t-47.5 -230.5h13 q50 -25 183 -22q10 -14 12 -29l-143 -5q-26 -58 -31 -140v-145q0 -92 -21 -137q-29 161 -29 190q0 22 3.5 66.5t3.5 66.5q0 101 -61 104l-48 -70q5 -107 5 -126q0 -27 -5 -96q-5 -59 -3 -95h-9l-8 3q6 24 6 55q0 29 -20 128q15 82 15 119q0 92 -181 82zM357 -579 q0 -10 10 70l18 -92q-7 -3 -23 -8v5q-5 10 -5 25zM533 652l3 -3q82 -11 157 -11q41 0 113 2q82 3 113 3v17q-55 118 -144 362q-18 74 -20 74q-14 42 -39 65q-19 -74 -99 -253q-70 -157 -84 -256zM623 1734q0 70 36 135.5t94 101.5q38 10 113 38h3q120 0 207 -72 q94 -77 94 -193q0 -73 -41 -136q-19 -29 -77 -89q-41 -43 -41 -67q0 -17 3 -44q4 -32 4 -44v-120q0 -44 3 -82l-17 -7l-5 21q10 19 10 61q0 21 -6 62t-6 61q0 14 3.5 40.5t3.5 39.5q0 14 -3 28q-16 10 -31 12l-7 -4l-27 -39q12 -96 12 -104q0 -19 -3.5 -56.5t-3.5 -56.5 q0 -37 3 -114l-12 -3q-10 13 -10 51q0 13 1.5 38t4.5 35t3 24q0 12 -4.5 37.5t-4.5 37.5q0 15 4.5 46t4.5 46q0 50 -48 50h-4q-10 -17 -15 -56.5t-14 -56.5q0 120 -53 128q-22 -31 -22 -78q0 -6 5 -91q-10 -7 -20 -7q-7 14 -7 29q9 17 9 55q0 92 -23 126q-116 68 -116 217z M710 1741q0 -46 21 -91q26 -53 66 -59q21 22 21 59q0 24 -4.5 71t-4.5 71q0 10 5.5 28t5.5 28q0 29 -29 41q-81 -75 -81 -148zM826 1853q0 -13 6 -41.5t6 -41.5q0 -26 -4 -74.5t-4 -74.5q0 -59 39 -63q10 -5 29 -5q68 0 123 58t55 126q0 77 -58 137q-31 -15 -31 -58 q0 -15 4 -41.5t4 -38.5l-13 -4l-2 28q9 15 9 49q0 96 -45 102q-17 -17 -17 -73q0 -34 2 -95q3 -67 3 -96l-18 -3v6q-7 16 -7 41q0 19 6 57.5t6 57.5q0 47 -12 105q-12 9 -38 9q-7 0 -12 -2q-31 -49 -31 -65zM840 1260v25q0 4 10 51q16 -29 16 -82q0 -6 -4 -18q-5 -5 -15 -7 q-7 13 -7 31zM902 335l22 52q19 -30 22 -75q-7 -3 -19 -8q-24 10 -25 31z" />
<glyph unicode="&#xc6;" horiz-adv-x="2521" d="M87 5v26q82 10 196 42q48 33 92 157q31 91 60 183q118 317 352 952q22 4 66 9q145 -324 352 -917q29 -109 107 -319q4 48 4 137q0 66 -3.5 199.5t-3.5 199.5v159q2 106 2 159q0 153 -11 278q-25 24 -51 24q-44 0 -51 -81q-5 -90 -27 -104q0 62 -9 161q-25 17 -65 65l9 17 h26l1112 -4q9 -22 9 -65q-14 -29 -14 -83q0 -55 14 -147l-21 -5l-8 5q-55 213 -140 234q-48 -72 -48 -208q0 -58 14 -110q41 -20 49 -29q19 -17 19 -53q-12 -29 -12 -85q0 -65 9 -182q10 -125 12 -181l-30 -4q-13 53 -27 106q-22 72 -56 80q-22 -20 -22 -63q0 -31 12 -84 q13 -59 15 -83q-14 -7 -31 -9l-13 14q17 89 17 174q0 34 -4 73q-36 40 -92 40q-41 -72 -41 -236q0 -51 6 -151t6 -148l-22 -8q-17 55 -17 99q0 49 10 149t10 150q0 124 -56 140q-41 -58 -43 -164q2 46 2 51q0 116 -77 118q-20 -33 -42 -57q-14 9 -31 9q-17 -38 -17 -101 q0 -44 10 -121q10 -85 12 -121l-31 -14q-15 38 -15 121v57q0 22 6 63.5t6 64.5q0 94 -80 94q-4 -340 -4 -530q0 -17 17 -66q21 -10 60 -10q51 0 61 -2q117 -17 190 -17q307 0 389 60q31 22 90 140q52 107 93 117l8 -5v-17q-32 -53 -41 -159q-10 -145 -15 -167l-135 -5 q-36 -55 -36 -176v-53q2 -34 2 -51q0 -106 -26 -159q-18 204 -18 239q0 26 5 76.5t5 75.5q0 24 -40 45l-35 -45l22 -230q-16 -10 -34 -14l-5 127q10 23 10 58q0 41 -10 76q-35 24 -135 31q-43 -61 -43 -203q0 -24 2 -73.5t2 -73.5q0 -65 -9 -114l-31 -10q-10 17 -12 35 q17 41 17 221q0 177 -44 206q-36 -87 -36 -242q0 -33 8.5 -99.5t8.5 -98.5q0 -19 -12 -52.5t-12 -51.5q0 -12 12 -113l-20 -5l-5 31q12 22 12 47q0 24 -12 72t-12 72q0 46 12 138t12 138q0 174 -103 173q-63 -86 -63 -137q0 -20 7.5 -57.5t7.5 -58.5q0 -15 -6.5 -43.5 t-6.5 -43.5q0 -26 12 -76t12 -76q0 -51 -24 -75h-17v26q0 47 5 144.5t5 145.5q0 210 -63 242v-5q-19 -39 -60 -118q-5 62 -22 92l-19 -22q2 -22 7 -116q5 -72 5 -116q0 -107 -24 -155q-2 41 -13 141q-11 91 -11 142q0 17 4.5 50.5t4.5 50.5q0 15 -4 29q-15 17 -37 22 q-27 -41 -27 -116v-39q1 -26 1 -40q0 -41 -8 -63q7 -66 7 -104q0 -19 -4 -37q-15 -5 -34 -5v8q-10 27 -10 75q0 39 6 117t6 117q0 65 -28 80q-18 12 -88 12l-40 -66q6 -89 6 -108q0 -27 -11.5 -82.5t-11.5 -83.5q0 -17 9.5 -50t9.5 -50q0 -12 -2 -22q-15 -7 -30 -7 q-16 0 -21 17q33 95 33 135q0 66 -14 167q-17 126 -41 150h-87q-2 15 -9 29q60 5 118 10q86 14 86 57q0 80 -144 421q-31 -27 -39 -53h-3q-11 128 -96 127q-39 -62 -39 -192q0 -58 11 -171.5t11 -167.5q-12 -5 -24 -5q-29 0 -29 107q0 57 5 89q9 55 9 61q0 183 -45 274 q-37 -36 -37 -77q0 -24 5 -62q5 -46 7 -61l-34 -4l-6 60q14 26 14 55q0 89 -92 94q-63 -94 -63 -171v-21q1 -13 1 -20t-1 -20v-19q0 -28 18.5 -77.5t18.5 -76.5q-20 -14 -48 -14l-13 6q-7 20 -9 42q33 53 33 120q0 5 -2 17t-2 17q0 8 2 22.5t2 23.5q0 48 -33 84h-3 q-39 -70 -83.5 -222t-48.5 -231h14q51 -25 183 -22q10 -14 12 -29l-144 -5q-25 -58 -30 -140v-145q0 -92 -21 -137q-29 161 -29 190q0 22 3.5 66.5t3.5 66.5q0 101 -61 104l-48 -70q5 -107 5 -126q0 -27 -5 -96q-5 -59 -4 -95h-8l-9 3q7 24 7 55q0 29 -20 128q15 82 15 119 q0 94 -181 82zM408 -579q0 -10 10 70l17 -92q-7 -3 -22 -8v5q-5 10 -5 25zM584 652l3 -3q82 -11 157 -11q41 0 113 2q82 3 112 3v17q-54 118 -143 362q-19 70 -20 74q-14 41 -40 65q-18 -74 -99 -253q-70 -157 -83 -256zM952 335l23 52q18 -30 22 -75q-7 -3 -19 -8 q-24 10 -26 31zM1444 -601l10 53q3 -24 12 -70h-17zM1480 1063q0 -58 3 -162q5 -114 5 -162l4 -3l97 -6q12 18 34 53l3 -10q52 -43 93 -43q24 12 64 12q28 0 81 -5t80 -5q82 0 104 55q7 17 19 126q-65 31 -65 70q20 34 20 106q0 60 -13 118q-21 82 -60 93q-48 -110 -48 -141 q0 -33 13 -94t13 -94q0 -43 -27 -43q-35 0 -35 36q0 9 2 19q22 39 22 109q0 72 -24 132q-32 78 -93 76l-31 -39v-5q0 -20 3.5 -60.5t3.5 -60.5q0 -15 -4 -31q-19 -8 -42 -8q-9 20 -9 65q5 13 5 29q0 27 -19 80h-8v-5q-29 -34 -31 -123q-2 -101 -17 -133q2 39 2 66 q0 219 -103 217q-42 -41 -42 -229zM2145 -457q4 -4 9 -12h-9v12z" />
<glyph unicode="&#xc8;" horiz-adv-x="1350" d="M99 5v34q72 5 208 40q11 75 11 196q0 66 -3.5 199.5t-3.5 199.5v159q1 106 1 159q0 153 -10 278q-25 24 -51 24q-44 0 -51 -81q-7 -90 -27 -104q0 62 -9 161q-26 17 -65 65l9 17h25l1113 -4q9 -22 9 -65q-14 -29 -14 -83q0 -55 14 -147l-21 -5l-8 5q-55 213 -140 234 q-48 -72 -48 -208q0 -58 13 -110q41 -20 50 -27q19 -17 19 -51v-4q-12 -29 -12 -85q0 -65 8 -182q11 -125 12 -181l-29 -4q-13 53 -27 106q-22 72 -56 80q-23 -20 -23 -63q0 -31 12 -84q14 -59 16 -83q-14 -7 -31 -9l-14 14q17 89 17 174q0 34 -3 73q-38 40 -92 40 q-41 -72 -41 -236q0 -51 6 -151t6 -148l-22 -8q-17 55 -17 99q0 49 10 149t10 150q0 124 -56 140q-38 -55 -41 -113q-2 116 -77 118q-20 -33 -43 -57q-13 9 -30 9q-17 -38 -17 -101q0 -44 10 -121q10 -85 12 -121l-31 -14q-15 38 -15 121v57q0 22 6 63.5t6 64.5q0 94 -81 94 q-3 -340 -3 -530q0 -17 17 -66q21 -10 60 -10q51 0 61 -2q116 -17 190 -17q307 0 389 60q31 22 90 140q53 107 92 117l9 -5v-17q-32 -53 -41 -159q-10 -143 -15 -167l-135 -5q-31 -46 -36 -135q2 19 2 -145q0 -106 -26 -159q-19 205 -19 239q0 26 5.5 76.5t5.5 75.5 q0 24 -40 45l-36 -45l23 -230q-16 -10 -35 -14l-5 127q11 23 11 58q0 41 -11 76q-34 24 -134 31q-43 -61 -43 -203q0 -24 1.5 -73.5t1.5 -73.5q0 -65 -8 -114l-31 -10q-10 17 -12 35q17 41 17 164q0 234 -44 263q-36 -87 -36 -242q0 -33 8.5 -99.5t8.5 -98.5 q0 -19 -12 -52.5t-12 -51.5q0 -12 12 -113l-20 -5l-6 31q12 22 12 47q0 24 -11.5 72t-11.5 72q0 46 11.5 138t11.5 138q0 174 -102 173q-63 -86 -63 -137q0 -20 7.5 -57.5t7.5 -58.5q0 -15 -6.5 -43.5t-6.5 -43.5q0 -26 11.5 -76t11.5 -76q0 -51 -23 -75h-18v26 q0 47 5.5 143t5.5 143q0 214 -63 246v-5q-19 -41 -60 -118q-10 132 -96 132q-13 0 -44 -14q-17 -22 -17 -80q0 -48 10 -141t10 -141q0 -19 -3 -37q-15 -5 -34 -5v8q-10 27 -10 75q0 39 5.5 118.5t5.5 118.5q0 72 -29 89h-155zM446 -601l10 53q3 -24 12 -70h-17zM481 1060 q0 -58 4 -161q5 -114 5 -160l3 -3l98 -6q12 18 34 53l3 -10q51 -43 92 -43q24 12 65 12q28 0 80.5 -5t80.5 -5q82 0 104 55q7 15 19 126q-65 31 -65 70q20 34 20 106q0 60 -13 118q-21 82 -60 93q-48 -110 -48 -141q0 -33 13 -94t13 -94q0 -43 -28 -43q-34 0 -34 36 q0 9 2 19q22 39 22 109q0 72 -24 132q-32 78 -94 76l-30 -39v-5q0 -20 3 -60.5t3 -60.5q0 -15 -3 -31q-19 -8 -43 -8q-8 18 -8 65q5 13 5 29q0 25 -19 80h-8v-5q-29 -34 -31 -123q-2 -101 -17 -133q2 41 2 66q0 219 -103 217q-43 -41 -43 -232zM522 1710v39l28 31h23 q38 0 67 -14q41 -18 125 -136q78 -109 97 -162h-17q-36 42 -92 51q-29 -53 -29 -215q0 -73 12 -341l-26 -9q-10 26 -10 72v27q1 20 1 27q18 38 18 121q0 318 -43 383q-15 22 -72 63q-68 51 -82 63zM751 514q0 30 2 51q0 -5 -2 -51zM1147 -457l9 -12h-9v12z" />
<glyph unicode="&#xc9;" horiz-adv-x="1350" d="M99 5v34q72 5 208 40q11 75 11 196q0 66 -3.5 199.5t-3.5 199.5v159q1 106 1 159q0 153 -10 278q-25 24 -51 24q-44 0 -51 -81q-7 -90 -27 -104q0 62 -9 161q-26 17 -65 65l9 17h25l1113 -4q9 -22 9 -65q-14 -29 -14 -83q0 -55 14 -147l-21 -5l-8 5q-55 213 -140 234 q-48 -72 -48 -208q0 -58 13 -110q41 -20 50 -27q19 -17 19 -51v-4q-12 -29 -12 -85q0 -65 8 -182q11 -125 12 -181l-29 -4q-13 53 -27 106q-22 72 -56 80q-23 -20 -23 -63q0 -31 12 -84q14 -59 16 -83q-14 -7 -31 -9l-14 14q17 89 17 174q0 34 -3 73q-38 40 -92 40 q-41 -72 -41 -236q0 -51 6 -151t6 -148l-22 -8q-17 55 -17 99q0 49 10 149t10 150q0 124 -56 140q-38 -55 -41 -113q-2 116 -77 118q-20 -33 -43 -57q-13 9 -30 9q-17 -38 -17 -101q0 -44 10 -121q10 -85 12 -121l-31 -14q-15 38 -15 121v57q0 22 6 63.5t6 64.5q0 94 -81 94 q-3 -340 -3 -530q0 -17 17 -66q21 -10 60 -10q51 0 61 -2q116 -17 190 -17q307 0 389 60q31 22 90 140q53 107 92 117l9 -5v-17q-32 -53 -41 -159q-10 -143 -15 -167l-135 -5q-31 -46 -36 -135q2 19 2 -145q0 -106 -26 -159q-19 205 -19 239q0 26 5.5 76.5t5.5 75.5 q0 24 -40 45l-36 -45l23 -230q-16 -10 -35 -14l-5 127q11 23 11 58q0 41 -11 76q-34 24 -134 31q-43 -61 -43 -203q0 -24 1.5 -73.5t1.5 -73.5q0 -65 -8 -114l-31 -10q-10 17 -12 35q17 41 17 164q0 234 -44 263q-36 -87 -36 -242q0 -33 8.5 -99.5t8.5 -98.5 q0 -19 -12 -52.5t-12 -51.5q0 -12 12 -113l-20 -5l-6 31q12 22 12 47q0 24 -11.5 72t-11.5 72q0 46 11.5 138t11.5 138q0 174 -102 173q-63 -86 -63 -137q0 -20 7.5 -57.5t7.5 -58.5q0 -15 -6.5 -43.5t-6.5 -43.5q0 -26 11.5 -76t11.5 -76q0 -51 -23 -75h-18v26 q0 47 5.5 143t5.5 143q0 214 -63 246v-5q-19 -41 -60 -118q-10 132 -96 132q-13 0 -44 -14q-17 -22 -17 -80q0 -48 10 -141t10 -141q0 -19 -3 -37q-15 -5 -34 -5v8q-10 27 -10 75q0 39 5.5 118.5t5.5 118.5q0 72 -29 89h-155zM446 -601l10 53q3 -24 12 -70h-17zM480 1468v8 q47 82 160 231q32 24 96 73h58l25 -31q-5 -56 -76.5 -127t-71.5 -154q0 -41 11 -119.5t11 -119.5q0 -24 -9 -41l-25 -12q-19 32 -19 99q27 46 27 131q0 104 -30 152q-21 -22 -74 -52t-83 -38zM481 1060q0 -58 4 -161q5 -114 5 -160l3 -3l98 -6q12 18 34 53l3 -10 q51 -43 92 -43q24 12 65 12q28 0 80.5 -5t80.5 -5q82 0 104 55q7 15 19 126q-65 31 -65 70q20 34 20 106q0 60 -13 118q-21 82 -60 93q-48 -110 -48 -141q0 -33 13 -94t13 -94q0 -43 -28 -43q-34 0 -34 36q0 9 2 19q22 39 22 109q0 72 -24 132q-32 78 -94 76l-30 -39v-5 q0 -20 3 -60.5t3 -60.5q0 -15 -3 -31q-19 -8 -43 -8q-8 18 -8 65q5 13 5 29q0 25 -19 80h-8v-5q-29 -34 -31 -123q-2 -101 -17 -133q2 41 2 66q0 219 -103 217q-43 -41 -43 -232zM751 514q0 30 2 51q0 -5 -2 -51zM1147 -457l9 -12h-9v12z" />
<glyph unicode="&#xca;" horiz-adv-x="1350" d="M99 5v34q72 5 208 40q11 75 11 196q0 66 -3.5 199.5t-3.5 199.5v159q1 106 1 159q0 153 -10 278q-25 24 -51 24q-44 0 -51 -81q-7 -90 -27 -104q0 62 -9 161q-26 17 -65 65l9 17h25l1113 -4q9 -22 9 -65q-14 -29 -14 -83q0 -55 14 -147l-21 -5l-8 5q-55 213 -140 234 q-48 -72 -48 -208q0 -58 13 -110q41 -20 50 -27q19 -17 19 -51v-4q-12 -29 -12 -85q0 -65 8 -182q11 -125 12 -181l-29 -4q-13 53 -27 106q-22 72 -56 80q-23 -20 -23 -63q0 -31 12 -84q14 -59 16 -83q-14 -7 -31 -9l-14 14q17 89 17 174q0 34 -3 73q-38 40 -92 40 q-41 -72 -41 -236q0 -51 6 -151t6 -148l-22 -8q-17 55 -17 99q0 49 10 149t10 150q0 124 -56 140q-38 -55 -41 -113q-2 116 -77 118q-20 -33 -43 -57q-13 9 -30 9q-17 -38 -17 -101q0 -44 10 -121q10 -85 12 -121l-31 -14q-15 38 -15 121v57q0 22 6 63.5t6 64.5q0 94 -81 94 q-3 -340 -3 -530q0 -17 17 -66q21 -10 60 -10q51 0 61 -2q116 -17 190 -17q307 0 389 60q31 22 90 140q53 107 92 117l9 -5v-17q-32 -53 -41 -159q-10 -143 -15 -167l-135 -5q-31 -46 -36 -135q2 19 2 -145q0 -106 -26 -159q-19 205 -19 239q0 26 5.5 76.5t5.5 75.5 q0 24 -40 45l-36 -45l23 -230q-16 -10 -35 -14l-5 127q11 23 11 58q0 41 -11 76q-34 24 -134 31q-43 -61 -43 -203q0 -24 1.5 -73.5t1.5 -73.5q0 -65 -8 -114l-31 -10q-10 17 -12 35q17 41 17 164q0 234 -44 263q-36 -87 -36 -242q0 -33 8.5 -99.5t8.5 -98.5 q0 -19 -12 -52.5t-12 -51.5q0 -12 12 -113l-20 -5l-6 31q12 22 12 47q0 24 -11.5 72t-11.5 72q0 46 11.5 138t11.5 138q0 174 -102 173q-63 -86 -63 -137q0 -20 7.5 -57.5t7.5 -58.5q0 -15 -6.5 -43.5t-6.5 -43.5q0 -26 11.5 -76t11.5 -76q0 -51 -23 -75h-18v26 q0 47 5.5 143t5.5 143q0 214 -63 246v-5q-19 -41 -60 -118q-10 132 -96 132q-13 0 -44 -14q-17 -22 -17 -80q0 -48 10 -141t10 -141q0 -19 -3 -37q-15 -5 -34 -5v8q-10 27 -10 75q0 39 5.5 118.5t5.5 118.5q0 72 -29 89h-155zM446 -601l10 53q3 -24 12 -70h-17zM472 1512 l331 396q23 -14 99 -118q81 -92 239 -278q-20 -22 -47 -44q-31 27 -98 107l-193 232l-283 -339h-5zM481 1060q0 -58 4 -161q5 -114 5 -160l3 -3l98 -6q12 18 34 53l3 -10q51 -43 92 -43q24 12 65 12q28 0 80.5 -5t80.5 -5q82 0 104 55q7 15 19 126q-65 31 -65 70 q20 34 20 106q0 60 -13 118q-21 82 -60 93q-48 -110 -48 -141q0 -33 13 -94t13 -94q0 -43 -28 -43q-34 0 -34 36q0 9 2 19q22 39 22 109q0 72 -24 132q-32 78 -94 76l-30 -39v-5q0 -20 3 -60.5t3 -60.5q0 -15 -3 -31q-19 -8 -43 -8q-8 18 -8 65q5 13 5 29q0 25 -19 80h-8v-5 q-29 -34 -31 -123q-2 -101 -17 -133q2 41 2 66q0 219 -103 217q-43 -41 -43 -232zM751 514q0 30 2 51q0 -5 -2 -51zM1147 -457l9 -12h-9v12z" />
<glyph unicode="&#xcb;" horiz-adv-x="1350" d="M99 5v34q72 5 208 40q11 75 11 196q0 66 -3.5 199.5t-3.5 199.5v159q1 106 1 159q0 153 -10 278q-25 24 -51 24q-44 0 -51 -81q-7 -90 -27 -104q0 62 -9 161q-26 17 -65 65l9 17h25l1113 -4q9 -22 9 -65q-14 -29 -14 -83q0 -55 14 -147l-21 -5l-8 5q-55 213 -140 234 q-48 -72 -48 -208q0 -58 13 -110q41 -20 50 -27q19 -17 19 -51v-4q-12 -29 -12 -85q0 -65 8 -182q11 -125 12 -181l-29 -4q-13 53 -27 106q-22 72 -56 80q-23 -20 -23 -63q0 -31 12 -84q14 -59 16 -83q-14 -7 -31 -9l-14 14q17 89 17 174q0 34 -3 73q-38 40 -92 40 q-41 -72 -41 -236q0 -51 6 -151t6 -148l-22 -8q-17 55 -17 99q0 49 10 149t10 150q0 124 -56 140q-38 -55 -41 -113q-2 116 -77 118q-20 -33 -43 -57q-13 9 -30 9q-17 -38 -17 -101q0 -44 10 -121q10 -85 12 -121l-31 -14q-15 38 -15 121v57q0 22 6 63.5t6 64.5q0 94 -81 94 q-3 -340 -3 -530q0 -17 17 -66q21 -10 60 -10q51 0 61 -2q116 -17 190 -17q307 0 389 60q31 22 90 140q53 107 92 117l9 -5v-17q-32 -53 -41 -159q-10 -143 -15 -167l-135 -5q-31 -46 -36 -135q2 19 2 -145q0 -106 -26 -159q-19 205 -19 239q0 26 5.5 76.5t5.5 75.5 q0 24 -40 45l-36 -45l23 -230q-16 -10 -35 -14l-5 127q11 23 11 58q0 41 -11 76q-34 24 -134 31q-43 -61 -43 -203q0 -24 1.5 -73.5t1.5 -73.5q0 -65 -8 -114l-31 -10q-10 17 -12 35q17 41 17 164q0 234 -44 263q-36 -87 -36 -242q0 -33 8.5 -99.5t8.5 -98.5 q0 -19 -12 -52.5t-12 -51.5q0 -12 12 -113l-20 -5l-6 31q12 22 12 47q0 24 -11.5 72t-11.5 72q0 46 11.5 138t11.5 138q0 174 -102 173q-63 -86 -63 -137q0 -20 7.5 -57.5t7.5 -58.5q0 -15 -6.5 -43.5t-6.5 -43.5q0 -26 11.5 -76t11.5 -76q0 -51 -23 -75h-18v26 q0 47 5.5 143t5.5 143q0 214 -63 246v-5q-19 -41 -60 -118q-10 132 -96 132q-13 0 -44 -14q-17 -22 -17 -80q0 -48 10 -141t10 -141q0 -19 -3 -37q-15 -5 -34 -5v8q-10 27 -10 75q0 39 5.5 118.5t5.5 118.5q0 72 -29 89h-155zM446 -601l10 53q3 -24 12 -70h-17zM481 1060 q0 -58 4 -161q5 -114 5 -160l3 -3l98 -6q12 18 34 53l3 -10q51 -43 92 -43q24 12 65 12q28 0 80.5 -5t80.5 -5q82 0 104 55q7 15 19 126q-65 31 -65 70q20 34 20 106q0 60 -13 118q-21 82 -60 93q-48 -110 -48 -141q0 -33 13 -94t13 -94q0 -43 -28 -43q-34 0 -34 36 q0 9 2 19q22 39 22 109q0 72 -24 132q-32 78 -94 76l-30 -39v-5q0 -20 3 -60.5t3 -60.5q0 -15 -3 -31q-19 -8 -43 -8q-8 18 -8 65q5 13 5 29q0 25 -19 80h-8v-5q-29 -34 -31 -123q-2 -101 -17 -133q2 41 2 66q0 219 -103 217q-43 -41 -43 -232zM546 1565q0 61 83 118h14 q75 0 103 -43q22 -32 22 -109q-75 -84 -84 -106q-14 -31 -12 -130l-25 -8q-12 24 -14 66q0 53 -3.5 69.5t-46.5 62.5q-37 39 -37 80zM751 514q0 30 2 51q0 -5 -2 -51zM1013 1577q0 55 88 113l78 -9q56 -60 56 -104q0 -48 -70 -109h-17q-49 0 -92 30.5t-43 78.5zM1147 -457 l9 -12h-9v12z" />
<glyph unicode="&#xcc;" horiz-adv-x="766" d="M48 14v34h13q36 17 106 25q77 9 106 19q38 89 38 304q0 92 -8 274t-8 274q0 32 2.5 98t2.5 98q0 96 -17 143q-44 21 -97 21q-7 -19 -34 -155h-17q-2 49 -5 80q-5 56 -21 71q-3 4 -37 26q-23 14 -24 34h652v-34l-57 -3q-51 -70 -51 -164q0 24 7 -159q-15 -10 -34 -14 q-12 18 -14 40q21 39 21 83q0 101 -63 186l-17 -3q-33 -118 -33 -360q0 -85 5 -255t5 -255q0 -29 -2.5 -88t-2.5 -88q0 -120 28 -150q17 -19 78 -19q72 0 121 -29l9 -31q-50 0 -109 -3q-50 -77 -50 -275q0 -33 15 -309l-25 -3q-14 13 -17 34q18 34 18 117q0 58 -11.5 175 t-11.5 175q0 69 -40 86h-42q-43 -81 -43 -205q0 -45 7 -135t7 -135q0 -90 -19 -157h-14l-5 9q7 24 7 49q0 22 -5 66.5t-5 66.5q0 45 9 132.5t9 132.5q0 148 -71 167q-53 -78 -53 -172q0 -36 11 -107.5t11 -107.5q0 -41 -34 -40q-15 12 -15 29q0 4 15 53q8 28 8 81 q0 227 -61 273h-138zM230 1710v39l28 31h23q38 0 67 -14q41 -18 125 -136q78 -109 97 -162h-17q-36 42 -92 51q-29 -53 -29 -215q0 -73 12 -341l-26 -9q-10 26 -10 72v27q1 20 1 27q18 38 18 121q0 318 -43 383q-15 22 -72 63q-68 51 -82 63z" />
<glyph unicode="&#xcd;" horiz-adv-x="766" d="M48 14v34h13q36 17 106 25q77 9 106 19q38 89 38 304q0 92 -8 274t-8 274q0 32 2.5 98t2.5 98q0 96 -17 143q-44 21 -97 21q-7 -19 -34 -155h-17q-2 49 -5 80q-5 56 -21 71q-3 4 -37 26q-23 14 -24 34h652v-34l-57 -3q-51 -70 -51 -164q0 24 7 -159q-15 -10 -34 -14 q-12 18 -14 40q21 39 21 83q0 101 -63 186l-17 -3q-33 -118 -33 -360q0 -85 5 -255t5 -255q0 -29 -2.5 -88t-2.5 -88q0 -120 28 -150q17 -19 78 -19q72 0 121 -29l9 -31q-50 0 -109 -3q-50 -77 -50 -275q0 -33 15 -309l-25 -3q-14 13 -17 34q18 34 18 117q0 58 -11.5 175 t-11.5 175q0 69 -40 86h-42q-43 -81 -43 -205q0 -45 7 -135t7 -135q0 -90 -19 -157h-14l-5 9q7 24 7 49q0 22 -5 66.5t-5 66.5q0 45 9 132.5t9 132.5q0 148 -71 167q-53 -78 -53 -172q0 -36 11 -107.5t11 -107.5q0 -41 -34 -40q-15 12 -15 29q0 4 15 53q8 28 8 81 q0 227 -61 273h-138zM188 1468v8q47 82 160 231q32 24 96 73h58l25 -31q-5 -56 -76.5 -127t-71.5 -154q0 -41 11 -119.5t11 -119.5q0 -24 -9 -41l-25 -12q-19 32 -19 99q27 46 27 131q0 104 -30 152q-21 -22 -74 -52t-83 -38z" />
<glyph unicode="&#xce;" horiz-adv-x="766" d="M48 14v34h13q36 17 106 25q77 9 106 19q38 89 38 304q0 92 -8 274t-8 274q0 32 2.5 98t2.5 98q0 96 -17 143q-44 21 -97 21q-7 -19 -34 -155h-17q-2 49 -5 80q-5 56 -21 71q-3 4 -37 26q-23 14 -24 34h652v-34l-57 -3q-51 -70 -51 -164q0 24 7 -159q-15 -10 -34 -14 q-12 18 -14 40q21 39 21 83q0 101 -63 186l-17 -3q-33 -118 -33 -360q0 -85 5 -255t5 -255q0 -29 -2.5 -88t-2.5 -88q0 -120 28 -150q17 -19 78 -19q72 0 121 -29l9 -31q-50 0 -109 -3q-50 -77 -50 -275q0 -33 15 -309l-25 -3q-14 13 -17 34q18 34 18 117q0 58 -11.5 175 t-11.5 175q0 69 -40 86h-42q-43 -81 -43 -205q0 -45 7 -135t7 -135q0 -90 -19 -157h-14l-5 9q7 24 7 49q0 22 -5 66.5t-5 66.5q0 45 9 132.5t9 132.5q0 148 -71 167q-53 -78 -53 -172q0 -36 11 -107.5t11 -107.5q0 -41 -34 -40q-15 12 -15 29q0 4 15 53q8 28 8 81 q0 227 -61 273h-138zM182 1512l331 396q23 -14 99 -118q81 -92 239 -278q-20 -22 -47 -44q-31 27 -98 107l-193 232l-283 -339h-5z" />
<glyph unicode="&#xcf;" horiz-adv-x="766" d="M48 14v34h13q36 17 106 25q77 9 106 19q38 89 38 304q0 92 -8 274t-8 274q0 32 2.5 98t2.5 98q0 96 -17 143q-44 21 -97 21q-7 -19 -34 -155h-17q-2 49 -5 80q-5 56 -21 71q-3 4 -37 26q-23 14 -24 34h652v-34l-57 -3q-51 -70 -51 -164q0 24 7 -159q-15 -10 -34 -14 q-12 18 -14 40q21 39 21 83q0 101 -63 186l-17 -3q-33 -118 -33 -360q0 -85 5 -255t5 -255q0 -29 -2.5 -88t-2.5 -88q0 -120 28 -150q17 -19 78 -19q72 0 121 -29l9 -31q-50 0 -109 -3q-50 -77 -50 -275q0 -33 15 -309l-25 -3q-14 13 -17 34q18 34 18 117q0 58 -11.5 175 t-11.5 175q0 69 -40 86h-42q-43 -81 -43 -205q0 -45 7 -135t7 -135q0 -90 -19 -157h-14l-5 9q7 24 7 49q0 22 -5 66.5t-5 66.5q0 45 9 132.5t9 132.5q0 148 -71 167q-53 -78 -53 -172q0 -36 11 -107.5t11 -107.5q0 -41 -34 -40q-15 12 -15 29q0 4 15 53q8 28 8 81 q0 227 -61 273h-138zM273 1565q0 61 83 118h14q75 0 103 -43q22 -32 22 -109q-75 -84 -84 -106q-14 -31 -12 -130l-25 -8q-12 24 -14 66q0 53 -3.5 69.5t-46.5 62.5q-37 39 -37 80zM740 1577q0 55 88 113l78 -9q56 -60 56 -104q0 -48 -70 -109h-17q-49 0 -92 30.5t-43 78.5z " />
<glyph unicode="&#xd1;" horiz-adv-x="1529" d="M90 1357q102 2 309 8l1025 -1121v309q0 8 -8 73q-5 40 -5 256q0 40 -8.5 120t-8.5 119q0 14 2.5 42t2.5 42q0 51 -22 78l-26 9q-56 -72 -56 -171q0 -32 12.5 -97t12.5 -97q0 -4 -13 -154l-26 -12q-22 68 -22 113q0 36 15.5 106.5t15.5 106.5q0 26 -12 65q-17 53 -19 65 q-3 25 -9 52.5t-25 39.5q-16 2 -48 22v34h452v-30h-8q-36 -17 -94 -23q-44 -3 -58 -18q-19 -26 -19 -106q0 -48 9 -132q8 -93 10 -129q12 -277 17 -944h-53q-109 107 -321 329q-75 91 -230 267q-130 131 -258 264q-150 155 -242 278l-5 -3v-249q0 -16 17 -768q24 -2 75 -12 q65 -14 169 -33v-42q-50 -4 -86 -4q-27 0 -54 4q-19 -33 -26.5 -103t-21.5 -99q0 91 -12 128q-20 74 -89 74h-3l-34 -45q0 -44 -7 -131t-7 -130q0 -36 9 -95q-6 -17 -43 -17l-5 8q19 72 19 220q0 152 -40 190h-47q-36 0 -87 -5v30q85 19 168 36q53 26 53 161q0 29 -2.5 84 t-2.5 84q0 79 4.5 237.5t4.5 237.5q0 232 -31 360q-73 53 -203 70zM421 -604q0 34 29 109q39 -53 39 -101q0 -44 -34 -44t-34 36zM450 -236q14 -27 14 -68v-44q0 -39 -14 -65v177zM535 1468q-2 65 37 108.5t103 43.5q63 0 169.5 -52t159.5 -52q106 0 114 104h26 q-7 -99 -79 -144l-25 -82q0 40 -14 52q-2 1 -48 22l-17 -21v-118h-17q-5 12 -5 26q9 15 9 53q0 75 -43 77q-15 -41 -15 -149q0 -63 6 -158l-5 -11l-8 5l-5 9q12 24 12 85v156q0 70 -47 90l-17 -17v-275q-8 0 -17 -5q-5 10 -5 31v5q14 27 14 116q0 172 -56 176 q-19 -22 -19 -27q0 -16 2.5 -46t2.5 -45l-22 -8q-2 11 -12 34l-9 -4q-12 26 -10 86l-26 35q-39 -30 -39 -121v-15v-63q0 -14 8.5 -38.5t8.5 -36.5q-7 -4 -25 -4q-9 16 -9 31q17 27 17 104q0 68 -12 113q-10 5 -22 8q-10 -27 -34 -78h-27zM715 1490q0 -10 7 -22q0 3 2 11 t2 13v18q0 11 -9 19q0 -3 -2 -13v-12v-14zM1026 1260q5 11 14 104q12 -21 12 -57v-100q-9 -7 -17 -9l-4 5z" />
<glyph unicode="&#xd2;" horiz-adv-x="1575" d="M90 713q0 379 447 613q118 62 214 62q249 0 348 -40q249 -99 362 -237q124 -155 124 -411q0 -319 -199 -500q-63 -53 -127 -108q-47 -53 -47 -157q0 -25 8.5 -74t8.5 -74q0 -12 -17 -178h-23q-1 16 -6 68q-6 45 -6 70q0 29 9 85.5t9 85.5q0 51 -14 108q-22 18 -51 22 q-28 -82 -34 -219q-7 -174 -14 -220q-5 -31 -5 -39q0 -21 6.5 -63.5t6.5 -62.5q0 -40 -17 -74q0 171 -30 408q-5 39 -5 56q0 19 2.5 56.5t2.5 56.5q0 27 -5 53q-16 17 -35 17q-23 0 -56 -12q-39 -113 -53 -444q-17 314 -17 345q0 72 -25 94h-79l-22 -34q0 -36 -4.5 -111 t-4.5 -113q0 -20 4.5 -60t4.5 -61q0 -32 -12 -60q0 24 1.5 73.5t1.5 75.5q0 7 -1.5 21.5t-1.5 21.5q0 8 1.5 26t1.5 26q0 204 -112 217q-40 -53 -40 -157q0 -32 2 -94.5t2 -94.5q0 -29 -4 -55l-25 -3q-9 24 -9 73q0 2 4.5 23t4.5 32q0 165 -39 302h-9q-31 -48 -31 -121 q0 17 12 -163l-29 -8q-10 14 -13 31q17 37 17 104q0 155 -48 210q-31 20 -91 65q-109 87 -179 247q-65 154 -65 300zM290 700q0 -374 278 -587q48 -36 227 -74q26 -5 34 -5q87 0 209 39q56 19 80 28q46 20 71 42q210 185 210 548q0 181 -63 316q-61 130 -198 254 q-44 -8 -44 -73q0 -26 7 -74.5t7 -74.5q0 -30 -14 -56l-21 -5q-15 29 -17 92q-18 7 -30 21q1 18 10 71q7 46 7 74q0 53 -34 76q-21 14 -84 28q-43 -69 -43 -152q0 -27 6 -82.5t6 -83.5q0 -34 -8 -78q-14 -14 -34 -17q-23 15 -23 42q26 48 26 149q0 189 -65 222l-17 -9 q-27 -73 -26 -162q-17 -8 -35 -8q-4 35 -9 109q-10 22 -31 30q-30 -52 -30 -87q0 -22 13 -95l-25 -22q8 -110 8 -149q0 -8 -8.5 -59.5t-8.5 -129.5q0 -33 4 -115l-9 -8h-9l-3 14q12 37 12 87q0 42 -15.5 125t-15.5 125q0 26 4.5 79t4.5 78q0 48 -9 88q-22 18 -48 25 q-126 -145 -179 -254q-68 -138 -68 -302zM633 1710v39l28 31h23q38 0 67 -14q41 -18 125 -136q78 -109 97 -162h-17q-36 42 -92 51q-29 -53 -29 -215q0 -73 12 -341l-26 -9q-10 26 -10 72v27q1 20 1 27q18 38 18 121q0 318 -43 383q-15 22 -72 63q-68 51 -82 63zM703 -630 q0 26 17 72t19 66q34 -52 34 -117q0 -12 -5 -34h-9q-10 -6 -20 -6q-19 0 -36 9v10zM894 -534q5 -9 5 -12v-19h-5v31z" />
<glyph unicode="&#xd3;" horiz-adv-x="1575" d="M90 713q0 379 447 613q118 62 214 62q249 0 348 -40q249 -99 362 -237q124 -155 124 -411q0 -319 -199 -500q-63 -53 -127 -108q-47 -53 -47 -157q0 -25 8.5 -74t8.5 -74q0 -12 -17 -178h-23q-1 16 -6 68q-6 45 -6 70q0 29 9 85.5t9 85.5q0 51 -14 108q-22 18 -51 22 q-28 -82 -34 -219q-7 -174 -14 -220q-5 -31 -5 -39q0 -21 6.5 -63.5t6.5 -62.5q0 -40 -17 -74q0 171 -30 408q-5 39 -5 56q0 19 2.5 56.5t2.5 56.5q0 27 -5 53q-16 17 -35 17q-23 0 -56 -12q-39 -113 -53 -444q-17 314 -17 345q0 72 -25 94h-79l-22 -34q0 -36 -4.5 -111 t-4.5 -113q0 -20 4.5 -60t4.5 -61q0 -32 -12 -60q0 24 1.5 73.5t1.5 75.5q0 7 -1.5 21.5t-1.5 21.5q0 8 1.5 26t1.5 26q0 204 -112 217q-40 -53 -40 -157q0 -32 2 -94.5t2 -94.5q0 -29 -4 -55l-25 -3q-9 24 -9 73q0 2 4.5 23t4.5 32q0 165 -39 302h-9q-31 -48 -31 -121 q0 17 12 -163l-29 -8q-10 14 -13 31q17 37 17 104q0 155 -48 210q-31 20 -91 65q-109 87 -179 247q-65 154 -65 300zM290 700q0 -374 278 -587q48 -36 227 -74q26 -5 34 -5q87 0 209 39q56 19 80 28q46 20 71 42q210 185 210 548q0 181 -63 316q-61 130 -198 254 q-44 -8 -44 -73q0 -26 7 -74.5t7 -74.5q0 -30 -14 -56l-21 -5q-15 29 -17 92q-18 7 -30 21q1 18 10 71q7 46 7 74q0 53 -34 76q-21 14 -84 28q-43 -69 -43 -152q0 -27 6 -82.5t6 -83.5q0 -34 -8 -78q-14 -14 -34 -17q-23 15 -23 42q26 48 26 149q0 189 -65 222l-17 -9 q-27 -73 -26 -162q-17 -8 -35 -8q-4 35 -9 109q-10 22 -31 30q-30 -52 -30 -87q0 -22 13 -95l-25 -22q8 -110 8 -149q0 -8 -8.5 -59.5t-8.5 -129.5q0 -33 4 -115l-9 -8h-9l-3 14q12 37 12 87q0 42 -15.5 125t-15.5 125q0 26 4.5 79t4.5 78q0 48 -9 88q-22 18 -48 25 q-126 -145 -179 -254q-68 -138 -68 -302zM591 1468v8q47 82 160 231q32 24 96 73h58l25 -31q-5 -56 -76.5 -127t-71.5 -154q0 -41 11 -119.5t11 -119.5q0 -24 -9 -41l-25 -12q-19 32 -19 99q27 46 27 131q0 104 -30 152q-21 -22 -74 -52t-83 -38zM703 -630q0 26 17 72t19 66 q34 -52 34 -117q0 -12 -5 -34h-9q-10 -6 -20 -6q-19 0 -36 9v10zM894 -534q5 -9 5 -12v-19h-5v31z" />
<glyph unicode="&#xd4;" horiz-adv-x="1575" d="M90 713q0 379 447 613q118 62 214 62q249 0 348 -40q249 -99 362 -237q124 -155 124 -411q0 -319 -199 -500q-63 -53 -127 -108q-47 -53 -47 -157q0 -25 8.5 -74t8.5 -74q0 -12 -17 -178h-23q-1 16 -6 68q-6 45 -6 70q0 29 9 85.5t9 85.5q0 51 -14 108q-22 18 -51 22 q-28 -82 -34 -219q-7 -174 -14 -220q-5 -31 -5 -39q0 -21 6.5 -63.5t6.5 -62.5q0 -40 -17 -74q0 171 -30 408q-5 39 -5 56q0 19 2.5 56.5t2.5 56.5q0 27 -5 53q-16 17 -35 17q-23 0 -56 -12q-39 -113 -53 -444q-17 314 -17 345q0 72 -25 94h-79l-22 -34q0 -36 -4.5 -111 t-4.5 -113q0 -20 4.5 -60t4.5 -61q0 -32 -12 -60q0 24 1.5 73.5t1.5 75.5q0 7 -1.5 21.5t-1.5 21.5q0 8 1.5 26t1.5 26q0 204 -112 217q-40 -53 -40 -157q0 -32 2 -94.5t2 -94.5q0 -29 -4 -55l-25 -3q-9 24 -9 73q0 2 4.5 23t4.5 32q0 165 -39 302h-9q-31 -48 -31 -121 q0 17 12 -163l-29 -8q-10 14 -13 31q17 37 17 104q0 155 -48 210q-31 20 -91 65q-109 87 -179 247q-65 154 -65 300zM290 700q0 -374 278 -587q48 -36 227 -74q26 -5 34 -5q87 0 209 39q56 19 80 28q46 20 71 42q210 185 210 548q0 181 -63 316q-61 130 -198 254 q-44 -8 -44 -73q0 -26 7 -74.5t7 -74.5q0 -30 -14 -56l-21 -5q-15 29 -17 92q-18 7 -30 21q1 18 10 71q7 46 7 74q0 53 -34 76q-21 14 -84 28q-43 -69 -43 -152q0 -27 6 -82.5t6 -83.5q0 -34 -8 -78q-14 -14 -34 -17q-23 15 -23 42q26 48 26 149q0 189 -65 222l-17 -9 q-27 -73 -26 -162q-17 -8 -35 -8q-4 35 -9 109q-10 22 -31 30q-30 -52 -30 -87q0 -22 13 -95l-25 -22q8 -110 8 -149q0 -8 -8.5 -59.5t-8.5 -129.5q0 -33 4 -115l-9 -8h-9l-3 14q12 37 12 87q0 42 -15.5 125t-15.5 125q0 26 4.5 79t4.5 78q0 48 -9 88q-22 18 -48 25 q-126 -145 -179 -254q-68 -138 -68 -302zM558 1512l331 396q23 -14 99 -118q81 -92 239 -278q-20 -22 -47 -44q-31 27 -98 107l-193 232l-283 -339h-5zM703 -630q0 26 17 72t19 66q34 -52 34 -117q0 -12 -5 -34h-9q-10 -6 -20 -6q-19 0 -36 9v10zM894 -534q5 -9 5 -12v-19 h-5v31z" />
<glyph unicode="&#xd5;" horiz-adv-x="1575" d="M90 713q0 379 447 613q118 62 214 62q249 0 348 -40q249 -99 362 -237q124 -155 124 -411q0 -319 -199 -500q-63 -53 -127 -108q-47 -53 -47 -157q0 -25 8.5 -74t8.5 -74q0 -12 -17 -178h-23q-1 16 -6 68q-6 45 -6 70q0 29 9 85.5t9 85.5q0 51 -14 108q-22 18 -51 22 q-28 -82 -34 -219q-7 -174 -14 -220q-5 -31 -5 -39q0 -21 6.5 -63.5t6.5 -62.5q0 -40 -17 -74q0 171 -30 408q-5 39 -5 56q0 19 2.5 56.5t2.5 56.5q0 27 -5 53q-16 17 -35 17q-23 0 -56 -12q-39 -113 -53 -444q-17 314 -17 345q0 72 -25 94h-79l-22 -34q0 -36 -4.5 -111 t-4.5 -113q0 -20 4.5 -60t4.5 -61q0 -32 -12 -60q0 24 1.5 73.5t1.5 75.5q0 7 -1.5 21.5t-1.5 21.5q0 8 1.5 26t1.5 26q0 204 -112 217q-40 -53 -40 -157q0 -32 2 -94.5t2 -94.5q0 -29 -4 -55l-25 -3q-9 24 -9 73q0 2 4.5 23t4.5 32q0 165 -39 302h-9q-31 -48 -31 -121 q0 17 12 -163l-29 -8q-10 14 -13 31q17 37 17 104q0 155 -48 210q-31 20 -91 65q-109 87 -179 247q-65 154 -65 300zM290 700q0 -374 278 -587q48 -36 227 -74q26 -5 34 -5q87 0 209 39q56 19 80 28q46 20 71 42q210 185 210 548q0 181 -63 316q-61 130 -198 254 q-44 -8 -44 -73q0 -26 7 -74.5t7 -74.5q0 -30 -14 -56l-21 -5q-15 29 -17 92q-18 7 -30 21q1 18 10 71q7 46 7 74q0 53 -34 76q-21 14 -84 28q-43 -69 -43 -152q0 -27 6 -82.5t6 -83.5q0 -34 -8 -78q-14 -14 -34 -17q-23 15 -23 42q26 48 26 149q0 189 -65 222l-17 -9 q-27 -73 -26 -162q-17 -8 -35 -8q-4 35 -9 109q-10 22 -31 30q-30 -52 -30 -87q0 -22 13 -95l-25 -22q8 -110 8 -149q0 -8 -8.5 -59.5t-8.5 -129.5q0 -33 4 -115l-9 -8h-9l-3 14q12 37 12 87q0 42 -15.5 125t-15.5 125q0 26 4.5 79t4.5 78q0 48 -9 88q-22 18 -48 25 q-126 -145 -179 -254q-68 -138 -68 -302zM586 1468q-2 65 37 108.5t103 43.5q63 0 169.5 -52t159.5 -52q106 0 114 104h26q-7 -99 -79 -144l-25 -82q0 40 -14 52q-2 1 -48 22l-17 -21v-118h-17q-5 12 -5 26q9 15 9 53q0 75 -43 77q-15 -41 -15 -149q0 -63 6 -158l-5 -11 l-8 5l-5 9q12 24 12 85v156q0 70 -47 90l-17 -17v-275q-8 0 -17 -5q-5 10 -5 31v5q14 27 14 116q0 172 -56 176q-19 -22 -19 -27q0 -16 2.5 -46t2.5 -45l-22 -8q-2 11 -12 34l-9 -4q-12 26 -10 86l-26 35q-39 -30 -39 -121v-15v-63q0 -14 8.5 -38.5t8.5 -36.5q-7 -4 -25 -4 q-9 16 -9 31q17 27 17 104q0 68 -12 113q-10 5 -22 8q-10 -27 -34 -78h-27zM703 -630q0 26 17 72t19 66q34 -52 34 -117q0 -12 -5 -34h-9q-10 -6 -20 -6q-19 0 -36 9v10zM766 1490q0 -10 7 -22q0 3 2 11t2 13v18q0 11 -9 19q0 -3 -2 -13v-12v-14zM894 -534q5 -9 5 -12v-19 h-5v31zM1077 1260q5 11 14 104q12 -21 12 -57v-100q-9 -7 -17 -9l-4 5z" />
<glyph unicode="&#xd6;" horiz-adv-x="1575" d="M90 713q0 379 447 613q118 62 214 62q249 0 348 -40q249 -99 362 -237q124 -155 124 -411q0 -319 -199 -500q-63 -53 -127 -108q-47 -53 -47 -157q0 -25 8.5 -74t8.5 -74q0 -12 -17 -178h-23q-1 16 -6 68q-6 45 -6 70q0 29 9 85.5t9 85.5q0 51 -14 108q-22 18 -51 22 q-28 -82 -34 -219q-7 -174 -14 -220q-5 -31 -5 -39q0 -21 6.5 -63.5t6.5 -62.5q0 -40 -17 -74q0 171 -30 408q-5 39 -5 56q0 19 2.5 56.5t2.5 56.5q0 27 -5 53q-16 17 -35 17q-23 0 -56 -12q-39 -113 -53 -444q-17 314 -17 345q0 72 -25 94h-79l-22 -34q0 -36 -4.5 -111 t-4.5 -113q0 -20 4.5 -60t4.5 -61q0 -32 -12 -60q0 24 1.5 73.5t1.5 75.5q0 7 -1.5 21.5t-1.5 21.5q0 8 1.5 26t1.5 26q0 204 -112 217q-40 -53 -40 -157q0 -32 2 -94.5t2 -94.5q0 -29 -4 -55l-25 -3q-9 24 -9 73q0 2 4.5 23t4.5 32q0 165 -39 302h-9q-31 -48 -31 -121 q0 17 12 -163l-29 -8q-10 14 -13 31q17 37 17 104q0 155 -48 210q-31 20 -91 65q-109 87 -179 247q-65 154 -65 300zM290 700q0 -374 278 -587q48 -36 227 -74q26 -5 34 -5q87 0 209 39q56 19 80 28q46 20 71 42q210 185 210 548q0 181 -63 316q-61 130 -198 254 q-44 -8 -44 -73q0 -26 7 -74.5t7 -74.5q0 -30 -14 -56l-21 -5q-15 29 -17 92q-18 7 -30 21q1 18 10 71q7 46 7 74q0 53 -34 76q-21 14 -84 28q-43 -69 -43 -152q0 -27 6 -82.5t6 -83.5q0 -34 -8 -78q-14 -14 -34 -17q-23 15 -23 42q26 48 26 149q0 189 -65 222l-17 -9 q-27 -73 -26 -162q-17 -8 -35 -8q-4 35 -9 109q-10 22 -31 30q-30 -52 -30 -87q0 -22 13 -95l-25 -22q8 -110 8 -149q0 -8 -8.5 -59.5t-8.5 -129.5q0 -33 4 -115l-9 -8h-9l-3 14q12 37 12 87q0 42 -15.5 125t-15.5 125q0 26 4.5 79t4.5 78q0 48 -9 88q-22 18 -48 25 q-126 -145 -179 -254q-68 -138 -68 -302zM666 1565q0 61 83 118h14q75 0 103 -43q22 -32 22 -109q-75 -84 -84 -106q-14 -31 -12 -130l-25 -8q-12 24 -14 66q0 53 -3.5 69.5t-46.5 62.5q-37 39 -37 80zM703 -630q0 26 17 72t19 66q34 -52 34 -117q0 -12 -5 -34h-9 q-10 -6 -20 -6q-19 0 -36 9v10zM894 -534q5 -9 5 -12v-19h-5v31zM1133 1577q0 55 88 113l78 -9q56 -60 56 -104q0 -48 -70 -109h-17q-49 0 -92 30.5t-43 78.5z" />
<glyph unicode="&#xd7;" horiz-adv-x="1364" d="M258 1157l65 65l358 -360l358 357l62 -62l-359 -357l355 -353l-64 -65l-354 354l-353 -354l-61 62l353 353z" />
<glyph unicode="&#xd8;" horiz-adv-x="1679" d="M84 713q0 214 129 372q106 130 318 241q118 62 222 62q233 0 332 -36l53 123h93v-9l-65 -148q213 -98 312 -239q101 -149 101 -379q0 -319 -200 -500q-63 -53 -126 -108q-48 -53 -48 -157q0 -25 8.5 -74t8.5 -74q0 -12 -17 -178h-22q-2 16 -7 68q-5 43 -5 70 q0 29 8.5 85.5t8.5 85.5q0 51 -14 108q-22 18 -51 22q-27 -82 -34 -219q-7 -172 -14 -220q-5 -31 -5 -39q0 -21 7 -63.5t7 -62.5q0 -40 -17 -74q0 171 -31 408q-5 39 -5 56q0 19 2.5 56.5t2.5 56.5q0 27 -5 53q-14 17 -34 17q-26 0 -57 -12q-30 -92 -42 -220 q-2 -24 -11 -224q-17 314 -17 345q0 70 -25 94h-79l-22 -34q0 -36 -4 -111t-4 -113q0 -20 4 -60t4 -61q0 -32 -12 -60q0 24 2 73.5t2 75.5q0 7 -2 21.5t-2 21.5q0 8 2 26t2 26q0 204 -113 217q-39 -53 -39 -157q0 -32 1.5 -94.5t1.5 -94.5q0 -29 -3 -55l-26 -3q-8 24 -8 73 q0 9 4 26.5t4 28.5q0 85 -8 153l-41 -95h-21l4 -40l-29 -8q-11 14 -14 31l7 17h-34v8l44 103q-9 141 -48 186q-31 20 -90 65q-110 87 -180 247q-64 154 -64 300zM283 700q0 -171 69 -321q71 -157 201 -260l483 1118q0 52 -36 75q-20 14 -82 28q-42 -69 -42 -152 q0 -27 5.5 -82.5t5.5 -83.5q0 -34 -8 -78q-14 -14 -34 -17q-22 15 -22 42q25 48 25 149q0 189 -65 222l-17 -9q-27 -73 -25 -162q-17 -8 -36 -8q-4 35 -9 109q-10 22 -30 30q-31 -51 -31 -87q0 -23 14 -95l-26 -22q8 -110 8 -149q0 -10 -8.5 -59.5t-8.5 -129.5q0 -33 4 -115 l-9 -8h-8l-4 14q12 37 12 87q0 42 -15 125t-15 125q0 26 4 79t4 78q0 48 -8 88q-23 18 -48 25q-127 -145 -179 -254q-69 -138 -69 -302zM480 -51l41 94l-2 5h-9q-27 -41 -30 -99zM626 79q125 -45 197 -45q83 0 208 39q106 35 152 70q106 82 162 250q48 143 48 298 q0 178 -61 309.5t-194 253.5l-47 -109q10 -73 10 -106q0 -30 -14 -56l-20 -5q-17 36 -17 77q-207 -473 -424 -976zM696 -630q0 26 17 72t19 66q34 -52 34 -117q0 -12 -5 -34h-8q-11 -6 -21 -6q-19 0 -36 9v10zM887 -534q6 -9 6 -12v-19h-6v31z" />
<glyph unicode="&#xd9;" horiz-adv-x="1459" d="M74 1348l17 9q182 5 547 13l9 -47q-51 -14 -51 -75q0 -17 1.5 -50.5t1.5 -48.5l-39 -11q-9 21 -9 50q9 19 9 43q0 64 -51 87q-60 -31 -57 -74q-22 -49 -22 -162q0 -44 4.5 -134.5t4.5 -135.5q0 -46 -2.5 -136.5t-2.5 -136.5q0 -186 34 -264q46 -104 196 -174 q67 -31 149 -31q15 0 44 3q251 31 321 135q83 125 83 480q0 61 -22 273q-3 78 -7 157q-5 95 -29 152q-24 -12 -25 -22l-26 -147h-8q-14 27 -14 60q-7 15 -19 97q-5 41 -71 77l-11 30h435v-39q-44 -2 -146 -31q-28 -49 -28 -138q0 -116 4.5 -346.5t4.5 -344.5q0 -56 -19 -138 q-20 -91 -46 -132q-36 -42 -70 -83q-43 -52 -43 -99q0 -16 11.5 -44t11.5 -43q0 -21 -7 -59.5t-7 -58.5q0 -33 3 -85q6 -65 6 -84l-12 -10l-14 5v225q-9 21 -9 44t7 64.5t7 63.5q0 6 -2 11l-34 27l-53 -22q-10 -22 -29 -65q17 -80 17 -96q0 -32 -8.5 -95t-8.5 -96 q0 -15 4.5 -46t4.5 -46q0 -60 -17 -96q-2 18 -12 57t-10 61q0 16 6 44t6 43q0 92 -4 273l-34 36q-99 -19 -99 -159v-40q2 -26 2 -40q0 -77 -21 -114q-27 101 -27 131q0 23 7 65.5t7 64.5q0 65 -57 75q-36 -58 -36 -118q0 -18 3 -54t3 -55q0 -29 -9 -87t-9 -87 q0 -19 4.5 -54.5t4.5 -54.5q0 -62 -17 -96q-17 101 -17 115q0 20 4 62.5t4 63.5q0 5 -8 82q0 95 -27 283h-4v-5q-25 -34 -25 -152q0 -104 3 -230q-19 -9 -39 -9q-9 21 -9 48q14 29 14 87q0 70 -10 159q-16 124 -43 140q-14 6 -39 13q-14 -12 -40 -34q6 -82 17 -244 q-17 -12 -37 -14q-10 26 -10 84v43q18 36 18 87q0 102 -47 150q-79 80 -96 111q-44 85 -44 300q0 104 8.5 311.5t8.5 311.5q0 118 -29 137q-16 10 -140 10q-10 0 -34 14zM577 1710v39l28 31h23q38 0 67 -14q41 -18 125 -136q78 -109 97 -162h-17q-36 42 -92 51 q-29 -53 -29 -215q0 -73 12 -341l-26 -9q-10 26 -10 72v27q1 20 1 27q18 38 18 121q0 318 -43 383q-15 22 -72 63q-68 51 -82 63zM799 -539q0 18 12.5 50t14.5 45q24 -42 26 -117q-19 -11 -39 -12l-9 8v9q-5 8 -5 17zM978 -604q15 29 14 90q3 -39 12 -116h-12q-12 12 -14 26 z" />
<glyph unicode="&#xda;" horiz-adv-x="1459" d="M74 1348l17 9q182 5 547 13l9 -47q-51 -14 -51 -75q0 -17 1.5 -50.5t1.5 -48.5l-39 -11q-9 21 -9 50q9 19 9 43q0 64 -51 87q-60 -31 -57 -74q-22 -49 -22 -162q0 -44 4.5 -134.5t4.5 -135.5q0 -46 -2.5 -136.5t-2.5 -136.5q0 -186 34 -264q46 -104 196 -174 q67 -31 149 -31q15 0 44 3q251 31 321 135q83 125 83 480q0 61 -22 273q-3 78 -7 157q-5 95 -29 152q-24 -12 -25 -22l-26 -147h-8q-14 27 -14 60q-7 15 -19 97q-5 41 -71 77l-11 30h435v-39q-44 -2 -146 -31q-28 -49 -28 -138q0 -116 4.5 -346.5t4.5 -344.5q0 -56 -19 -138 q-20 -91 -46 -132q-36 -42 -70 -83q-43 -52 -43 -99q0 -16 11.5 -44t11.5 -43q0 -21 -7 -59.5t-7 -58.5q0 -33 3 -85q6 -65 6 -84l-12 -10l-14 5v225q-9 21 -9 44t7 64.5t7 63.5q0 6 -2 11l-34 27l-53 -22q-10 -22 -29 -65q17 -80 17 -96q0 -32 -8.5 -95t-8.5 -96 q0 -15 4.5 -46t4.5 -46q0 -60 -17 -96q-2 18 -12 57t-10 61q0 16 6 44t6 43q0 92 -4 273l-34 36q-99 -19 -99 -159v-40q2 -26 2 -40q0 -77 -21 -114q-27 101 -27 131q0 23 7 65.5t7 64.5q0 65 -57 75q-36 -58 -36 -118q0 -18 3 -54t3 -55q0 -29 -9 -87t-9 -87 q0 -19 4.5 -54.5t4.5 -54.5q0 -62 -17 -96q-17 101 -17 115q0 20 4 62.5t4 63.5q0 5 -8 82q0 95 -27 283h-4v-5q-25 -34 -25 -152q0 -104 3 -230q-19 -9 -39 -9q-9 21 -9 48q14 29 14 87q0 70 -10 159q-16 124 -43 140q-14 6 -39 13q-14 -12 -40 -34q6 -82 17 -244 q-17 -12 -37 -14q-10 26 -10 84v43q18 36 18 87q0 102 -47 150q-79 80 -96 111q-44 85 -44 300q0 104 8.5 311.5t8.5 311.5q0 118 -29 137q-16 10 -140 10q-10 0 -34 14zM620 1468v8q47 82 160 231q32 24 96 73h58l25 -31q-5 -56 -76.5 -127t-71.5 -154q0 -41 11 -119.5 t11 -119.5q0 -24 -9 -41l-25 -12q-19 32 -19 99q27 46 27 131q0 104 -30 152q-21 -22 -74 -52t-83 -38zM799 -539q0 18 12.5 50t14.5 45q24 -42 26 -117q-19 -11 -39 -12l-9 8v9q-5 8 -5 17zM978 -604q15 29 14 90q3 -39 12 -116h-12q-12 12 -14 26z" />
<glyph unicode="&#xdb;" horiz-adv-x="1459" d="M74 1348l17 9q182 5 547 13l9 -47q-51 -14 -51 -75q0 -17 1.5 -50.5t1.5 -48.5l-39 -11q-9 21 -9 50q9 19 9 43q0 64 -51 87q-60 -31 -57 -74q-22 -49 -22 -162q0 -44 4.5 -134.5t4.5 -135.5q0 -46 -2.5 -136.5t-2.5 -136.5q0 -186 34 -264q46 -104 196 -174 q67 -31 149 -31q15 0 44 3q251 31 321 135q83 125 83 480q0 61 -22 273q-3 78 -7 157q-5 95 -29 152q-24 -12 -25 -22l-26 -147h-8q-14 27 -14 60q-7 15 -19 97q-5 41 -71 77l-11 30h435v-39q-44 -2 -146 -31q-28 -49 -28 -138q0 -116 4.5 -346.5t4.5 -344.5q0 -56 -19 -138 q-20 -91 -46 -132q-36 -42 -70 -83q-43 -52 -43 -99q0 -16 11.5 -44t11.5 -43q0 -21 -7 -59.5t-7 -58.5q0 -33 3 -85q6 -65 6 -84l-12 -10l-14 5v225q-9 21 -9 44t7 64.5t7 63.5q0 6 -2 11l-34 27l-53 -22q-10 -22 -29 -65q17 -80 17 -96q0 -32 -8.5 -95t-8.5 -96 q0 -15 4.5 -46t4.5 -46q0 -60 -17 -96q-2 18 -12 57t-10 61q0 16 6 44t6 43q0 92 -4 273l-34 36q-99 -19 -99 -159v-40q2 -26 2 -40q0 -77 -21 -114q-27 101 -27 131q0 23 7 65.5t7 64.5q0 65 -57 75q-36 -58 -36 -118q0 -18 3 -54t3 -55q0 -29 -9 -87t-9 -87 q0 -19 4.5 -54.5t4.5 -54.5q0 -62 -17 -96q-17 101 -17 115q0 20 4 62.5t4 63.5q0 5 -8 82q0 95 -27 283h-4v-5q-25 -34 -25 -152q0 -104 3 -230q-19 -9 -39 -9q-9 21 -9 48q14 29 14 87q0 70 -10 159q-16 124 -43 140q-14 6 -39 13q-14 -12 -40 -34q6 -82 17 -244 q-17 -12 -37 -14q-10 26 -10 84v43q18 36 18 87q0 102 -47 150q-79 80 -96 111q-44 85 -44 300q0 104 8.5 311.5t8.5 311.5q0 118 -29 137q-16 10 -140 10q-10 0 -34 14zM575 1512l331 396q23 -14 99 -118q81 -92 239 -278q-20 -22 -47 -44q-31 27 -98 107l-193 232 l-283 -339h-5zM799 -539q0 18 12.5 50t14.5 45q24 -42 26 -117q-19 -11 -39 -12l-9 8v9q-5 8 -5 17zM978 -604q15 29 14 90q3 -39 12 -116h-12q-12 12 -14 26z" />
<glyph unicode="&#xdc;" horiz-adv-x="1459" d="M74 1348l17 9q182 5 547 13l9 -47q-51 -14 -51 -75q0 -17 1.5 -50.5t1.5 -48.5l-39 -11q-9 21 -9 50q9 19 9 43q0 64 -51 87q-60 -31 -57 -74q-22 -49 -22 -162q0 -44 4.5 -134.5t4.5 -135.5q0 -46 -2.5 -136.5t-2.5 -136.5q0 -186 34 -264q46 -104 196 -174 q67 -31 149 -31q15 0 44 3q251 31 321 135q83 125 83 480q0 61 -22 273q-3 78 -7 157q-5 95 -29 152q-24 -12 -25 -22l-26 -147h-8q-14 27 -14 60q-7 15 -19 97q-5 41 -71 77l-11 30h435v-39q-44 -2 -146 -31q-28 -49 -28 -138q0 -116 4.5 -346.5t4.5 -344.5q0 -56 -19 -138 q-20 -91 -46 -132q-36 -42 -70 -83q-43 -52 -43 -99q0 -16 11.5 -44t11.5 -43q0 -21 -7 -59.5t-7 -58.5q0 -33 3 -85q6 -65 6 -84l-12 -10l-14 5v225q-9 21 -9 44t7 64.5t7 63.5q0 6 -2 11l-34 27l-53 -22q-10 -22 -29 -65q17 -80 17 -96q0 -32 -8.5 -95t-8.5 -96 q0 -15 4.5 -46t4.5 -46q0 -60 -17 -96q-2 18 -12 57t-10 61q0 16 6 44t6 43q0 92 -4 273l-34 36q-99 -19 -99 -159v-40q2 -26 2 -40q0 -77 -21 -114q-27 101 -27 131q0 23 7 65.5t7 64.5q0 65 -57 75q-36 -58 -36 -118q0 -18 3 -54t3 -55q0 -29 -9 -87t-9 -87 q0 -19 4.5 -54.5t4.5 -54.5q0 -62 -17 -96q-17 101 -17 115q0 20 4 62.5t4 63.5q0 5 -8 82q0 95 -27 283h-4v-5q-25 -34 -25 -152q0 -104 3 -230q-19 -9 -39 -9q-9 21 -9 48q14 29 14 87q0 70 -10 159q-16 124 -43 140q-14 6 -39 13q-14 -12 -40 -34q6 -82 17 -244 q-17 -12 -37 -14q-10 26 -10 84v43q18 36 18 87q0 102 -47 150q-79 80 -96 111q-44 85 -44 300q0 104 8.5 311.5t8.5 311.5q0 118 -29 137q-16 10 -140 10q-10 0 -34 14zM632 1565q0 61 83 118h14q75 0 103 -43q22 -32 22 -109q-75 -84 -84 -106q-14 -31 -12 -130l-25 -8 q-12 24 -14 66q0 53 -3.5 69.5t-46.5 62.5q-37 39 -37 80zM799 -539q0 18 12.5 50t14.5 45q24 -42 26 -117q-19 -11 -39 -12l-9 8v9q-5 8 -5 17zM978 -604q15 29 14 90q3 -39 12 -116h-12q-12 12 -14 26zM1099 1577q0 55 88 113l78 -9q56 -60 56 -104q0 -48 -70 -109h-17 q-49 0 -92 30.5t-43 78.5z" />
<glyph unicode="&#xdd;" horiz-adv-x="1285" d="M85 1360q248 -3 393 -3q20 0 62 4t62 4q35 0 62 -13l5 -26q-61 -34 -61 -121q0 -132 92 -287q82 -128 164 -258q23 26 104 149q117 177 201 292q55 73 61 83q28 50 29 99q-22 11 -92 28q-63 15 -85 32l-5 27h457l-5 -44q-90 0 -169 -82q-5 -5 -118 -153 q-88 -108 -177 -217q-103 -128 -149 -234q-25 -60 -25 -210q0 -227 29 -348q75 -31 227 -39l-5 -38q-21 -3 -41 -3q-22 0 -46 3q-26 -32 -26 -70q0 -17 7 -47.5t7 -47.5q0 -24 -11 -70t-11 -70q0 -19 6.5 -54t6.5 -54q0 -22 -9.5 -63t-9.5 -63q0 -24 7 -67.5t7 -64.5l-22 -3 l-4 34q12 26 12 70q0 31 -10 91.5t-10 91.5q0 24 4 71.5t4 71.5q0 12 -2.5 35t-2.5 35q0 19 7 54t7 54q0 70 -92 70q-51 -96 -51 -152q0 -23 6 -68t6 -67q0 -39 -17 -70q-26 95 -26 123q0 24 7 73.5t7 72.5q0 88 -79 88q-3 0 -14 -4l-30 -87q5 -157 5 -174q0 -27 -8.5 -81 t-8.5 -81q0 -21 4 -61t4 -60q0 -45 -13 -79q-17 22 -17 70q0 21 6.5 61t6.5 60q0 53 -11 157t-11 157q0 115 -61 118q-35 -58 -35 -189q0 -5 9 -224q-14 -8 -31 -10l-17 22q17 68 17 188q0 208 -73 213v34l3 4q87 8 123 17q82 17 108 49q18 24 18 331q0 69 -10 103 q-27 90 -160 271q-191 259 -196 268q-29 51 -57 102q-41 64 -82 77q-34 -53 -34 -140q0 -25 2 -75.5t2 -76.5q0 -10 -14 -320h-17l-4 17q9 18 9 39q0 22 -11 63t-11 63q0 43 6.5 125.5t6.5 125.5q0 205 -87 244zM473 1256q24 -34 70 -104q17 9 34 36v12q0 87 -57 112 q-17 -10 -32 -20t-15 -36zM669 1468v8q47 82 160 231q32 24 96 73h58l25 -31q-5 -56 -76.5 -127t-71.5 -154q0 -41 11 -119.5t11 -119.5q0 -24 -9 -41l-25 -12q-19 32 -19 99q27 46 27 131q0 104 -30 152q-21 -22 -74 -52t-83 -38zM846 -531q16 24 18 65q3 -31 13 -90 q-17 -9 -25 -9h-6v34z" />
<glyph unicode="&#xe0;" horiz-adv-x="804" d="M49 582q18 22 65 111q38 70 79 99q27 20 87.5 41.5t86.5 36.5q152 0 215 -49q75 -56 75 -203q0 -53 -8.5 -159t-8.5 -159q0 -141 48 -191h48q30 33 35 36q21 19 43 24l3 -34q-116 -135 -116 -178q0 -27 4.5 -80.5t4.5 -81.5q0 -3 -14 -60q-8 -34 -8 -109q0 -54 13 -261 q-17 -8 -35 -8q-9 17 -9 34q0 29 11 87t11 87q0 37 -11 113t-11 114v186q-29 44 -121 70q-7 -21 -22 -62l-17 -8q0 8 1 39v41q0 46 -15 63q-111 -58 -130 -121q9 -92 9 -121q0 -24 -5 -123q-4 -75 0 -121l-21 -5q-5 114 -5 370q-19 17 -39 17q-22 0 -48 -39q3 -111 9 -335 l-17 -8q-28 1 -26 39q12 31 12 125q0 163 -9 179q-13 25 -41 31q-41 8 -49 13q-14 9 -48 57v17q0 95 65 182q58 77 148 126q29 12 79 48q26 33 26 121q0 202 -65 222q-74 -49 -103 -99q-25 -41 -51 -135q-44 -22 -116 -22q-9 19 -9 43zM213 157q19 -26 67 -65h60v9 q39 61 39 191q0 31 -9 65l-25 13q-77 -71 -92 -92q-40 -53 -40 -121zM249 1216v39l28 31h23q38 0 67 -14q41 -18 125 -136q78 -109 97 -162h-17q-36 42 -92 51q-29 -53 -29 -215q0 -73 12 -341l-26 -9q-10 26 -10 72v27q1 20 1 27q18 38 18 121q0 318 -43 383q-15 22 -72 63 q-68 51 -82 63zM396 225l14 -68l22 -22h8q24 24 49 48t25 61q13 29 13 106q0 85 -17 107q-59 -24 -73 -34q-33 -24 -33 -71q0 -16 5.5 -46t5.5 -45q0 -3 -19 -36zM396 492q20 -18 48 -18l68 38q24 17 24 75q0 51 -26 116q-29 72 -70 89l-36 -48z" />
<glyph unicode="&#xe1;" horiz-adv-x="804" d="M49 582q18 22 65 111q38 70 79 99q27 20 87.5 41.5t86.5 36.5q152 0 215 -49q75 -56 75 -203q0 -53 -8.5 -159t-8.5 -159q0 -141 48 -191h48q30 33 35 36q21 19 43 24l3 -34q-116 -135 -116 -178q0 -27 4.5 -80.5t4.5 -81.5q0 -3 -14 -60q-8 -34 -8 -109q0 -54 13 -261 q-17 -8 -35 -8q-9 17 -9 34q0 29 11 87t11 87q0 37 -11 113t-11 114v186q-29 44 -121 70q-7 -21 -22 -62l-17 -8q0 8 1 39v41q0 46 -15 63q-111 -58 -130 -121q9 -92 9 -121q0 -24 -5 -123q-4 -75 0 -121l-21 -5q-5 114 -5 370q-19 17 -39 17q-22 0 -48 -39q3 -111 9 -335 l-17 -8q-28 1 -26 39q12 31 12 125q0 163 -9 179q-13 25 -41 31q-41 8 -49 13q-14 9 -48 57v17q0 95 65 182q58 77 148 126q29 12 79 48q26 33 26 121q0 202 -65 222q-74 -49 -103 -99q-25 -41 -51 -135q-44 -22 -116 -22q-9 19 -9 43zM207 974v8q47 82 160 231q32 24 96 73 h58l25 -31q-5 -56 -76.5 -127t-71.5 -154q0 -41 11 -119.5t11 -119.5q0 -24 -9 -41l-25 -12q-19 32 -19 99q27 46 27 131q0 104 -30 152q-21 -22 -74 -52t-83 -38zM213 157q19 -26 67 -65h60v9q39 61 39 191q0 31 -9 65l-25 13q-77 -71 -92 -92q-40 -53 -40 -121zM396 225 l14 -68l22 -22h8q24 24 49 48t25 61q13 29 13 106q0 85 -17 107q-59 -24 -73 -34q-33 -24 -33 -71q0 -16 5.5 -46t5.5 -45q0 -3 -19 -36zM396 492q20 -18 48 -18l68 38q24 17 24 75q0 51 -26 116q-29 72 -70 89l-36 -48z" />
<glyph unicode="&#xe2;" horiz-adv-x="804" d="M49 582q18 22 65 111q38 70 79 99q27 20 87.5 41.5t86.5 36.5q152 0 215 -49q75 -56 75 -203q0 -53 -8.5 -159t-8.5 -159q0 -141 48 -191h48q30 33 35 36q21 19 43 24l3 -34q-116 -135 -116 -178q0 -27 4.5 -80.5t4.5 -81.5q0 -3 -14 -60q-8 -34 -8 -109q0 -54 13 -261 q-17 -8 -35 -8q-9 17 -9 34q0 29 11 87t11 87q0 37 -11 113t-11 114v186q-29 44 -121 70q-7 -21 -22 -62l-17 -8q0 8 1 39v41q0 46 -15 63q-111 -58 -130 -121q9 -92 9 -121q0 -24 -5 -123q-4 -75 0 -121l-21 -5q-5 114 -5 370q-19 17 -39 17q-22 0 -48 -39q3 -111 9 -335 l-17 -8q-28 1 -26 39q12 31 12 125q0 163 -9 179q-13 25 -41 31q-41 8 -49 13q-14 9 -48 57v17q0 95 65 182q58 77 148 126q29 12 79 48q26 33 26 121q0 202 -65 222q-74 -49 -103 -99q-25 -41 -51 -135q-44 -22 -116 -22q-9 19 -9 43zM165 1001l331 396q23 -14 99 -118 q81 -92 239 -278q-20 -22 -47 -44q-31 27 -98 107l-193 232l-283 -339h-5zM213 157q19 -26 67 -65h60v9q39 61 39 191q0 31 -9 65l-25 13q-77 -71 -92 -92q-40 -53 -40 -121zM396 225l14 -68l22 -22h8q24 24 49 48t25 61q13 29 13 106q0 85 -17 107q-59 -24 -73 -34 q-33 -24 -33 -71q0 -16 5.5 -46t5.5 -45q0 -3 -19 -36zM396 492q20 -18 48 -18l68 38q24 17 24 75q0 51 -26 116q-29 72 -70 89l-36 -48z" />
<glyph unicode="&#xe3;" horiz-adv-x="804" d="M49 582q18 22 65 111q38 70 79 99q27 20 87.5 41.5t86.5 36.5q152 0 215 -49q75 -56 75 -203q0 -53 -8.5 -159t-8.5 -159q0 -141 48 -191h48q30 33 35 36q21 19 43 24l3 -34q-116 -135 -116 -178q0 -27 4.5 -80.5t4.5 -81.5q0 -3 -14 -60q-8 -34 -8 -109q0 -54 13 -261 q-17 -8 -35 -8q-9 17 -9 34q0 29 11 87t11 87q0 37 -11 113t-11 114v186q-29 44 -121 70q-7 -21 -22 -62l-17 -8q0 8 1 39v41q0 46 -15 63q-111 -58 -130 -121q9 -92 9 -121q0 -24 -5 -123q-4 -75 0 -121l-21 -5q-5 114 -5 370q-19 17 -39 17q-22 0 -48 -39q3 -111 9 -335 l-17 -8q-28 1 -26 39q12 31 12 125q0 163 -9 179q-13 25 -41 31q-41 8 -49 13q-14 9 -48 57v17q0 95 65 182q58 77 148 126q29 12 79 48q26 33 26 121q0 202 -65 222q-74 -49 -103 -99q-25 -41 -51 -135q-44 -22 -116 -22q-9 19 -9 43zM125 1008q-2 65 37 108.5t103 43.5 q63 0 169.5 -52t159.5 -52q106 0 114 104h26q-7 -99 -79 -144l-25 -82q0 40 -14 52q-2 1 -48 22l-17 -21v-118h-17q-5 12 -5 26q9 15 9 53q0 75 -43 77q-15 -41 -15 -149q0 -63 6 -158l-5 -11l-8 5l-5 9q12 24 12 85v156q0 70 -47 90l-17 -17v-275q-8 0 -17 -5q-5 10 -5 31 v5q14 27 14 116q0 172 -56 176q-19 -22 -19 -27q0 -16 2.5 -46t2.5 -45l-22 -8q-2 11 -12 34l-9 -4q-12 26 -10 86l-26 35q-39 -30 -39 -121v-15v-63q0 -14 8.5 -38.5t8.5 -36.5q-7 -4 -25 -4q-9 16 -9 31q17 27 17 104q0 68 -12 113q-10 5 -22 8q-10 -27 -34 -78h-27z M213 157q19 -26 67 -65h60v9q39 61 39 191q0 31 -9 65l-25 13q-77 -71 -92 -92q-40 -53 -40 -121zM305 1030q0 -10 7 -22q0 3 2 11t2 13v18q0 11 -9 19q0 -3 -2 -13v-12v-14zM396 225l14 -68l22 -22h8q24 24 49 48t25 61q13 29 13 106q0 85 -17 107q-59 -24 -73 -34 q-33 -24 -33 -71q0 -16 5.5 -46t5.5 -45q0 -3 -19 -36zM396 492q20 -18 48 -18l68 38q24 17 24 75q0 51 -26 116q-29 72 -70 89l-36 -48zM616 800q5 11 14 104q12 -21 12 -57v-100q-9 -7 -17 -9l-4 5z" />
<glyph unicode="&#xe4;" horiz-adv-x="804" d="M49 582q18 22 65 111q38 70 79 99q27 20 87.5 41.5t86.5 36.5q152 0 215 -49q75 -56 75 -203q0 -53 -8.5 -159t-8.5 -159q0 -141 48 -191h48q30 33 35 36q21 19 43 24l3 -34q-116 -135 -116 -178q0 -27 4.5 -80.5t4.5 -81.5q0 -3 -14 -60q-8 -34 -8 -109q0 -54 13 -261 q-17 -8 -35 -8q-9 17 -9 34q0 29 11 87t11 87q0 37 -11 113t-11 114v186q-29 44 -121 70q-7 -21 -22 -62l-17 -8q0 8 1 39v41q0 46 -15 63q-111 -58 -130 -121q9 -92 9 -121q0 -24 -5 -123q-4 -75 0 -121l-21 -5q-5 114 -5 370q-19 17 -39 17q-22 0 -48 -39q3 -111 9 -335 l-17 -8q-28 1 -26 39q12 31 12 125q0 163 -9 179q-13 25 -41 31q-41 8 -49 13q-14 9 -48 57v17q0 95 65 182q58 77 148 126q29 12 79 48q26 33 26 121q0 202 -65 222q-74 -49 -103 -99q-25 -41 -51 -135q-44 -22 -116 -22q-9 19 -9 43zM213 157q19 -26 67 -65h60v9 q39 61 39 191q0 31 -9 65l-25 13q-77 -71 -92 -92q-40 -53 -40 -121zM273 1071q0 61 83 118h14q75 0 103 -43q22 -32 22 -109q-75 -84 -84 -106q-14 -31 -12 -130l-25 -8q-12 24 -14 66q0 53 -3.5 69.5t-46.5 62.5q-37 39 -37 80zM396 225l14 -68l22 -22h8q24 24 49 48 t25 61q13 29 13 106q0 85 -17 107q-59 -24 -73 -34q-33 -24 -33 -71q0 -16 5.5 -46t5.5 -45q0 -3 -19 -36zM396 492q20 -18 48 -18l68 38q24 17 24 75q0 51 -26 116q-29 72 -70 89l-36 -48zM740 1083q0 55 88 113l78 -9q56 -60 56 -104q0 -48 -70 -109h-17q-49 0 -92 30.5 t-43 78.5z" />
<glyph unicode="&#xe5;" horiz-adv-x="804" d="M49 582q18 22 65 111q38 70 79 99q27 20 87.5 41.5t86.5 36.5q152 0 215 -49q75 -56 75 -203q0 -53 -8.5 -159t-8.5 -159q0 -141 48 -191h48q30 33 35 36q21 19 43 24l3 -34q-116 -135 -116 -178q0 -27 4.5 -80.5t4.5 -81.5q0 -3 -14 -60q-8 -34 -8 -109q0 -54 13 -261 q-17 -8 -35 -8q-9 17 -9 34q0 29 11 87t11 87q0 37 -11 113t-11 114v186q-29 44 -121 70q-7 -21 -22 -62l-17 -8q0 8 1 39v41q0 46 -15 63q-111 -58 -130 -121q9 -92 9 -121q0 -24 -5 -123q-4 -75 0 -121l-21 -5q-5 114 -5 370q-19 17 -39 17q-22 0 -48 -39q3 -111 9 -335 l-17 -8q-28 1 -26 39q12 31 12 125q0 163 -9 179q-13 25 -41 31q-41 8 -49 13q-14 9 -48 57v17q0 95 65 182q58 77 148 126q29 12 79 48q26 33 26 121q0 202 -65 222q-74 -49 -103 -99q-25 -41 -51 -135q-44 -22 -116 -22q-9 19 -9 43zM213 157q19 -26 67 -65h60v9 q39 61 39 191q0 31 -9 65l-25 13q-77 -71 -92 -92q-40 -53 -40 -121zM230 1257q0 70 36 135.5t94 101.5q38 10 113 38h3q120 0 207 -72q94 -77 94 -193q0 -73 -41 -136q-19 -29 -77 -89q-41 -43 -41 -67q0 -17 3 -44q4 -32 4 -44v-120q0 -44 3 -82l-17 -7l-5 21q10 19 10 61 q0 21 -6 62t-6 61q0 14 3.5 40.5t3.5 39.5q0 14 -3 28q-16 10 -31 12l-7 -4l-27 -39q12 -96 12 -104q0 -19 -3.5 -56.5t-3.5 -56.5q0 -37 3 -114l-12 -3q-10 13 -10 51q0 13 1.5 38t4.5 35t3 24q0 12 -4.5 37.5t-4.5 37.5q0 15 4.5 46t4.5 46q0 50 -48 50h-4 q-10 -17 -15 -56.5t-14 -56.5q0 120 -53 128q-22 -31 -22 -78q0 -6 5 -91q-10 -7 -20 -7q-7 14 -7 29q9 17 9 55q0 92 -23 126q-116 68 -116 217zM317 1264q0 -46 21 -91q26 -53 66 -59q21 22 21 59q0 24 -4.5 71t-4.5 71q0 10 5.5 28t5.5 28q0 29 -29 41q-81 -75 -81 -148z M396 225l14 -68l22 -22h8q24 24 49 48t25 61q13 29 13 106q0 85 -17 107q-59 -24 -73 -34q-33 -24 -33 -71q0 -16 5.5 -46t5.5 -45q0 -3 -19 -36zM396 492q20 -18 48 -18l68 38q24 17 24 75q0 51 -26 116q-29 72 -70 89l-36 -48zM433 1376q0 -13 6 -41.5t6 -41.5 q0 -26 -4 -74.5t-4 -74.5q0 -59 39 -63q10 -5 29 -5q68 0 123 58t55 126q0 77 -58 137q-31 -15 -31 -58q0 -15 4 -41.5t4 -38.5l-13 -4l-2 28q9 15 9 49q0 96 -45 102q-17 -17 -17 -73q0 -34 2 -95q3 -67 3 -96l-18 -3v6q-7 16 -7 41q0 19 6 57.5t6 57.5q0 47 -12 105 q-12 9 -38 9q-7 0 -12 -2q-31 -49 -31 -65zM447 783v25q0 4 10 51q16 -29 16 -82q0 -6 -4 -18q-5 -5 -15 -7q-7 13 -7 31z" />
<glyph unicode="&#xe6;" horiz-adv-x="1439" d="M89 582q17 22 65 109q37 70 78 101q27 20 85 41q65 22 89 37q113 0 173 -23q85 -36 107 -130q116 135 294 135q133 0 226 -89t91 -220h-126q-26 -38 -26 -57q0 -15 13 -40.5t13 -41.5q0 -23 -34 -25l-17 20q17 57 17 79q0 65 -101 65q-27 -45 -27 -135v-46q1 -29 1 -45 q0 -83 -22 -129l-12 182q-31 2 -31 34q0 12 9 35.5t9 34.5q0 67 -70 65q-21 -41 -21 -126q0 -24 2 -68.5t2 -66.5l-26 -3l-9 68h-17q-13 29 -13 75q13 24 13 51q0 46 -34 62q-20 8 -75 8v-8q-8 -17 -8 -45q0 -218 119 -329q14 9 27 12l4 -34q46 -29 97 -34q14 18 39 56 q2 -75 79 -75q71 17 89 23t73 46t68 57l4 -3l5 -57q-135 -95 -135 -179q0 -15 4 -45t4 -45q0 -51 -6.5 -152.5t-6.5 -153.5q0 -22 11 -67t11 -67q0 -28 -3 -48h-45v8q-8 21 -8 48q0 26 11 74.5t11 74.5q0 22 -11 67t-11 67q0 28 8.5 83.5t8.5 82.5q0 41 -9 87q-27 20 -51 22 q-32 -17 -63 -36q-38 -24 -38 -56q0 -19 7 -55.5t7 -53.5q-14 -9 -27 -9q-26 0 -26 45q0 13 4.5 40.5t4.5 40.5q0 43 -31 53q-22 -44 -22 -138.5t-21 -135.5v104q0 205 -112 205q-36 0 -36 -52v-87q1 -58 1 -87q0 -100 -15 -109q0 -10 10.5 -27t10.5 -26q0 -31 -6 -128 q-5 -80 -1 -128q-17 -8 -36 -8q-9 17 -9 34q0 29 11.5 87t11.5 87q0 37 -11.5 113t-11.5 114v186q-29 44 -121 70q-7 -21 -22 -62l-17 -8q0 8 2 39v41q0 46 -16 63q-111 -58 -129 -121q8 -92 8 -121q0 -33 -3.5 -95t-3.5 -95q0 -35 2 -54l-21 -5q-5 114 -5 370 q-18 17 -39 17q-22 0 -48 -39q4 -111 9 -335l-17 -8q-28 3 -26 39q12 31 12 171q0 117 -8 133q-14 25 -41 31q-40 8 -52 15t-46 55v17q0 95 65 182q58 77 149 126q29 12 78 48q26 33 26 121q0 202 -65 222q-72 -49 -102 -99q-26 -41 -52 -135q-44 -22 -116 -22q-8 19 -8 43z M253 157q18 -27 66 -65h60v9q39 61 39 191q0 31 -8 65l-26 13q-75 -71 -92 -92q-39 -53 -39 -121zM435 225l14 -68l22 -22h9q23 24 48 48t25 61q14 29 14 82v36q0 73 -17 95q-60 -24 -74 -34q-32 -24 -32 -71q0 -16 5 -46t5 -45q0 -3 -19 -36zM435 492q21 -18 48 -18l68 38 q24 17 24 75q0 51 -25 116q-29 72 -70 89l-36 -48zM729 604q0 -8 3 -17q65 -5 74 -5q8 0 22 5l36 56q6 -56 56 -56q8 0 20 4q23 69 23 114q0 85 -57 87l-48 -92q-6 37 -42 44q-28 -32 -57 -65q-30 -39 -30 -75zM845 474q0 -8 8 -22l-3 40l-5 -14v-4zM876 -399l13 64l26 -95 q-14 -7 -34 -9q-5 41 -5 40zM980 669q0 -73 66 -73q26 0 96 13q15 31 17 57q-46 75 -53 83q-34 38 -87 43l-34 -44q0 -11 -2.5 -37.5t-2.5 -41.5z" />
<glyph unicode="&#xe8;" horiz-adv-x="817" d="M75 391q0 188 109 319q116 142 299 142q133 0 226 -89t91 -220h-126q-25 -38 -25 -57q0 -15 12.5 -40.5t12.5 -41.5q0 -23 -34 -25l-17 20q17 57 17 79q0 65 -101 65q-24 -40 -27 -110q2 35 2 -116q0 -83 -22 -129l-12 182q-31 2 -31 34q0 12 8.5 35.5t8.5 34.5 q0 67 -70 65q-21 -41 -21 -126q0 -24 2 -68.5t2 -66.5l-26 -3l-8 68h-17q-14 29 -14 75q14 24 14 51q0 46 -34 62q-21 8 -76 8v-8q-8 -17 -8 -45q0 -136 56 -244q69 -131 191 -141q14 18 40 56q1 -75 78 -75q72 17 90 23t72.5 46t68.5 57l3 -3l5 -57q-135 -95 -135 -179 q0 -15 4.5 -45t4.5 -45q0 -51 -7 -152.5t-7 -153.5q0 -22 11 -67t11 -67q0 -28 -3 -48h-44v8q-9 21 -9 48q0 26 11 74.5t11 74.5q0 22 -11 67t-11 67q0 28 8.5 83.5t8.5 82.5q0 41 -8 87q-28 20 -52 22q-32 -17 -63 -36q-37 -24 -37 -56q0 -19 6.5 -55.5t6.5 -53.5 q-13 -9 -27 -9q-26 0 -26 45q0 13 4.5 40.5t4.5 40.5q0 43 -31 53q-22 -44 -22 -139.5t-20 -134.5v104q0 205 -113 205q-44 0 -44 -101q0 -39 11 -111q12 -77 14 -109q-17 -12 -34 -14q-14 26 -14 51q0 29 7 85.5t7 85.5q0 78 -76 236t-76 259zM232 604q0 -8 4 -17 q66 -5 73 -5q8 0 22 5l36 56q7 -56 56 -56q9 0 21 4q22 69 22 114q0 85 -56 87l-48 -92q-7 37 -43 44q-27 -32 -56 -65q-31 -39 -31 -75zM256 1216v39l28 31h23q38 0 67 -14q41 -18 125 -136q78 -109 97 -162h-17q-36 42 -92 51q-29 -53 -29 -215q0 -73 12 -341l-26 -9 q-10 26 -10 72v27q1 20 1 27q18 38 18 121q0 318 -43 383q-15 22 -72 63q-68 51 -82 63zM348 474q0 -8 9 -22l-4 40l-5 -14v-4zM379 -399l14 64l25 -95q-14 -7 -34 -9q-5 41 -5 40zM483 669q0 -73 67 -73q25 0 95 13q15 31 17 57q-48 76 -53 83q-34 38 -87 43l-34 -44 q0 -11 -2.5 -37.5t-2.5 -41.5z" />
<glyph unicode="&#xe9;" horiz-adv-x="817" d="M75 391q0 188 109 319q116 142 299 142q133 0 226 -89t91 -220h-126q-25 -38 -25 -57q0 -15 12.5 -40.5t12.5 -41.5q0 -23 -34 -25l-17 20q17 57 17 79q0 65 -101 65q-24 -40 -27 -110q2 35 2 -116q0 -83 -22 -129l-12 182q-31 2 -31 34q0 12 8.5 35.5t8.5 34.5 q0 67 -70 65q-21 -41 -21 -126q0 -24 2 -68.5t2 -66.5l-26 -3l-8 68h-17q-14 29 -14 75q14 24 14 51q0 46 -34 62q-21 8 -76 8v-8q-8 -17 -8 -45q0 -136 56 -244q69 -131 191 -141q14 18 40 56q1 -75 78 -75q72 17 90 23t72.5 46t68.5 57l3 -3l5 -57q-135 -95 -135 -179 q0 -15 4.5 -45t4.5 -45q0 -51 -7 -152.5t-7 -153.5q0 -22 11 -67t11 -67q0 -28 -3 -48h-44v8q-9 21 -9 48q0 26 11 74.5t11 74.5q0 22 -11 67t-11 67q0 28 8.5 83.5t8.5 82.5q0 41 -8 87q-28 20 -52 22q-32 -17 -63 -36q-37 -24 -37 -56q0 -19 6.5 -55.5t6.5 -53.5 q-13 -9 -27 -9q-26 0 -26 45q0 13 4.5 40.5t4.5 40.5q0 43 -31 53q-22 -44 -22 -139.5t-20 -134.5v104q0 205 -113 205q-44 0 -44 -101q0 -39 11 -111q12 -77 14 -109q-17 -12 -34 -14q-14 26 -14 51q0 29 7 85.5t7 85.5q0 78 -76 236t-76 259zM214 974v8q47 82 160 231 q32 24 96 73h58l25 -31q-5 -56 -76.5 -127t-71.5 -154q0 -41 11 -119.5t11 -119.5q0 -24 -9 -41l-25 -12q-19 32 -19 99q27 46 27 131q0 104 -30 152q-21 -22 -74 -52t-83 -38zM232 604q0 -8 4 -17q66 -5 73 -5q8 0 22 5l36 56q7 -56 56 -56q9 0 21 4q22 69 22 114 q0 85 -56 87l-48 -92q-7 37 -43 44q-27 -32 -56 -65q-31 -39 -31 -75zM348 474q0 -8 9 -22l-4 40l-5 -14v-4zM379 -399l14 64l25 -95q-14 -7 -34 -9q-5 41 -5 40zM483 669q0 -73 67 -73q25 0 95 13q15 31 17 57q-48 76 -53 83q-34 38 -87 43l-34 -44q0 -11 -2.5 -37.5 t-2.5 -41.5z" />
<glyph unicode="&#xea;" horiz-adv-x="817" d="M75 391q0 188 109 319q116 142 299 142q133 0 226 -89t91 -220h-126q-25 -38 -25 -57q0 -15 12.5 -40.5t12.5 -41.5q0 -23 -34 -25l-17 20q17 57 17 79q0 65 -101 65q-24 -40 -27 -110q2 35 2 -116q0 -83 -22 -129l-12 182q-31 2 -31 34q0 12 8.5 35.5t8.5 34.5 q0 67 -70 65q-21 -41 -21 -126q0 -24 2 -68.5t2 -66.5l-26 -3l-8 68h-17q-14 29 -14 75q14 24 14 51q0 46 -34 62q-21 8 -76 8v-8q-8 -17 -8 -45q0 -136 56 -244q69 -131 191 -141q14 18 40 56q1 -75 78 -75q72 17 90 23t72.5 46t68.5 57l3 -3l5 -57q-135 -95 -135 -179 q0 -15 4.5 -45t4.5 -45q0 -51 -7 -152.5t-7 -153.5q0 -22 11 -67t11 -67q0 -28 -3 -48h-44v8q-9 21 -9 48q0 26 11 74.5t11 74.5q0 22 -11 67t-11 67q0 28 8.5 83.5t8.5 82.5q0 41 -8 87q-28 20 -52 22q-32 -17 -63 -36q-37 -24 -37 -56q0 -19 6.5 -55.5t6.5 -53.5 q-13 -9 -27 -9q-26 0 -26 45q0 13 4.5 40.5t4.5 40.5q0 43 -31 53q-22 -44 -22 -139.5t-20 -134.5v104q0 205 -113 205q-44 0 -44 -101q0 -39 11 -111q12 -77 14 -109q-17 -12 -34 -14q-14 26 -14 51q0 29 7 85.5t7 85.5q0 78 -76 236t-76 259zM232 604q0 -8 4 -17 q66 -5 73 -5q8 0 22 5l36 56q7 -56 56 -56q9 0 21 4q22 69 22 114q0 85 -56 87l-48 -92q-7 37 -43 44q-27 -32 -56 -65q-31 -39 -31 -75zM251 967l331 396q23 -14 99 -118q81 -92 239 -278q-20 -22 -47 -44q-31 27 -98 107l-193 232l-283 -339h-5zM348 474q0 -8 9 -22l-4 40 l-5 -14v-4zM379 -399l14 64l25 -95q-14 -7 -34 -9q-5 41 -5 40zM483 669q0 -73 67 -73q25 0 95 13q15 31 17 57q-48 76 -53 83q-34 38 -87 43l-34 -44q0 -11 -2.5 -37.5t-2.5 -41.5z" />
<glyph unicode="&#xeb;" horiz-adv-x="817" d="M75 391q0 188 109 319q116 142 299 142q133 0 226 -89t91 -220h-126q-25 -38 -25 -57q0 -15 12.5 -40.5t12.5 -41.5q0 -23 -34 -25l-17 20q17 57 17 79q0 65 -101 65q-24 -40 -27 -110q2 35 2 -116q0 -83 -22 -129l-12 182q-31 2 -31 34q0 12 8.5 35.5t8.5 34.5 q0 67 -70 65q-21 -41 -21 -126q0 -24 2 -68.5t2 -66.5l-26 -3l-8 68h-17q-14 29 -14 75q14 24 14 51q0 46 -34 62q-21 8 -76 8v-8q-8 -17 -8 -45q0 -136 56 -244q69 -131 191 -141q14 18 40 56q1 -75 78 -75q72 17 90 23t72.5 46t68.5 57l3 -3l5 -57q-135 -95 -135 -179 q0 -15 4.5 -45t4.5 -45q0 -51 -7 -152.5t-7 -153.5q0 -22 11 -67t11 -67q0 -28 -3 -48h-44v8q-9 21 -9 48q0 26 11 74.5t11 74.5q0 22 -11 67t-11 67q0 28 8.5 83.5t8.5 82.5q0 41 -8 87q-28 20 -52 22q-32 -17 -63 -36q-37 -24 -37 -56q0 -19 6.5 -55.5t6.5 -53.5 q-13 -9 -27 -9q-26 0 -26 45q0 13 4.5 40.5t4.5 40.5q0 43 -31 53q-22 -44 -22 -139.5t-20 -134.5v104q0 205 -113 205q-44 0 -44 -101q0 -39 11 -111q12 -77 14 -109q-17 -12 -34 -14q-14 26 -14 51q0 29 7 85.5t7 85.5q0 78 -76 236t-76 259zM232 604q0 -8 4 -17 q66 -5 73 -5q8 0 22 5l36 56q7 -56 56 -56q9 0 21 4q22 69 22 114q0 85 -56 87l-48 -92q-7 37 -43 44q-27 -32 -56 -65q-31 -39 -31 -75zM341 1071q0 61 83 118h14q75 0 103 -43q22 -32 22 -109q-75 -84 -84 -106q-14 -31 -12 -130l-25 -8q-12 24 -14 66q0 53 -3.5 69.5 t-46.5 62.5q-37 39 -37 80zM348 474q0 -8 9 -22l-4 40l-5 -14v-4zM379 -399l14 64l25 -95q-14 -7 -34 -9q-5 41 -5 40zM483 669q0 -73 67 -73q25 0 95 13q15 31 17 57q-48 76 -53 83q-34 38 -87 43l-34 -44q0 -11 -2.5 -37.5t-2.5 -41.5zM808 1083q0 55 88 113l78 -9 q56 -60 56 -104q0 -48 -70 -109h-17q-49 0 -92 30.5t-43 78.5z" />
<glyph unicode="&#xec;" horiz-adv-x="544" d="M-35 1267v39l28 31h23q38 0 67 -14q41 -18 125 -136q78 -109 97 -162h-17q-36 42 -92 51q-29 -53 -29 -215q0 -73 12 -341l-26 -9q-10 26 -10 72v27q1 20 1 27q18 38 18 121q0 318 -43 383q-15 22 -72 63q-68 51 -82 63zM31 5q13 29 71 44q45 11 89 21q36 65 36 253 q0 116 -14 343q-63 46 -121 51v39q60 9 139.5 74.5t108.5 68.5l3 -699q-17 -31 -17 -60q0 -87 166 -118l5 -31l-140 4q-31 -85 -31 -203q0 -46 4.5 -139t4.5 -136l-12 -9q-23 9 -23 57q0 49 4.5 147.5t4.5 147.5q0 108 -51 131v-8q-40 -31 -40 -87q0 -31 9 -85 q10 -60 12 -86q-19 -12 -51 -12q-9 21 -9 40q0 29 13 84t13 84q0 79 -97 79q-19 0 -72 -5z" />
<glyph unicode="&#xed;" horiz-adv-x="544" d="M31 5q13 29 71 44q45 11 89 21q36 65 36 253q0 116 -14 343q-63 46 -121 51v39q60 9 139.5 74.5t108.5 68.5l3 -699q-17 -31 -17 -60q0 -87 166 -118l5 -31l-140 4q-31 -85 -31 -203q0 -46 4.5 -139t4.5 -136l-12 -9q-23 9 -23 57q0 49 4.5 147.5t4.5 147.5 q0 108 -51 131v-8q-40 -31 -40 -87q0 -31 9 -85q10 -60 12 -86q-19 -12 -51 -12q-9 21 -9 40q0 29 13 84t13 84q0 79 -97 79q-19 0 -72 -5zM180 974v8q47 82 160 231q32 24 96 73h58l25 -31q-5 -56 -76.5 -127t-71.5 -154q0 -41 11 -119.5t11 -119.5q0 -24 -9 -41l-25 -12 q-19 32 -19 99q27 46 27 131q0 104 -30 152q-21 -22 -74 -52t-83 -38z" />
<glyph unicode="&#xee;" horiz-adv-x="544" d="M31 5q13 29 71 44q45 11 89 21q36 65 36 253q0 116 -14 343q-63 46 -121 51v39q60 9 139.5 74.5t108.5 68.5l3 -699q-17 -31 -17 -60q0 -87 166 -118l5 -31l-140 4q-31 -85 -31 -203q0 -46 4.5 -139t4.5 -136l-12 -9q-23 9 -23 57q0 49 4.5 147.5t4.5 147.5 q0 108 -51 131v-8q-40 -31 -40 -87q0 -31 9 -85q10 -60 12 -86q-19 -12 -51 -12q-9 21 -9 40q0 29 13 84t13 84q0 79 -97 79q-19 0 -72 -5zM114 967l331 396q23 -14 99 -118q81 -92 239 -278q-20 -22 -47 -44q-31 27 -98 107l-193 232l-283 -339h-5z" />
<glyph unicode="&#xef;" horiz-adv-x="544" d="M31 5q13 29 71 44q45 11 89 21q36 65 36 253q0 116 -14 343q-63 46 -121 51v39q60 9 139.5 74.5t108.5 68.5l3 -699q-17 -31 -17 -60q0 -87 166 -118l5 -31l-140 4q-31 -85 -31 -203q0 -46 4.5 -139t4.5 -136l-12 -9q-23 9 -23 57q0 49 4.5 147.5t4.5 147.5 q0 108 -51 131v-8q-40 -31 -40 -87q0 -31 9 -85q10 -60 12 -86q-19 -12 -51 -12q-9 21 -9 40q0 29 13 84t13 84q0 79 -97 79q-19 0 -72 -5zM138 1122q0 61 83 118h14q75 0 103 -43q22 -32 22 -109q-75 -84 -84 -106q-14 -31 -12 -130l-25 -8q-12 24 -14 66q0 53 -3.5 69.5 t-46.5 62.5q-37 39 -37 80zM605 1134q0 55 88 113l78 -9q56 -60 56 -104q0 -48 -70 -109h-17q-49 0 -92 30.5t-43 78.5z" />
<glyph unicode="&#xf1;" horiz-adv-x="1070" d="M84 0v39l134 26q26 49 26 165v209q0 88 -22 170q-34 12 -99 43l-5 36q80 20 124 61q28 34 53 68q36 45 67 48l8 -157h5q57 65 151 102.5t184 37.5q145 0 205 -99q46 -77 46 -232q0 -53 -6 -158.5t-6 -158.5q0 -65 8 -113q41 -12 81 -24q53 -19 58 -49l-4 -14q-22 0 -75 2 h-75q-48 0 -72 -7q-34 -56 -34 -186q0 -31 2 -85q2 -62 2 -84l-9 -5l-14 5q-8 14 -8 56q17 33 17 96q0 177 -43 203h-53q-44 0 -68 5v26q12 22 57 25q56 5 71 12q36 19 36 80q0 19 -4.5 55t-4.5 55v71q2 46 2 70q0 226 -53 311q-39 -16 -39 -62q0 -15 1.5 -45.5t1.5 -44.5 l-25 -5q-10 19 -12 39q12 24 12 56q0 38 -39 87q-48 -18 -48 -109q0 -30 6.5 -86.5t6.5 -82.5l-30 -5l-14 27q27 52 27 122q0 140 -70 140q-12 0 -22 -6l-39 -64q0 -23 2 -75v-74q0 -49 -7 -145.5t-7 -146.5q0 -75 12 -112q22 -36 53 -113h-70q-43 -68 -43 -208 q0 -51 5 -142q7 -101 7 -142l-31 -13q-11 15 -11 36q0 13 8.5 40.5t8.5 41.5q0 22 -7 65.5t-7 65.5q0 26 7 76t7 76q0 75 -48 104v-5q-16 -14 -24.5 -38.5t-14.5 -48.5q1 97 -134 97q2 0 -105 -5zM288 -253l35 93q23 -41 25 -110q-20 -13 -41 -13h-7zM330 1025 q-2 65 37 108.5t103 43.5q63 0 169.5 -52t159.5 -52q106 0 114 104h26q-7 -99 -79 -144l-25 -82q0 40 -14 52q-2 1 -48 22l-17 -21v-118h-17q-5 12 -5 26q9 15 9 53q0 75 -43 77q-15 -41 -15 -149q0 -63 6 -158l-5 -11l-8 5l-5 9q12 24 12 85v156q0 70 -47 90l-17 -17v-275 q-8 0 -17 -5q-5 10 -5 31v5q14 27 14 116q0 172 -56 176q-19 -22 -19 -27q0 -16 2.5 -46t2.5 -45l-22 -8q-2 11 -12 34l-9 -4q-12 26 -10 86l-26 35q-39 -30 -39 -121v-15v-63q0 -14 8.5 -38.5t8.5 -36.5q-7 -4 -25 -4q-9 16 -9 31q17 27 17 104q0 68 -12 113q-10 5 -22 8 q-10 -27 -34 -78h-27zM362 174l5 -31q8 -56 10 -56q9 -22 50 -22q47 148 47 353q0 142 -25 239l-39 17l-48 -44v-456zM510 1047q0 -10 7 -22q0 3 2 11t2 13v18q0 11 -9 19q0 -3 -2 -13v-12v-14zM821 817q5 11 14 104q12 -21 12 -57v-100q-9 -7 -17 -9l-4 5z" />
<glyph unicode="&#xf2;" horiz-adv-x="973" d="M73 408q0 232 169 362q113 87 318 87q172 0 303.5 -136t131.5 -308q0 -125 -68 -213q-65 -65 -128 -132q-69 -73 -69 -160q0 -43 9 -126.5t9 -124.5l-35 -9l-8 4q-5 46 -5 70q0 51 8 235q-13 41 -56 48l-53 -19q-34 -37 -34 -107q0 -26 4 -74.5t4 -74.5q0 -53 -22 -95 q-20 78 -20 118q0 25 10 75.5t10 75.5q0 81 -82 82l-34 -47q12 -164 12 -168q0 -15 -11 -45.5t-11 -48.5q0 -23 7 -72.5t7 -73.5q0 -17 -4 -36l-31 -4l-5 14q9 210 9 225q0 16 -6 44t-6 43q0 16 4 44t4 43q0 86 -47 101q-16 -22 -31 -22q-9 0 -26 31q-22 39 -23.5 41.5 t-64 46t-101.5 137.5q-38 85 -38 169zM225 418q0 -150 67 -263q78 -133 220 -133q154 0 244 135q79 116 79 278q0 123 -50 220q-56 115 -164 145q-17 -54 -13 -151l-21 -14q-36 5 -36 48q0 13 7 40.5t7 41.5q0 25 -22 39l-60 8l-36 -12l-25 -61l-6 -273q0 -21 6 -53 q6 -39 8 -53l-34 -3l-19 17q27 116 27 235q0 132 -52 144q-70 -84 -98.5 -155.5t-28.5 -179.5zM300 -244q11 34 21 104l22 -107q-14 -7 -31 -9zM333 1216v39l28 31h23q38 0 67 -14q41 -18 125 -136q78 -109 97 -162h-17q-36 42 -92 51q-29 -53 -29 -215q0 -73 12 -341 l-26 -9q-10 26 -10 72v27q1 20 1 27q18 38 18 121q0 318 -43 383q-15 22 -72 63q-68 51 -82 63zM531 -669q22 44 20 195q22 -47 22 -152q0 -40 -13 -57l-17 -5z" />
<glyph unicode="&#xf3;" horiz-adv-x="973" d="M73 408q0 232 169 362q113 87 318 87q172 0 303.5 -136t131.5 -308q0 -125 -68 -213q-65 -65 -128 -132q-69 -73 -69 -160q0 -43 9 -126.5t9 -124.5l-35 -9l-8 4q-5 46 -5 70q0 51 8 235q-13 41 -56 48l-53 -19q-34 -37 -34 -107q0 -26 4 -74.5t4 -74.5q0 -53 -22 -95 q-20 78 -20 118q0 25 10 75.5t10 75.5q0 81 -82 82l-34 -47q12 -164 12 -168q0 -15 -11 -45.5t-11 -48.5q0 -23 7 -72.5t7 -73.5q0 -17 -4 -36l-31 -4l-5 14q9 210 9 225q0 16 -6 44t-6 43q0 16 4 44t4 43q0 86 -47 101q-16 -22 -31 -22q-9 0 -26 31q-22 39 -23.5 41.5 t-64 46t-101.5 137.5q-38 85 -38 169zM225 418q0 -150 67 -263q78 -133 220 -133q154 0 244 135q79 116 79 278q0 123 -50 220q-56 115 -164 145q-17 -54 -13 -151l-21 -14q-36 5 -36 48q0 13 7 40.5t7 41.5q0 25 -22 39l-60 8l-36 -12l-25 -61l-6 -273q0 -21 6 -53 q6 -39 8 -53l-34 -3l-19 17q27 116 27 235q0 132 -52 144q-70 -84 -98.5 -155.5t-28.5 -179.5zM291 974v8q47 82 160 231q32 24 96 73h58l25 -31q-5 -56 -76.5 -127t-71.5 -154q0 -41 11 -119.5t11 -119.5q0 -24 -9 -41l-25 -12q-19 32 -19 99q27 46 27 131q0 104 -30 152 q-21 -22 -74 -52t-83 -38zM300 -244q11 34 21 104l22 -107q-14 -7 -31 -9zM531 -669q22 44 20 195q22 -47 22 -152q0 -40 -13 -57l-17 -5z" />
<glyph unicode="&#xf4;" horiz-adv-x="973" d="M73 408q0 232 169 362q113 87 318 87q172 0 303.5 -136t131.5 -308q0 -125 -68 -213q-65 -65 -128 -132q-69 -73 -69 -160q0 -43 9 -126.5t9 -124.5l-35 -9l-8 4q-5 46 -5 70q0 51 8 235q-13 41 -56 48l-53 -19q-34 -37 -34 -107q0 -26 4 -74.5t4 -74.5q0 -53 -22 -95 q-20 78 -20 118q0 25 10 75.5t10 75.5q0 81 -82 82l-34 -47q12 -164 12 -168q0 -15 -11 -45.5t-11 -48.5q0 -23 7 -72.5t7 -73.5q0 -17 -4 -36l-31 -4l-5 14q9 210 9 225q0 16 -6 44t-6 43q0 16 4 44t4 43q0 86 -47 101q-16 -22 -31 -22q-9 0 -26 31q-22 39 -23.5 41.5 t-64 46t-101.5 137.5q-38 85 -38 169zM225 418q0 -150 67 -263q78 -133 220 -133q154 0 244 135q79 116 79 278q0 123 -50 220q-56 115 -164 145q-17 -54 -13 -151l-21 -14q-36 5 -36 48q0 13 7 40.5t7 41.5q0 25 -22 39l-60 8l-36 -12l-25 -61l-6 -273q0 -21 6 -53 q6 -39 8 -53l-34 -3l-19 17q27 116 27 235q0 132 -52 144q-70 -84 -98.5 -155.5t-28.5 -179.5zM285 1001l331 396q23 -14 99 -118q81 -92 239 -278q-20 -22 -47 -44q-31 27 -98 107l-193 232l-283 -339h-5zM300 -244q11 34 21 104l22 -107q-14 -7 -31 -9zM531 -669 q22 44 20 195q22 -47 22 -152q0 -40 -13 -57l-17 -5z" />
<glyph unicode="&#xf5;" horiz-adv-x="973" d="M73 408q0 232 169 362q113 87 318 87q172 0 303.5 -136t131.5 -308q0 -125 -68 -213q-65 -65 -128 -132q-69 -73 -69 -160q0 -43 9 -126.5t9 -124.5l-35 -9l-8 4q-5 46 -5 70q0 51 8 235q-13 41 -56 48l-53 -19q-34 -37 -34 -107q0 -26 4 -74.5t4 -74.5q0 -53 -22 -95 q-20 78 -20 118q0 25 10 75.5t10 75.5q0 81 -82 82l-34 -47q12 -164 12 -168q0 -15 -11 -45.5t-11 -48.5q0 -23 7 -72.5t7 -73.5q0 -17 -4 -36l-31 -4l-5 14q9 210 9 225q0 16 -6 44t-6 43q0 16 4 44t4 43q0 86 -47 101q-16 -22 -31 -22q-9 0 -26 31q-22 39 -23.5 41.5 t-64 46t-101.5 137.5q-38 85 -38 169zM225 418q0 -150 67 -263q78 -133 220 -133q154 0 244 135q79 116 79 278q0 123 -50 220q-56 115 -164 145q-17 -54 -13 -151l-21 -14q-36 5 -36 48q0 13 7 40.5t7 41.5q0 25 -22 39l-60 8l-36 -12l-25 -61l-6 -273q0 -21 6 -53 q6 -39 8 -53l-34 -3l-19 17q27 116 27 235q0 132 -52 144q-70 -84 -98.5 -155.5t-28.5 -179.5zM262 1025q-2 65 37 108.5t103 43.5q63 0 169.5 -52t159.5 -52q106 0 114 104h26q-7 -99 -79 -144l-25 -82q0 40 -14 52q-2 1 -48 22l-17 -21v-118h-17q-5 12 -5 26q9 15 9 53 q0 75 -43 77q-15 -41 -15 -149q0 -63 6 -158l-5 -11l-8 5l-5 9q12 24 12 85v156q0 70 -47 90l-17 -17v-275q-8 0 -17 -5q-5 10 -5 31v5q14 27 14 116q0 172 -56 176q-19 -22 -19 -27q0 -16 2.5 -46t2.5 -45l-22 -8q-2 11 -12 34l-9 -4q-12 26 -10 86l-26 35 q-39 -30 -39 -121v-15v-63q0 -14 8.5 -38.5t8.5 -36.5q-7 -4 -25 -4q-9 16 -9 31q17 27 17 104q0 68 -12 113q-10 5 -22 8q-10 -27 -34 -78h-27zM300 -244q11 34 21 104l22 -107q-14 -7 -31 -9zM442 1047q0 -10 7 -22q0 3 2 11t2 13v18q0 11 -9 19q0 -3 -2 -13v-12v-14z M531 -669q22 44 20 195q22 -47 22 -152q0 -40 -13 -57l-17 -5zM753 817q5 11 14 104q12 -21 12 -57v-100q-9 -7 -17 -9l-4 5z" />
<glyph unicode="&#xf6;" horiz-adv-x="973" d="M73 408q0 232 169 362q113 87 318 87q172 0 303.5 -136t131.5 -308q0 -125 -68 -213q-65 -65 -128 -132q-69 -73 -69 -160q0 -43 9 -126.5t9 -124.5l-35 -9l-8 4q-5 46 -5 70q0 51 8 235q-13 41 -56 48l-53 -19q-34 -37 -34 -107q0 -26 4 -74.5t4 -74.5q0 -53 -22 -95 q-20 78 -20 118q0 25 10 75.5t10 75.5q0 81 -82 82l-34 -47q12 -164 12 -168q0 -15 -11 -45.5t-11 -48.5q0 -23 7 -72.5t7 -73.5q0 -17 -4 -36l-31 -4l-5 14q9 210 9 225q0 16 -6 44t-6 43q0 16 4 44t4 43q0 86 -47 101q-16 -22 -31 -22q-9 0 -26 31q-22 39 -23.5 41.5 t-64 46t-101.5 137.5q-38 85 -38 169zM225 418q0 -150 67 -263q78 -133 220 -133q154 0 244 135q79 116 79 278q0 123 -50 220q-56 115 -164 145q-17 -54 -13 -151l-21 -14q-36 5 -36 48q0 13 7 40.5t7 41.5q0 25 -22 39l-60 8l-36 -12l-25 -61l-6 -273q0 -21 6 -53 q6 -39 8 -53l-34 -3l-19 17q27 116 27 235q0 132 -52 144q-70 -84 -98.5 -155.5t-28.5 -179.5zM300 -244q11 34 21 104l22 -107q-14 -7 -31 -9zM376 1071q0 61 83 118h14q75 0 103 -43q22 -32 22 -109q-75 -84 -84 -106q-14 -31 -12 -130l-25 -8q-12 24 -14 66 q0 53 -3.5 69.5t-46.5 62.5q-37 39 -37 80zM531 -669q22 44 20 195q22 -47 22 -152q0 -40 -13 -57l-17 -5zM843 1083q0 55 88 113l78 -9q56 -60 56 -104q0 -48 -70 -109h-17q-49 0 -92 30.5t-43 78.5z" />
<glyph unicode="&#xf7;" horiz-adv-x="891" d="M82 761l3 79h333q2 30 -5 94q-3 18 -46 63q-38 39 -38 80q0 61 84 118h14q75 0 102 -43q22 -32 22 -109q-70 -79 -75 -89q-20 -36 -20 -114h339q14 -12 22 -92h-64q-53 -77 -53 -231q0 -37 5 -109.5t5 -107.5l-22 -8l-5 87q13 29 13 104q0 203 -39 247l-224 9 q-44 -55 -54 -188q32 31 51 31q46 0 82 -21q44 -23 44 -66t-39 -97q-48 -70 -56 -91l-5 10q-45 29 -70 53q13 -153 13 -216q0 -29 -5 -50l-25 -8q-9 25 -9 47q0 17 8.5 48t8.5 48q0 19 -8.5 56.5t-8.5 56.5q0 23 2 44q-27 34 -27 68q0 45 35 80q-3 57 -3 77q0 118 -60 135 l-34 -8q-48 -69 -48 -226q0 -54 5 -158q7 -110 7 -159l-20 -5v117q0 26 4 79t4 78q0 255 -48 282h-44q-34 0 -51 5zM435 169q0 10 21 113q27 -41 27 -139q0 -90 -22 -148l-9 5l-5 121q-12 22 -12 48z" />
<glyph unicode="&#xf8;" horiz-adv-x="1067" d="M73 408q0 232 169 362q113 87 318 87q172 0 303.5 -136t131.5 -308q0 -125 -68 -213q-65 -65 -128 -132q-69 -73 -69 -160q0 -43 9 -126.5t9 -124.5l-35 -9l-8 4q-5 46 -5 70q0 51 8 235q-13 41 -56 48l-53 -19q-34 -37 -34 -107q0 -26 4 -74.5t4 -74.5q0 -53 -22 -95 q-20 78 -20 118q0 25 10 75.5t10 75.5q0 81 -82 82l-34 -47q12 -164 12 -168q0 -15 -11 -45.5t-11 -48.5q0 -23 7 -72.5t7 -73.5q0 -17 -4 -36l-31 -4l-5 14q9 210 9 225q0 16 -6 44t-6 43q0 16 4 44t4 43q0 86 -47 101q-16 -22 -31 -22q-9 0 -26 31q-22 39 -23.5 41.5 t-64 46t-101.5 137.5q-38 85 -38 169zM225 418q0 -150 67 -263q78 -133 220 -133q154 0 244 135q79 116 79 278q0 123 -50 220q-56 115 -164 145q-17 -54 -13 -151l-21 -14q-36 5 -36 48q0 13 7 40.5t7 41.5q0 25 -22 39l-60 8l-36 -12l-25 -61l-6 -273q0 -21 6 -53 q6 -39 8 -53l-34 -3l-19 17q27 116 27 235q0 132 -52 144q-72 -84 -99.5 -155.5t-27.5 -179.5zM300 -244q11 34 21 104l22 -107q-14 -7 -31 -9zM531 -669q22 44 20 195q22 -47 22 -152q0 -40 -13 -57l-17 -5z" />
<glyph unicode="&#xf9;" horiz-adv-x="1063" d="M49 840h275q-1 -50 -8 -248q-5 -153 -5 -249q0 -118 34 -167q42 -63 153 -63q87 0 157 29q91 39 104 111q4 18 4 116q0 42 4 125t4 126q0 99 -25 141l-22 9q-43 -60 -43 -157q0 -43 12 -121l-26 -14q-13 22 -13 48q22 44 22 92q0 41 -17 97q-21 67 -48 80q-15 5 -33 12 t-20 24q120 9 126 9h219q0 -79 -9.5 -240t-9.5 -243q0 -133 19 -231h8q34 -15 139 -17v-30q-41 -11 -60 -69q-15 -46 -31 -92q-3 55 -31 108h-8q-44 -74 -44 -144q0 -37 6.5 -109t6.5 -104l-25 -4l-6 9q18 84 18 157q0 128 -48 186l-65 -12l-4 147h-13v-4q-62 -59 -62 -365 q0 -179 17 -356l-25 -14l-9 26q14 29 14 75q0 22 -4.5 67t-4.5 67q0 48 6 141t6 141q0 79 -12 126l-44 17q-53 -66 -53 -216q0 -31 2.5 -90t2.5 -90q0 -85 -17 -143q-17 21 -17 79q0 41 4.5 123.5t4.5 123.5q0 131 -62 149q-48 -65 -48 -130q0 -29 7 -83.5t7 -78.5l-17 -9 q-32 5 -31 45q21 40 21 107q0 96 -31 130q-14 17 -71 35.5t-89 61.5q-60 77 -60 256q0 55 6 162.5t6 161.5q0 79 -26 106l-112 31zM276 1216v39l28 31h23q38 0 67 -14q41 -18 125 -136q78 -109 97 -162h-17q-36 42 -92 51q-29 -53 -29 -215q0 -73 12 -341l-26 -9 q-10 26 -10 72v27q1 20 1 27q18 38 18 121q0 318 -43 383q-15 22 -72 63q-68 51 -82 63zM942 -265q0 -18 17 91q26 -43 26 -118q0 -32 -9 -73h-22l-3 70q-9 15 -9 30z" />
<glyph unicode="&#xfa;" horiz-adv-x="1063" d="M49 840h275q-1 -50 -8 -248q-5 -153 -5 -249q0 -118 34 -167q42 -63 153 -63q87 0 157 29q91 39 104 111q4 18 4 116q0 42 4 125t4 126q0 99 -25 141l-22 9q-43 -60 -43 -157q0 -43 12 -121l-26 -14q-13 22 -13 48q22 44 22 92q0 41 -17 97q-21 67 -48 80q-15 5 -33 12 t-20 24q120 9 126 9h219q0 -79 -9.5 -240t-9.5 -243q0 -133 19 -231h8q34 -15 139 -17v-30q-41 -11 -60 -69q-15 -46 -31 -92q-3 55 -31 108h-8q-44 -74 -44 -144q0 -37 6.5 -109t6.5 -104l-25 -4l-6 9q18 84 18 157q0 128 -48 186l-65 -12l-4 147h-13v-4q-62 -59 -62 -365 q0 -179 17 -356l-25 -14l-9 26q14 29 14 75q0 22 -4.5 67t-4.5 67q0 48 6 141t6 141q0 79 -12 126l-44 17q-53 -66 -53 -216q0 -31 2.5 -90t2.5 -90q0 -85 -17 -143q-17 21 -17 79q0 41 4.5 123.5t4.5 123.5q0 131 -62 149q-48 -65 -48 -130q0 -29 7 -83.5t7 -78.5l-17 -9 q-32 5 -31 45q21 40 21 107q0 96 -31 130q-14 17 -71 35.5t-89 61.5q-60 77 -60 256q0 55 6 162.5t6 161.5q0 79 -26 106l-112 31zM337 974v8q47 82 160 231q32 24 96 73h58l25 -31q-5 -56 -76.5 -127t-71.5 -154q0 -41 11 -119.5t11 -119.5q0 -24 -9 -41l-25 -12 q-19 32 -19 99q27 46 27 131q0 104 -30 152q-21 -22 -74 -52t-83 -38zM942 -265q0 -18 17 91q26 -43 26 -118q0 -32 -9 -73h-22l-3 70q-9 15 -9 30z" />
<glyph unicode="&#xfb;" horiz-adv-x="1063" d="M49 840h275q-1 -50 -8 -248q-5 -153 -5 -249q0 -118 34 -167q42 -63 153 -63q87 0 157 29q91 39 104 111q4 18 4 116q0 42 4 125t4 126q0 99 -25 141l-22 9q-43 -60 -43 -157q0 -43 12 -121l-26 -14q-13 22 -13 48q22 44 22 92q0 41 -17 97q-21 67 -48 80q-15 5 -33 12 t-20 24q120 9 126 9h219q0 -79 -9.5 -240t-9.5 -243q0 -133 19 -231h8q34 -15 139 -17v-30q-41 -11 -60 -69q-15 -46 -31 -92q-3 55 -31 108h-8q-44 -74 -44 -144q0 -37 6.5 -109t6.5 -104l-25 -4l-6 9q18 84 18 157q0 128 -48 186l-65 -12l-4 147h-13v-4q-62 -59 -62 -365 q0 -179 17 -356l-25 -14l-9 26q14 29 14 75q0 22 -4.5 67t-4.5 67q0 48 6 141t6 141q0 79 -12 126l-44 17q-53 -66 -53 -216q0 -31 2.5 -90t2.5 -90q0 -85 -17 -143q-17 21 -17 79q0 41 4.5 123.5t4.5 123.5q0 131 -62 149q-48 -65 -48 -130q0 -29 7 -83.5t7 -78.5l-17 -9 q-32 5 -31 45q21 40 21 107q0 96 -31 130q-14 17 -71 35.5t-89 61.5q-60 77 -60 256q0 55 6 162.5t6 161.5q0 79 -26 106l-112 31zM302 1001l331 396q23 -14 99 -118q81 -92 239 -278q-20 -22 -47 -44q-31 27 -98 107l-193 232l-283 -339h-5zM942 -265q0 -18 17 91 q26 -43 26 -118q0 -32 -9 -73h-22l-3 70q-9 15 -9 30z" />
</font>
</defs>
</svg>
